<svg xmlns="http://www.w3.org/2000/svg" xmlns:xlink="http://www.w3.org/1999/xlink" width="500" zoomAndPan="magnify" viewBox="0 0 375 374.999991" height="500" preserveAspectRatio="xMidYMid meet" version="1.0"><defs><clipPath id="760a6d24cd"><path d="M 75 122.394531 L 297.65625 122.394531 L 297.65625 284.640625 L 75 284.640625 Z M 75 122.394531 " clip-rule="nonzero"/></clipPath><clipPath id="8dfa3a21bd"><path d="M 69.742188 77.664062 L 305 77.664062 L 305 297.414062 L 69.742188 297.414062 Z M 69.742188 77.664062 " clip-rule="nonzero"/></clipPath></defs><rect x="-37.5" width="450" fill="#ffffff" y="-37.499999" height="449.999989" fill-opacity="1"/><rect x="-37.5" width="450" fill="#ffffff" y="-37.499999" height="449.999989" fill-opacity="1"/><rect x="-37.5" width="450" fill="#535450" y="-37.499999" height="449.999989" fill-opacity="1"/><g clip-path="url(#760a6d24cd)"><path fill="#ffe5b3" d="M 75 122.394531 L 298.242188 122.394531 L 298.242188 284.113281 L 75 284.113281 Z M 75 122.394531 " fill-opacity="1" fill-rule="nonzero"/></g><g clip-path="url(#8dfa3a21bd)"><path fill="#1e1e1e" d="M 304.347656 209.53125 C 304.820312 190.484375 305.242188 171.488281 304.820312 152.445312 C 304.867188 148.015625 305.007812 143.535156 304.722656 139.105469 C 304.394531 134.625 303.96875 130.148438 303.78125 125.621094 C 303.59375 117.890625 304.160156 110.160156 303.96875 102.429688 C 303.96875 102.242188 303.96875 102.101562 303.921875 101.910156 C 303.828125 101.863281 303.78125 101.769531 303.78125 101.722656 C 303.734375 100.828125 303.6875 99.980469 303.640625 99.082031 C 303.640625 98.894531 303.640625 98.753906 303.640625 98.566406 C 303.640625 98.375 303.640625 98.140625 303.640625 97.953125 C 303.640625 97.90625 303.640625 97.8125 303.59375 97.714844 C 303.59375 97.667969 303.59375 97.574219 303.546875 97.527344 C 303.546875 97.339844 303.5 97.152344 303.5 96.960938 C 303.5 96.867188 303.5 96.726562 303.453125 96.632812 C 303.453125 96.539062 303.453125 96.445312 303.453125 96.351562 C 303.453125 96.160156 303.453125 95.972656 303.453125 95.738281 C 303.214844 92.765625 303.121094 89.796875 303.453125 86.828125 C 303.6875 85.175781 303.875 83.480469 303.96875 81.785156 C 304.019531 81.785156 304.019531 81.785156 304.066406 81.785156 C 304.066406 81.359375 304.066406 80.886719 304.066406 80.464844 C 304.066406 80.132812 304.066406 79.804688 304.113281 79.472656 C 304.113281 79.472656 304.113281 79.472656 304.066406 79.472656 C 303.875 79.472656 303.640625 79.519531 303.453125 79.519531 C 303.214844 79.519531 302.980469 79.519531 302.792969 79.519531 L 302.746094 79.519531 C 302.367188 79.519531 301.992188 79.472656 301.613281 79.472656 C 301.613281 79.472656 301.566406 79.472656 301.566406 79.472656 C 301.519531 79.472656 301.519531 79.472656 301.472656 79.472656 C 299.070312 79.519531 296.621094 79.425781 294.21875 79.332031 C 282.203125 78.71875 270.140625 77.917969 258.078125 78.058594 C 245.402344 77.730469 232.773438 78.203125 220.097656 78.53125 C 202.476562 79.003906 184.902344 78.957031 167.277344 79.566406 C 147.441406 79.804688 127.699219 79.945312 107.910156 81.5 C 100.324219 82.347656 92.785156 83.199219 85.152344 83.714844 C 82.136719 84 79.074219 84.140625 76.058594 84.234375 C 76.058594 84.234375 76.007812 84.234375 76.007812 84.234375 C 75.820312 84.28125 75.585938 84.328125 75.398438 84.328125 C 75.160156 84.328125 74.972656 84.328125 74.738281 84.328125 C 74.550781 84.328125 74.40625 84.328125 74.265625 84.328125 L 74.03125 84.328125 C 73.605469 84.328125 73.136719 84.328125 72.710938 84.328125 L 72.664062 84.328125 C 72.664062 84.375 72.664062 84.421875 72.617188 84.46875 C 72.570312 84.613281 72.570312 84.753906 72.523438 84.894531 C 72.523438 84.988281 72.523438 85.082031 72.476562 85.175781 C 72.429688 85.648438 72.382812 86.121094 72.289062 86.59375 C 72.289062 86.640625 72.289062 86.6875 72.289062 86.734375 C 72.289062 86.734375 72.289062 86.78125 72.289062 86.78125 C 72.144531 88.382812 72.050781 89.984375 72.144531 91.589844 C 72.429688 99.460938 71.628906 107.378906 72.144531 115.253906 C 72.429688 125.292969 71.535156 135.285156 71.484375 145.328125 C 71.582031 155.414062 70.828125 165.550781 70.636719 175.636719 C 70.96875 182.425781 70.496094 189.214844 70.449219 195.953125 C 70.542969 202.410156 70.261719 208.824219 70.167969 215.28125 C 70.121094 221.785156 70.167969 228.339844 70.167969 234.84375 C 70.214844 243.515625 70.261719 252.191406 70.121094 260.863281 C 69.742188 270.527344 69.929688 280.285156 70.730469 289.949219 C 70.78125 290.183594 70.78125 290.421875 70.828125 290.65625 C 70.875 291.175781 70.921875 291.691406 70.96875 292.210938 C 70.96875 292.210938 71.015625 292.210938 71.015625 292.210938 C 71.0625 292.210938 71.0625 292.210938 71.109375 292.210938 C 71.25 292.257812 71.4375 292.257812 71.582031 292.304688 C 72.003906 292.351562 72.476562 292.351562 72.898438 292.351562 C 73.089844 292.351562 73.324219 292.351562 73.511719 292.398438 C 73.511719 292.398438 73.511719 292.398438 73.511719 292.351562 C 74.785156 292.351562 76.007812 292.351562 77.28125 292.351562 C 82.324219 292.210938 87.414062 292.210938 92.453125 292.492188 C 95 292.542969 97.542969 292.542969 100.132812 292.542969 C 107.671875 292.542969 115.210938 292.351562 122.75 292.070312 C 126.566406 291.929688 130.433594 291.929688 134.25 291.976562 C 136.792969 291.976562 139.382812 291.976562 141.929688 291.929688 C 149.183594 291.691406 156.535156 291.550781 163.839844 291.738281 C 179.105469 291.691406 194.324219 291.550781 209.589844 291.269531 C 216.519531 290.84375 223.492188 290.9375 230.417969 290.984375 C 234.09375 291.03125 237.769531 291.03125 241.445312 291.03125 C 248.886719 290.84375 256.378906 290.84375 263.824219 290.84375 C 264.863281 293.058594 267.171875 294.425781 269.339844 295.464844 C 270.46875 295.980469 271.503906 296.640625 272.683594 297.019531 C 273.910156 297.347656 275.179688 297.300781 276.40625 297.347656 C 277.347656 297.347656 278.289062 297.253906 279.234375 297.019531 C 279.515625 296.925781 279.84375 296.832031 280.128906 296.738281 C 281.351562 296.546875 282.484375 296.21875 283.472656 295.699219 C 285.6875 294.566406 287.335938 292.730469 288.609375 290.5625 C 291.011719 290.46875 293.414062 290.277344 295.773438 289.996094 C 296.480469 290.042969 297.183594 289.808594 297.84375 289.570312 C 298.644531 289.570312 299.445312 289.523438 300.25 289.617188 C 300.765625 289.808594 301.332031 289.476562 301.472656 288.816406 C 301.519531 288.582031 301.519531 288.347656 301.472656 288.15625 C 301.472656 288.0625 301.519531 287.96875 301.519531 287.875 C 301.613281 286.035156 301.660156 284.199219 301.707031 282.359375 C 302.320312 275.664062 302.132812 268.925781 302.558594 262.183594 C 302.792969 258.976562 303.027344 255.726562 303.214844 252.519531 C 303.453125 248.183594 304.113281 243.894531 304.207031 239.605469 C 304.441406 234.042969 304.488281 228.527344 304.300781 222.964844 C 304.253906 218.484375 304.394531 214.007812 304.347656 209.53125 Z M 294.167969 178.089844 C 294.121094 185.726562 293.886719 193.3125 293.746094 200.949219 C 293.886719 210.753906 293.464844 220.558594 292.851562 230.363281 C 292.613281 235.269531 292.566406 240.121094 292.238281 244.976562 C 291.859375 247.804688 291.625 250.683594 291.390625 253.511719 C 290.964844 258.128906 290.777344 262.796875 290.070312 267.417969 C 289.929688 268.59375 289.882812 269.820312 289.789062 271 C 289.410156 270.621094 288.941406 270.199219 288.46875 269.820312 C 288.375 269.773438 288.28125 269.679688 288.234375 269.632812 C 288.042969 269.492188 287.902344 269.394531 287.714844 269.300781 C 287.101562 268.925781 286.488281 268.640625 285.925781 268.546875 C 285.875 268.546875 285.828125 268.546875 285.78125 268.546875 C 285.546875 268.265625 285.265625 268.027344 284.933594 267.792969 C 284.792969 267.699219 284.652344 267.605469 284.511719 267.558594 C 284.085938 267.367188 283.378906 267.132812 282.578125 266.945312 C 281.964844 266.804688 281.257812 266.660156 280.648438 266.660156 C 280.503906 266.660156 280.363281 266.660156 280.222656 266.660156 C 279.894531 266.050781 279.421875 265.4375 278.808594 264.964844 C 277.820312 264.117188 276.546875 263.976562 275.324219 263.976562 C 275.324219 263.738281 275.324219 263.550781 275.324219 263.316406 C 275.324219 261.996094 275.273438 260.628906 275.085938 259.308594 C 274.851562 256.855469 273.910156 255.019531 272.683594 253.933594 C 272.449219 253.746094 272.210938 253.558594 271.976562 253.417969 C 271.363281 253.039062 270.75 252.898438 270.09375 252.898438 C 268.253906 252.898438 266.417969 254.40625 265.472656 257.753906 C 265.191406 258.695312 265.003906 259.683594 264.863281 260.675781 C 264.863281 260.769531 264.816406 260.863281 264.816406 260.957031 C 264.671875 261.949219 264.578125 262.890625 264.53125 263.882812 C 264.53125 264.257812 264.484375 264.636719 264.484375 264.964844 C 264.4375 265.671875 264.4375 266.378906 264.4375 267.039062 C 264.4375 268.546875 264.484375 270.054688 264.484375 271.566406 C 264.015625 271.1875 263.496094 270.855469 262.976562 270.621094 C 262.648438 270.527344 262.269531 270.433594 261.894531 270.386719 C 260.808594 270.246094 259.679688 270.339844 258.6875 270.808594 C 258.125 271.046875 257.511719 271.234375 256.992188 271.46875 C 256.851562 271.515625 256.710938 271.613281 256.570312 271.660156 C 256.144531 271.847656 255.769531 272.082031 255.4375 272.414062 C 254.589844 273.355469 254.070312 274.582031 253.929688 275.761719 C 253.882812 276.46875 253.929688 277.222656 254.164062 277.832031 C 245.261719 277.363281 236.355469 276.796875 227.449219 276.515625 C 220.804688 276.183594 214.113281 276.46875 207.472656 276.75 C 202.804688 276.84375 198.09375 276.9375 193.429688 277.125 C 190.554688 277.222656 187.679688 277.125 184.808594 277.078125 C 182.074219 277.03125 179.339844 276.984375 176.609375 277.03125 C 172.085938 277.078125 167.5625 277.222656 162.992188 277.175781 C 156.207031 277.03125 149.375 277.125 142.589844 277.222656 C 135.898438 277.316406 129.207031 277.222656 122.515625 277.550781 C 113.515625 277.738281 104.46875 278.070312 95.515625 279.011719 C 91.511719 279.199219 87.554688 279.390625 83.597656 279.71875 C 83.597656 276.75 83.546875 273.78125 83.40625 270.761719 C 83.265625 262.5625 83.5 254.359375 83.691406 246.15625 C 83.597656 239.652344 83.5 233.050781 83.40625 226.453125 C 83.125 220.9375 83.171875 215.421875 83.171875 209.90625 C 82.84375 203.308594 83.03125 196.753906 82.511719 190.15625 C 82.464844 186.714844 82.9375 183.273438 82.792969 179.832031 C 82.324219 175.070312 82.746094 170.261719 82.84375 165.503906 C 82.84375 163.757812 82.605469 162.015625 82.417969 160.269531 C 82.230469 156.875 82.089844 153.527344 81.851562 150.136719 C 81.898438 146.222656 81.898438 142.355469 81.851562 138.445312 C 81.898438 134.957031 82.089844 131.46875 82.136719 128.027344 C 82.652344 128.027344 83.171875 128.074219 83.644531 128.074219 C 86.5625 127.980469 89.203125 127.792969 92.21875 127.792969 C 95.5625 127.742188 98.863281 127.367188 102.207031 127.179688 C 105.976562 127.179688 109.699219 127.035156 113.421875 126.707031 C 118.132812 126.378906 122.894531 126.09375 127.605469 125.90625 C 136.039062 125.480469 144.472656 124.820312 152.953125 125.339844 C 161.390625 125.574219 169.824219 125.292969 178.257812 125.765625 C 182.921875 126 187.632812 125.953125 192.347656 126.046875 C 198.046875 126.1875 203.796875 126.660156 209.496094 126.800781 C 215.246094 126.800781 221.042969 126.800781 226.789062 126.941406 C 233.667969 126.894531 240.546875 126.660156 247.476562 126.613281 C 256.617188 126.660156 265.757812 126.09375 274.851562 125.433594 C 280.035156 125.339844 285.21875 125.152344 290.542969 125.386719 C 290.964844 125.386719 291.4375 125.433594 291.859375 125.433594 C 291.90625 126.988281 292.003906 128.59375 292.050781 130.148438 C 292.144531 133.257812 292.472656 136.371094 292.757812 139.480469 C 292.757812 143.488281 293.226562 147.449219 293.039062 151.453125 C 293.367188 157.394531 293.558594 163.382812 293.792969 169.367188 C 293.980469 172.382812 294.3125 175.210938 294.167969 178.089844 Z M 294.167969 178.089844 " fill-opacity="1" fill-rule="nonzero"/></g><path fill="#7198fd" d="M 74.691406 92.625 C 74.738281 93.710938 74.738281 94.746094 74.738281 95.785156 C 74.738281 95.925781 74.738281 96.113281 74.738281 96.253906 C 74.738281 97.105469 74.738281 97.90625 74.691406 98.753906 C 74.691406 98.941406 74.691406 99.082031 74.691406 99.273438 C 75.160156 99.179688 75.679688 99.128906 76.152344 99.082031 C 83.265625 98.613281 90.285156 97.90625 97.402344 97.199219 C 103.246094 96.773438 109.085938 96.351562 114.929688 95.832031 C 124.636719 95.078125 134.390625 95.03125 144.144531 94.746094 C 153.851562 94.464844 163.554688 94.605469 173.214844 94.652344 C 183.109375 94.371094 193.054688 94.511719 202.949219 94.277344 C 231.21875 94.839844 259.539062 94.839844 287.855469 95.832031 C 291.578125 95.925781 295.347656 96.160156 299.023438 96.585938 C 299.730469 96.679688 300.4375 96.726562 301.097656 96.820312 C 300.859375 94.085938 300.71875 91.304688 300.90625 88.570312 C 300.90625 88.523438 300.90625 88.523438 300.90625 88.476562 C 301.050781 86.355469 301.378906 84.234375 301.519531 82.066406 C 301.378906 82.066406 301.238281 82.066406 301.097656 82.066406 C 301.097656 82.066406 301.050781 82.066406 301.003906 82.066406 C 300.34375 82.019531 299.636719 82.019531 299.023438 82.066406 C 298.976562 82.066406 298.976562 82.066406 298.929688 82.066406 C 296.621094 82.066406 294.265625 81.972656 291.957031 81.832031 C 284.792969 81.5 277.632812 80.933594 270.46875 80.792969 C 260.667969 80.605469 250.820312 80.417969 240.925781 80.511719 C 223.207031 81.03125 205.492188 81.453125 187.777344 81.546875 C 161.8125 82.445312 135.804688 81.972656 109.933594 83.859375 C 104.941406 84.1875 100.039062 85.035156 95.09375 85.460938 C 91.183594 85.742188 87.222656 86.074219 83.3125 86.402344 C 80.484375 86.640625 77.660156 86.734375 74.785156 86.78125 C 74.785156 86.78125 74.785156 86.828125 74.785156 86.828125 C 74.785156 86.875 74.785156 86.921875 74.785156 86.96875 C 74.597656 88.808594 74.597656 90.738281 74.691406 92.625 Z M 286.066406 86.734375 C 286.347656 85.601562 287.289062 84.753906 288.328125 84.421875 C 288.46875 84.375 288.609375 84.328125 288.796875 84.28125 C 288.890625 84.28125 288.988281 84.234375 289.082031 84.234375 C 289.128906 84.234375 289.222656 84.234375 289.316406 84.28125 C 289.410156 84.28125 289.503906 84.28125 289.644531 84.28125 C 289.644531 84.28125 289.695312 84.28125 289.695312 84.28125 C 289.835938 84.28125 289.976562 84.28125 290.117188 84.28125 C 290.257812 84.28125 290.351562 84.328125 290.496094 84.328125 C 290.542969 84.328125 290.589844 84.328125 290.683594 84.375 C 290.683594 84.375 290.730469 84.375 290.730469 84.375 C 290.777344 84.421875 290.871094 84.519531 290.917969 84.613281 C 290.917969 84.660156 290.964844 84.660156 290.964844 84.707031 C 292.378906 84.707031 294.074219 85.414062 294.453125 86.921875 C 294.640625 88.996094 293.933594 90.882812 292.144531 91.542969 C 292.097656 91.542969 292.050781 91.589844 291.957031 91.589844 C 291.859375 91.636719 291.765625 91.636719 291.671875 91.683594 C 291.390625 91.730469 291.058594 91.777344 290.683594 91.777344 C 289.175781 91.730469 287.289062 91.589844 286.347656 90.222656 C 285.734375 89.230469 285.828125 87.863281 286.066406 86.734375 Z M 275.746094 84.800781 C 275.933594 84.660156 276.171875 84.519531 276.359375 84.421875 C 276.972656 84.140625 277.582031 84.046875 278.242188 84.046875 C 278.289062 84.046875 278.289062 84.046875 278.335938 84.046875 C 278.386719 84.046875 278.433594 84.09375 278.527344 84.09375 C 278.527344 84.09375 278.574219 84.09375 278.574219 84.09375 C 278.621094 84.09375 278.667969 84.140625 278.761719 84.140625 C 278.855469 84.1875 278.949219 84.234375 279.042969 84.28125 C 279.234375 84.375 279.375 84.519531 279.5625 84.613281 C 279.75 84.707031 279.894531 84.753906 280.082031 84.847656 C 280.222656 84.894531 280.316406 84.988281 280.457031 85.035156 C 280.457031 85.035156 280.457031 85.035156 280.503906 85.035156 C 280.503906 85.082031 280.457031 85.082031 280.457031 85.128906 C 282.859375 86.875 282.765625 89.324219 280.597656 91.210938 C 279.703125 91.777344 278.574219 92.058594 277.488281 92.058594 C 276.972656 92.058594 276.40625 92.011719 275.886719 91.871094 C 272.824219 90.789062 273.390625 86.449219 275.746094 84.800781 Z M 260.621094 88.664062 C 260.667969 88.289062 260.761719 87.910156 260.808594 87.535156 C 260.949219 86.828125 261.09375 86.074219 261.46875 85.460938 C 261.609375 85.226562 261.800781 84.988281 262.035156 84.800781 C 263.117188 83.953125 264.625 83.292969 265.992188 83.761719 C 266.039062 83.761719 266.132812 83.8125 266.179688 83.8125 C 266.417969 83.90625 266.605469 84.140625 266.652344 84.421875 C 266.792969 84.46875 266.886719 84.566406 267.03125 84.613281 C 267.078125 84.660156 267.125 84.707031 267.171875 84.707031 C 267.453125 84.941406 267.6875 85.273438 267.925781 85.601562 C 268.347656 86.074219 268.820312 86.59375 268.960938 87.15625 C 269.054688 87.441406 269.101562 87.722656 269.007812 88.054688 C 269.007812 88.148438 268.960938 88.242188 268.960938 88.289062 C 268.960938 88.335938 268.960938 88.429688 268.914062 88.476562 C 268.914062 88.523438 268.867188 88.570312 268.867188 88.617188 C 268.820312 88.855469 268.726562 89.089844 268.632812 89.277344 C 268.632812 89.324219 268.585938 89.375 268.539062 89.46875 C 268.488281 89.515625 268.488281 89.609375 268.441406 89.703125 C 268.441406 89.75 268.394531 89.75 268.394531 89.796875 C 268.347656 89.890625 268.300781 89.984375 268.207031 90.082031 C 268.160156 90.175781 268.066406 90.316406 267.972656 90.410156 C 267.925781 90.503906 267.832031 90.597656 267.734375 90.644531 C 267.734375 90.644531 267.6875 90.691406 267.6875 90.691406 C 266.839844 91.589844 265.617188 92.105469 264.25 91.824219 C 263.261719 91.777344 262.128906 91.398438 261.328125 90.738281 C 261.28125 90.691406 261.28125 90.691406 261.234375 90.644531 C 261.1875 90.597656 261.140625 90.550781 261.09375 90.503906 C 260.808594 90.175781 260.574219 89.796875 260.527344 89.375 C 260.527344 89.375 260.527344 89.375 260.527344 89.324219 C 260.527344 89.230469 260.527344 89.136719 260.527344 88.996094 C 260.527344 88.996094 260.527344 88.996094 260.527344 88.949219 C 260.621094 88.949219 260.621094 88.808594 260.621094 88.664062 Z M 260.621094 88.664062 " fill-opacity="1" fill-rule="nonzero"/><path fill="#ff7b66" d="M 292.898438 87.863281 C 292.992188 87.347656 292.945312 86.875 292.425781 86.59375 C 292.238281 86.449219 292.003906 86.355469 291.8125 86.308594 C 291.71875 86.214844 291.625 86.121094 291.53125 86.027344 C 291.25 85.789062 290.917969 85.648438 290.589844 85.554688 C 290.589844 85.554688 290.542969 85.554688 290.542969 85.554688 C 290.398438 85.507812 290.257812 85.507812 290.070312 85.507812 C 289.789062 85.507812 289.503906 85.554688 289.222656 85.695312 C 289.128906 85.695312 288.988281 85.742188 288.890625 85.742188 C 287.382812 86.167969 286.960938 87.910156 287.527344 89.421875 C 288.328125 90.316406 289.742188 90.222656 290.824219 90.316406 C 291.011719 90.316406 291.152344 90.269531 291.296875 90.222656 C 292.425781 89.9375 292.898438 89.042969 292.898438 87.863281 Z M 292.898438 87.863281 " fill-opacity="1" fill-rule="nonzero"/><path fill="#ffffff" d="M 289.597656 278.351562 C 289.644531 277.738281 289.644531 277.078125 289.597656 276.46875 C 289.550781 275.996094 289.503906 275.523438 289.363281 275.101562 C 289.316406 274.957031 289.316406 274.769531 289.269531 274.628906 C 289.222656 274.582031 289.222656 274.488281 289.175781 274.441406 C 288.609375 273.402344 287.855469 272.367188 286.867188 271.707031 C 286.867188 272.222656 286.867188 272.742188 286.820312 273.214844 C 286.820312 273.261719 286.820312 273.355469 286.820312 273.402344 C 286.773438 273.6875 286.773438 273.96875 286.679688 274.203125 C 286.679688 274.296875 286.628906 274.394531 286.628906 274.488281 C 286.628906 274.535156 286.628906 274.582031 286.628906 274.582031 C 286.628906 274.675781 286.582031 274.769531 286.582031 274.863281 C 286.582031 275.003906 286.535156 275.148438 286.535156 275.289062 C 286.535156 275.289062 286.535156 275.335938 286.535156 275.335938 C 286.488281 275.617188 286.441406 275.902344 286.394531 276.183594 C 286.394531 276.230469 286.394531 276.230469 286.394531 276.277344 C 286.300781 276.703125 286.113281 277.125 285.875 277.410156 C 285.875 277.410156 285.828125 277.457031 285.828125 277.457031 C 285.78125 277.503906 285.734375 277.550781 285.6875 277.597656 C 285.6875 277.597656 285.640625 277.644531 285.59375 277.644531 C 285.546875 277.691406 285.453125 277.691406 285.40625 277.738281 C 285.359375 277.738281 285.359375 277.738281 285.3125 277.785156 C 285.21875 277.835938 285.121094 277.835938 284.980469 277.835938 C 284.746094 277.835938 284.511719 277.785156 284.320312 277.644531 C 284.320312 277.644531 284.273438 277.644531 284.273438 277.597656 C 284.179688 277.550781 284.132812 277.503906 284.085938 277.410156 C 284.039062 277.363281 283.992188 277.269531 283.945312 277.175781 C 283.945312 277.175781 283.945312 277.125 283.898438 277.125 C 283.851562 277.03125 283.851562 276.9375 283.804688 276.890625 C 283.757812 276.75 283.757812 276.609375 283.804688 276.417969 C 283.804688 276.230469 283.851562 276.042969 283.992188 275.902344 C 284.085938 275.570312 284.179688 275.242188 284.226562 274.910156 C 284.273438 274.769531 284.273438 274.628906 284.320312 274.488281 C 284.417969 274.015625 284.464844 273.589844 284.511719 273.121094 C 284.511719 273.074219 284.511719 273.074219 284.511719 273.027344 C 284.558594 272.789062 284.558594 272.601562 284.558594 272.367188 C 284.558594 272.320312 284.558594 272.273438 284.558594 272.222656 C 284.558594 272.035156 284.558594 271.847656 284.558594 271.660156 C 284.558594 271.46875 284.558594 271.28125 284.511719 271.09375 C 284.511719 271.046875 284.511719 271.046875 284.511719 271 C 284.464844 270.859375 284.464844 270.714844 284.367188 270.527344 C 284.367188 270.480469 284.367188 270.480469 284.320312 270.433594 C 284.273438 270.292969 284.179688 270.199219 284.085938 270.054688 C 284.085938 270.054688 284.039062 270.007812 284.039062 270.007812 C 283.945312 269.914062 283.851562 269.773438 283.710938 269.726562 C 283.613281 269.679688 283.472656 269.585938 283.378906 269.539062 C 283.332031 269.539062 283.285156 269.492188 283.285156 269.492188 C 283.144531 269.441406 283.003906 269.394531 282.859375 269.347656 C 282.859375 269.347656 282.8125 269.347656 282.8125 269.347656 C 282.671875 269.300781 282.484375 269.253906 282.34375 269.207031 C 282.296875 269.207031 282.203125 269.207031 282.15625 269.160156 C 281.964844 269.113281 281.824219 269.113281 281.636719 269.066406 C 281.589844 269.066406 281.589844 269.066406 281.542969 269.066406 C 281.402344 269.066406 281.257812 269.066406 281.117188 269.066406 C 281.304688 270.90625 280.929688 272.929688 280.648438 274.769531 C 280.597656 275.195312 280.550781 275.570312 280.503906 275.949219 C 280.503906 275.949219 280.503906 275.949219 280.503906 275.996094 C 280.503906 276.042969 280.457031 276.136719 280.457031 276.183594 C 280.457031 276.230469 280.457031 276.230469 280.410156 276.277344 C 280.410156 276.324219 280.363281 276.371094 280.316406 276.417969 C 280.316406 276.46875 280.269531 276.46875 280.269531 276.515625 C 280.222656 276.5625 280.222656 276.609375 280.175781 276.65625 C 280.175781 276.65625 280.128906 276.703125 280.128906 276.703125 C 280.082031 276.75 279.988281 276.796875 279.941406 276.84375 C 279.84375 276.890625 279.75 276.9375 279.65625 276.9375 C 279.65625 276.9375 279.609375 276.9375 279.5625 276.9375 C 279.46875 276.9375 279.375 276.984375 279.28125 276.984375 C 277.773438 276.796875 278.101562 275.289062 278.289062 274.109375 C 278.289062 274.015625 278.335938 273.921875 278.335938 273.875 C 278.335938 273.828125 278.335938 273.78125 278.335938 273.734375 C 278.335938 273.636719 278.386719 273.542969 278.386719 273.449219 C 278.386719 273.449219 278.386719 273.449219 278.386719 273.402344 C 278.433594 273.074219 278.480469 272.695312 278.527344 272.320312 C 278.527344 272.175781 278.574219 272.082031 278.574219 271.941406 C 278.574219 271.847656 278.574219 271.800781 278.621094 271.707031 C 278.621094 271.566406 278.667969 271.46875 278.667969 271.328125 C 278.667969 271.234375 278.667969 271.1875 278.667969 271.09375 C 278.667969 270.953125 278.667969 270.808594 278.714844 270.667969 C 278.714844 270.621094 278.714844 270.527344 278.714844 270.480469 C 278.714844 270.292969 278.714844 270.054688 278.714844 269.867188 C 278.714844 269.679688 278.714844 269.441406 278.667969 269.253906 C 278.667969 269.207031 278.667969 269.160156 278.667969 269.066406 C 278.667969 268.925781 278.621094 268.785156 278.621094 268.640625 C 278.621094 268.59375 278.574219 268.5 278.574219 268.453125 C 278.527344 268.3125 278.527344 268.21875 278.433594 268.078125 C 278.433594 268.027344 278.386719 267.980469 278.386719 267.933594 C 278.335938 267.746094 278.242188 267.605469 278.148438 267.464844 C 277.820312 266.945312 277.300781 266.566406 276.546875 266.378906 C 276.21875 266.378906 275.839844 266.378906 275.464844 266.332031 C 275.464844 266.332031 275.464844 266.332031 275.464844 266.378906 C 275.464844 266.613281 275.464844 266.898438 275.417969 267.132812 C 275.417969 267.605469 275.371094 268.078125 275.320312 268.546875 C 275.273438 268.972656 275.273438 269.441406 275.226562 269.867188 C 275.226562 270.101562 275.226562 270.386719 275.179688 270.621094 C 275.132812 271.941406 275.039062 273.308594 274.804688 274.628906 C 274.757812 274.816406 274.757812 275.054688 274.710938 275.242188 C 274.710938 275.335938 274.664062 275.476562 274.664062 275.570312 C 274.664062 275.570312 274.664062 275.617188 274.617188 275.664062 C 274.519531 275.855469 274.425781 276.042969 274.238281 276.183594 C 274.238281 276.183594 274.191406 276.230469 274.191406 276.230469 C 273.957031 276.371094 273.71875 276.46875 273.4375 276.46875 C 272.402344 276.371094 272.210938 275.617188 272.304688 274.769531 C 272.304688 274.769531 272.304688 274.722656 272.304688 274.722656 C 272.304688 274.535156 272.355469 274.347656 272.402344 274.15625 C 272.402344 274.15625 272.402344 274.109375 272.402344 274.109375 C 272.449219 273.921875 272.449219 273.734375 272.496094 273.542969 C 272.542969 273.355469 272.542969 273.214844 272.542969 273.027344 C 272.542969 272.835938 272.542969 272.648438 272.589844 272.507812 C 272.683594 271.1875 272.730469 269.914062 272.824219 268.59375 C 272.871094 268.027344 272.871094 267.464844 272.917969 266.898438 C 272.917969 266.757812 272.917969 266.613281 272.917969 266.472656 C 272.917969 266.050781 272.964844 265.625 272.964844 265.199219 C 272.964844 265.011719 272.964844 264.824219 272.964844 264.636719 C 272.964844 264.257812 272.964844 263.832031 272.964844 263.457031 C 272.964844 263.269531 272.964844 263.078125 272.964844 262.890625 C 272.964844 262.371094 272.964844 261.855469 272.964844 261.335938 C 272.964844 261.289062 272.964844 261.242188 272.964844 261.195312 C 272.964844 261.148438 272.964844 261.050781 272.964844 261.003906 C 272.964844 260.863281 272.964844 260.722656 272.917969 260.535156 C 272.917969 260.441406 272.917969 260.34375 272.871094 260.25 C 272.871094 260.0625 272.824219 259.875 272.824219 259.636719 C 272.824219 259.589844 272.824219 259.542969 272.824219 259.496094 C 272.777344 259.308594 272.777344 259.074219 272.730469 258.882812 C 272.730469 258.835938 272.683594 258.742188 272.683594 258.648438 C 272.636719 258.414062 272.589844 258.222656 272.542969 258.035156 C 272.449219 257.660156 272.304688 257.328125 272.164062 256.953125 C 271.175781 254.972656 269.667969 254.5 268.585938 256.714844 C 268.394531 257.046875 268.253906 257.421875 268.113281 257.800781 C 268.066406 257.894531 268.019531 258.035156 268.019531 258.128906 C 267.925781 258.414062 267.832031 258.648438 267.78125 258.929688 C 267.734375 259.027344 267.734375 259.167969 267.6875 259.261719 C 267.59375 259.636719 267.5 260.015625 267.453125 260.394531 C 267.40625 260.769531 267.3125 261.148438 267.265625 261.523438 C 267.265625 261.617188 267.265625 261.757812 267.21875 261.855469 C 267.171875 262.136719 267.171875 262.417969 267.125 262.703125 C 267.125 262.796875 267.125 262.9375 267.125 263.03125 C 267.125 263.410156 267.078125 263.785156 267.078125 264.164062 C 267.027344 265.011719 267.027344 265.859375 267.027344 266.710938 C 267.078125 267.699219 267.027344 268.734375 267.027344 269.726562 C 267.027344 270.714844 267.027344 271.753906 267.027344 272.742188 C 267.027344 272.835938 267.027344 272.929688 267.027344 273.027344 C 267.027344 273.121094 267.027344 273.167969 267.027344 273.261719 C 267.027344 273.308594 267.027344 273.355469 267.027344 273.402344 C 267.027344 273.449219 267.027344 273.449219 267.027344 273.496094 C 267.027344 273.640625 267.027344 273.828125 267.027344 273.96875 C 267.027344 274.015625 267.027344 274.0625 267.027344 274.109375 C 267.027344 274.203125 267.027344 274.25 266.980469 274.347656 C 266.980469 274.347656 266.980469 274.394531 266.980469 274.394531 C 266.980469 274.488281 266.933594 274.628906 266.886719 274.722656 C 266.886719 274.769531 266.839844 274.816406 266.839844 274.863281 C 266.839844 274.863281 266.839844 274.910156 266.839844 274.957031 C 266.839844 275.195312 266.746094 275.429688 266.652344 275.570312 C 266.605469 275.617188 266.558594 275.664062 266.511719 275.710938 C 266.417969 275.808594 266.324219 275.902344 266.179688 275.949219 C 266.039062 275.996094 265.945312 276.042969 265.804688 276.089844 C 265.664062 276.089844 265.570312 276.089844 265.425781 276.089844 C 265.285156 276.089844 265.191406 276.042969 265.050781 275.996094 C 264.910156 275.949219 264.816406 275.855469 264.71875 275.761719 C 264.625 275.664062 264.53125 275.523438 264.484375 275.429688 C 264.390625 275.195312 264.296875 274.957031 264.15625 274.722656 C 264.109375 274.628906 264.015625 274.488281 263.917969 274.394531 C 263.824219 274.25 263.683594 274.109375 263.589844 273.96875 C 263.542969 273.921875 263.542969 273.921875 263.496094 273.875 C 263.355469 273.734375 263.257812 273.636719 263.117188 273.496094 C 262.929688 273.308594 262.742188 273.167969 262.507812 273.027344 C 261.421875 272.507812 260.195312 272.789062 259.113281 273.261719 C 258.832031 273.402344 258.546875 273.496094 258.21875 273.589844 C 258.125 273.640625 257.984375 273.6875 257.886719 273.734375 C 257.605469 273.875 257.324219 274.015625 257.085938 274.25 C 257.085938 274.296875 257.039062 274.296875 257.039062 274.347656 C 256.992188 274.394531 256.992188 274.441406 256.945312 274.488281 C 256.945312 274.535156 256.898438 274.582031 256.898438 274.628906 C 256.851562 274.675781 256.851562 274.769531 256.804688 274.816406 C 256.804688 274.816406 256.804688 274.863281 256.757812 274.910156 C 256.664062 275.148438 256.570312 275.382812 256.523438 275.617188 C 256.523438 275.617188 256.523438 275.617188 256.523438 275.664062 C 256.476562 275.808594 256.476562 275.949219 256.425781 276.136719 C 256.425781 276.230469 256.425781 276.324219 256.425781 276.417969 C 256.425781 276.5625 256.425781 276.65625 256.476562 276.75 C 256.476562 276.75 256.476562 276.796875 256.476562 276.796875 C 256.476562 276.890625 256.523438 277.03125 256.570312 277.128906 C 256.570312 277.128906 256.570312 277.175781 256.617188 277.175781 C 256.664062 277.269531 256.757812 277.363281 256.804688 277.457031 C 256.804688 277.457031 256.851562 277.503906 256.851562 277.503906 C 256.945312 277.597656 257.039062 277.691406 257.179688 277.738281 C 257.324219 277.785156 257.417969 277.835938 257.558594 277.835938 C 257.558594 277.835938 257.605469 277.835938 257.605469 277.835938 C 257.699219 277.835938 257.792969 277.882812 257.886719 277.882812 C 257.933594 277.882812 257.933594 277.882812 257.984375 277.882812 C 258.078125 277.882812 258.171875 277.882812 258.265625 277.929688 C 258.265625 277.929688 258.3125 277.929688 258.359375 277.929688 C 258.972656 277.976562 259.585938 277.976562 260.195312 278.117188 C 260.386719 278.117188 260.574219 278.117188 260.761719 278.164062 C 260.808594 278.210938 260.808594 278.304688 260.855469 278.398438 C 263.117188 279.390625 264.0625 281.039062 264.625 282.925781 C 265.144531 284.714844 265.285156 286.695312 265.804688 288.675781 C 265.851562 289.007812 265.992188 289.289062 266.085938 289.570312 C 266.226562 289.855469 266.417969 290.183594 266.605469 290.421875 C 266.792969 290.65625 266.980469 290.890625 267.21875 291.128906 C 267.453125 291.316406 267.6875 291.550781 267.925781 291.691406 C 267.925781 291.691406 267.972656 291.691406 267.972656 291.738281 C 268.207031 291.929688 268.488281 292.070312 268.726562 292.257812 C 268.726562 292.257812 268.773438 292.257812 268.773438 292.304688 C 269.007812 292.445312 269.289062 292.589844 269.527344 292.730469 C 269.574219 292.730469 269.621094 292.777344 269.667969 292.777344 C 269.902344 292.917969 270.140625 293.011719 270.375 293.152344 C 270.703125 293.296875 270.988281 293.484375 271.316406 293.625 C 271.929688 294.003906 272.542969 294.285156 273.203125 294.472656 C 273.25 294.472656 273.34375 294.519531 273.390625 294.519531 C 273.53125 294.566406 273.71875 294.566406 273.863281 294.617188 C 273.910156 294.617188 274.003906 294.617188 274.050781 294.664062 C 274.238281 294.710938 274.472656 294.710938 274.664062 294.757812 C 274.992188 294.804688 275.320312 294.804688 275.605469 294.804688 C 275.699219 294.804688 275.746094 294.804688 275.839844 294.804688 C 276.171875 294.804688 276.453125 294.804688 276.78125 294.804688 C 276.78125 294.804688 276.828125 294.804688 276.828125 294.804688 C 277.207031 294.804688 277.535156 294.757812 277.914062 294.710938 C 278.289062 294.664062 278.667969 294.570312 279.042969 294.472656 C 279.1875 294.425781 279.28125 294.425781 279.421875 294.378906 C 279.5625 294.332031 279.703125 294.285156 279.84375 294.285156 C 279.988281 294.238281 280.128906 294.191406 280.316406 294.144531 C 280.648438 294.050781 280.976562 293.957031 281.304688 293.859375 C 282.25 293.578125 283.144531 293.152344 283.945312 292.496094 C 283.992188 292.445312 284.085938 292.398438 284.132812 292.351562 C 284.320312 292.164062 284.511719 291.976562 284.699219 291.738281 C 285.171875 291.269531 285.59375 290.703125 285.972656 290.136719 C 286.207031 289.761719 286.441406 289.429688 286.628906 289.054688 C 287.007812 288.394531 287.335938 287.734375 287.667969 287.074219 C 287.902344 286.695312 288.089844 286.320312 288.28125 285.894531 C 288.46875 285.519531 288.65625 285.09375 288.796875 284.667969 C 288.890625 284.480469 288.941406 284.246094 289.035156 284.054688 C 289.035156 284.007812 289.035156 283.960938 289.082031 283.914062 C 289.269531 283.300781 289.363281 282.738281 289.410156 282.078125 C 289.363281 280.898438 289.550781 279.625 289.597656 278.351562 Z M 289.597656 278.351562 " fill-opacity="1" fill-rule="nonzero"/><path fill="#bee8df" d="M 174.109375 110.632812 C 174.109375 110.726562 174.109375 110.773438 174.109375 110.867188 C 174.0625 111.621094 174.0625 112.375 174.109375 113.132812 C 175.195312 112.707031 175.617188 111.574219 175.007812 110.585938 C 174.675781 110.585938 174.394531 110.585938 174.109375 110.632812 Z M 302.367188 152.113281 C 302.367188 150.511719 302.367188 148.910156 302.414062 147.308594 C 302.558594 141.132812 301.851562 135.003906 301.472656 128.875 C 301.332031 126.328125 301.238281 123.738281 301.238281 121.191406 C 301.332031 114.96875 301.613281 108.746094 301.472656 102.523438 C 301.425781 101.675781 301.378906 100.875 301.285156 100.027344 C 301.285156 99.789062 301.238281 99.554688 301.238281 99.320312 C 297.84375 98.988281 294.40625 98.566406 291.011719 98.472656 C 264.15625 97.386719 237.296875 97.480469 210.441406 96.914062 C 206.859375 96.773438 203.277344 96.773438 199.695312 96.820312 C 198.800781 96.820312 197.953125 96.820312 197.105469 96.867188 C 195.925781 96.867188 194.75 96.914062 193.570312 96.914062 C 191.828125 96.914062 190.085938 96.960938 188.386719 96.914062 C 186.785156 96.914062 185.136719 96.914062 183.535156 96.960938 C 181.933594 96.960938 180.378906 97.007812 178.777344 97.058594 C 176.515625 97.105469 174.253906 97.152344 171.992188 97.152344 C 170.105469 97.152344 168.175781 97.152344 166.289062 97.105469 C 158.136719 97.007812 149.9375 97.105469 141.789062 97.292969 C 135.238281 97.433594 128.6875 97.667969 122.140625 97.90625 C 112.761719 98.472656 103.433594 99.320312 94.101562 100.074219 C 93.914062 100.074219 93.726562 100.121094 93.539062 100.121094 C 87.601562 100.640625 82.039062 101.109375 75.960938 101.582031 C 75.960938 101.628906 75.960938 101.628906 75.914062 101.675781 C 75.820312 101.675781 75.726562 101.675781 75.632812 101.675781 C 75.632812 101.675781 75.585938 101.675781 75.585938 101.675781 C 75.539062 101.675781 75.492188 101.675781 75.445312 101.675781 C 75.445312 101.675781 75.398438 101.675781 75.398438 101.675781 C 75.398438 101.675781 75.351562 101.675781 75.351562 101.675781 C 75.207031 101.675781 75.066406 101.675781 74.972656 101.722656 C 74.925781 101.722656 74.878906 101.722656 74.832031 101.722656 C 74.785156 101.722656 74.785156 101.769531 74.738281 101.816406 C 74.738281 101.816406 74.738281 101.816406 74.691406 101.863281 C 74.691406 101.863281 74.691406 101.863281 74.738281 101.863281 C 74.738281 101.863281 74.691406 101.910156 74.691406 101.910156 C 74.644531 101.910156 74.644531 101.960938 74.644531 101.960938 C 74.597656 102.007812 74.550781 102.054688 74.5 102.101562 C 74.5 102.148438 74.453125 102.148438 74.453125 102.195312 C 74.453125 102.195312 74.453125 102.242188 74.453125 102.242188 C 74.453125 102.289062 74.453125 102.335938 74.453125 102.382812 C 74.453125 102.476562 74.453125 102.523438 74.5 102.617188 C 74.550781 102.761719 74.550781 102.855469 74.644531 102.996094 C 74.644531 103.277344 74.644531 103.515625 74.597656 103.796875 C 74.597656 104.222656 74.550781 104.644531 74.550781 105.023438 C 74.40625 109.265625 74.644531 113.554688 74.738281 117.796875 C 74.738281 126.753906 74.125 135.710938 74.03125 144.667969 C 74.078125 151.550781 73.796875 158.429688 73.511719 165.3125 C 73.464844 167.105469 73.371094 168.847656 73.324219 170.640625 C 73.136719 173.421875 73.230469 176.25 73.277344 179.03125 C 73.324219 180.398438 73.324219 181.71875 73.324219 183.085938 C 73.042969 193.457031 73.042969 203.777344 72.804688 214.148438 C 72.804688 214.761719 72.804688 215.328125 72.757812 215.941406 C 72.757812 217.355469 72.757812 218.722656 72.757812 220.136719 C 72.804688 231.636719 72.851562 243.1875 72.851562 254.734375 C 72.851562 257.09375 72.804688 259.449219 72.710938 261.808594 C 72.664062 263.457031 72.617188 265.105469 72.617188 266.804688 C 72.570312 270.433594 72.523438 274.015625 72.710938 277.597656 C 72.757812 278.683594 72.804688 279.71875 72.851562 280.804688 C 72.992188 283.867188 73.136719 286.980469 73.371094 290.042969 C 76.433594 290.042969 79.449219 289.996094 82.511719 289.949219 C 83.125 289.949219 83.738281 289.949219 84.347656 289.902344 C 85.621094 289.949219 86.894531 289.996094 88.167969 290.042969 C 93.019531 290.183594 97.871094 290.324219 102.726562 290.230469 C 105.222656 290.230469 107.71875 290.230469 110.21875 290.183594 C 114.601562 290.089844 118.933594 289.949219 123.269531 289.808594 C 125.8125 289.714844 128.40625 289.714844 130.996094 289.714844 C 132.175781 289.714844 133.351562 289.714844 134.53125 289.714844 C 134.90625 289.714844 135.285156 289.714844 135.710938 289.714844 C 139.242188 289.714844 142.730469 289.714844 146.214844 289.570312 C 148.195312 289.476562 150.175781 289.429688 152.152344 289.429688 C 154.980469 289.382812 157.855469 289.429688 160.683594 289.476562 C 161.53125 289.476562 162.378906 289.476562 163.226562 289.476562 C 165.109375 289.476562 166.996094 289.523438 168.878906 289.476562 C 170.53125 289.476562 172.132812 289.429688 173.78125 289.429688 C 184.902344 289.335938 196.019531 289.242188 207.140625 289.054688 C 208.460938 289.003906 209.78125 288.910156 211.097656 288.910156 C 213.878906 288.816406 216.707031 288.769531 219.488281 288.722656 C 225.46875 288.628906 231.40625 288.675781 237.390625 288.769531 C 237.910156 288.769531 238.382812 288.769531 238.898438 288.769531 C 241.960938 288.722656 245.023438 288.675781 248.085938 288.628906 C 253.128906 288.582031 258.171875 288.582031 263.261719 288.535156 C 262.835938 286.648438 262.742188 284.667969 262.035156 282.878906 C 261.988281 282.738281 261.941406 282.59375 261.847656 282.453125 C 261.847656 282.453125 261.800781 282.40625 261.800781 282.359375 C 261.703125 282.21875 261.609375 282.125 261.515625 281.980469 C 261.46875 281.933594 261.421875 281.886719 261.328125 281.792969 C 261.234375 281.699219 261.140625 281.605469 261.09375 281.558594 C 261.046875 281.511719 260.949219 281.464844 260.902344 281.417969 C 260.808594 281.371094 260.714844 281.273438 260.621094 281.226562 C 260.527344 281.179688 260.480469 281.132812 260.386719 281.085938 C 260.339844 281.039062 260.246094 281.039062 260.195312 280.992188 C 260.101562 280.945312 259.960938 280.898438 259.867188 280.851562 C 253.269531 280.378906 246.625 280.332031 239.984375 279.71875 C 238.804688 279.671875 237.578125 279.625 236.402344 279.578125 C 234.421875 279.484375 232.398438 279.390625 230.417969 279.34375 C 228.015625 279.25 225.613281 279.152344 223.207031 279.105469 C 222.078125 279.105469 220.996094 279.105469 219.863281 279.105469 C 215.859375 279.152344 211.851562 279.34375 207.847656 279.484375 C 202.851562 279.625 198.140625 279.71875 193.242188 279.859375 C 192.863281 279.859375 192.535156 279.859375 192.15625 279.90625 C 185.371094 279.90625 178.585938 279.671875 171.847656 279.859375 C 157.949219 279.957031 143.90625 279.8125 129.960938 280.097656 C 126.992188 280.144531 124.023438 280.238281 121.054688 280.332031 C 119.640625 280.378906 118.273438 280.425781 116.957031 280.472656 C 115.449219 280.519531 113.988281 280.566406 112.480469 280.613281 C 110.40625 280.566406 108.523438 280.613281 106.636719 280.710938 C 103.714844 280.898438 100.839844 281.179688 97.917969 281.464844 C 96.316406 281.605469 94.714844 281.699219 93.160156 281.792969 C 90.945312 281.886719 88.683594 281.886719 86.46875 282.125 C 85.90625 282.171875 85.386719 282.265625 84.820312 282.3125 C 84.726562 282.3125 84.679688 282.3125 84.585938 282.265625 C 84.492188 282.265625 84.445312 282.265625 84.347656 282.21875 C 84.113281 282.171875 83.925781 282.125 83.691406 282.078125 C 83.691406 282.078125 83.691406 282.078125 83.644531 282.078125 C 83.40625 282.03125 83.171875 281.980469 82.9375 281.933594 C 82.84375 281.839844 82.746094 281.746094 82.652344 281.652344 C 82.511719 281.511719 82.417969 281.371094 82.324219 281.226562 C 82.277344 281.179688 82.230469 281.085938 82.183594 281.039062 C 82.183594 280.992188 82.136719 280.945312 82.136719 280.898438 C 82.136719 280.851562 82.089844 280.804688 82.089844 280.804688 C 82.039062 280.710938 81.945312 280.613281 81.898438 280.519531 C 81.851562 280.425781 81.851562 280.378906 81.804688 280.285156 C 81.757812 280.191406 81.710938 280.097656 81.664062 280.003906 C 81.664062 279.957031 81.617188 279.90625 81.617188 279.859375 C 81.570312 279.71875 81.523438 279.578125 81.476562 279.484375 C 81.476562 279.390625 81.429688 279.296875 81.429688 279.199219 C 81.429688 279.152344 81.429688 279.105469 81.382812 279.058594 C 81.335938 278.871094 81.335938 278.683594 81.285156 278.542969 C 81.285156 278.542969 81.285156 278.492188 81.285156 278.492188 C 81.285156 278.445312 81.285156 278.445312 81.285156 278.398438 C 81.285156 277.410156 81.285156 276.46875 81.238281 275.476562 C 80.910156 267.980469 80.957031 260.441406 81.191406 252.945312 C 81.238281 251.765625 81.238281 250.585938 81.285156 249.410156 C 81.285156 249.222656 81.285156 249.03125 81.285156 248.84375 C 81.429688 243.894531 81.144531 239.273438 81.144531 234.371094 C 81.191406 228.808594 80.816406 223.292969 80.769531 217.730469 C 80.769531 216.128906 80.769531 214.527344 80.769531 212.925781 C 80.769531 210.332031 80.722656 207.785156 80.582031 205.191406 C 80.582031 204.863281 80.582031 204.484375 80.53125 204.15625 C 80.53125 203.214844 80.484375 202.316406 80.484375 201.421875 C 80.4375 198.265625 80.4375 195.199219 80.15625 192.042969 C 80.15625 191.898438 80.15625 191.710938 80.109375 191.570312 C 79.828125 187.894531 80.4375 183.980469 80.296875 180.351562 C 79.828125 175.589844 80.25 170.828125 80.296875 166.066406 C 80.296875 165.644531 80.296875 165.21875 80.296875 164.84375 C 80.296875 164.652344 80.25 164.464844 80.25 164.230469 C 79.777344 159.28125 79.542969 154.28125 79.308594 149.332031 C 79.355469 145.890625 79.355469 142.5 79.308594 139.105469 C 79.308594 135.992188 79.496094 132.882812 79.542969 129.769531 C 79.542969 129.722656 79.589844 129.675781 79.589844 129.582031 C 79.589844 129.300781 79.589844 128.96875 79.589844 128.6875 C 79.589844 128.640625 79.589844 128.59375 79.589844 128.59375 C 79.589844 128.449219 79.589844 128.261719 79.589844 128.121094 C 79.589844 127.886719 79.589844 127.648438 79.589844 127.414062 C 79.589844 127.320312 79.589844 127.179688 79.589844 127.085938 C 79.589844 126.847656 79.589844 126.613281 79.589844 126.378906 C 79.589844 126.378906 79.589844 126.328125 79.589844 126.328125 C 79.589844 126.328125 79.589844 126.28125 79.589844 126.28125 C 79.589844 126.28125 79.636719 126.28125 79.636719 126.28125 C 79.730469 126.234375 79.777344 126.234375 79.875 126.1875 C 79.96875 126.140625 80.109375 126.09375 80.203125 126.09375 C 80.390625 126.09375 80.53125 126.046875 80.722656 126 C 80.722656 126 80.769531 126 80.816406 125.953125 C 80.816406 125.953125 80.863281 125.953125 80.863281 125.953125 C 80.957031 125.953125 81.097656 125.953125 81.191406 125.90625 C 81.285156 125.90625 81.429688 125.90625 81.523438 125.859375 C 81.570312 125.859375 81.664062 125.859375 81.757812 125.859375 C 81.898438 125.859375 81.992188 125.859375 82.136719 125.8125 C 82.230469 125.8125 82.324219 125.765625 82.417969 125.765625 C 82.417969 125.765625 82.464844 125.765625 82.464844 125.765625 C 82.9375 125.765625 83.40625 125.765625 83.832031 125.765625 C 83.878906 125.765625 83.878906 125.765625 83.925781 125.765625 C 84.960938 125.765625 86 125.671875 87.035156 125.621094 C 87.460938 125.574219 87.882812 125.574219 88.355469 125.574219 C 89.675781 125.574219 91.039062 125.527344 92.359375 125.480469 C 94.761719 125.386719 97.164062 125.292969 99.570312 125.058594 C 99.851562 125.011719 100.085938 125.011719 100.371094 125.011719 C 102.960938 124.820312 105.554688 124.914062 108.144531 124.820312 C 109.933594 124.679688 111.773438 124.585938 113.609375 124.445312 C 115.871094 124.304688 118.179688 124.113281 120.441406 123.972656 C 123.882812 123.832031 127.367188 123.644531 130.855469 123.453125 C 138.441406 123.03125 146.027344 122.699219 153.613281 123.078125 C 154.132812 123.125 154.652344 123.125 155.167969 123.171875 C 155.453125 123.171875 155.78125 123.171875 156.066406 123.171875 C 158.136719 123.21875 160.210938 123.21875 162.285156 123.171875 C 162.992188 123.171875 163.699219 123.171875 164.40625 123.171875 C 165.960938 123.171875 167.515625 123.171875 169.023438 123.21875 C 173.546875 123.3125 178.070312 123.546875 182.59375 123.691406 C 185.890625 123.785156 189.1875 123.738281 192.488281 123.832031 C 193.808594 123.878906 195.171875 123.878906 196.492188 123.972656 C 199.367188 124.113281 202.242188 124.304688 205.164062 124.398438 C 206.953125 124.492188 208.742188 124.539062 210.582031 124.539062 C 214.019531 124.492188 217.460938 124.539062 220.898438 124.585938 C 220.945312 124.585938 220.996094 124.585938 221.042969 124.585938 C 224.386719 124.632812 227.683594 124.679688 231.03125 124.632812 C 237.628906 124.445312 244.222656 124.398438 250.820312 124.351562 C 252.5625 124.304688 254.355469 124.304688 256.097656 124.253906 C 259.585938 124.113281 263.023438 123.972656 266.511719 123.785156 C 266.933594 123.738281 267.359375 123.738281 267.785156 123.738281 C 271.554688 123.359375 275.558594 123.125 279.28125 123.125 C 283.003906 122.984375 286.773438 123.03125 290.496094 123.171875 C 290.636719 123.171875 290.730469 123.171875 290.871094 123.21875 C 291.152344 123.21875 291.484375 123.265625 291.8125 123.265625 C 291.859375 123.265625 291.957031 123.265625 292.003906 123.265625 C 292.332031 123.265625 292.660156 123.3125 292.992188 123.3125 C 293.320312 123.3125 293.699219 123.359375 294.027344 123.359375 C 294.027344 123.359375 294.074219 123.359375 294.074219 123.359375 C 294.074219 123.359375 294.027344 123.359375 294.027344 123.359375 C 294.121094 123.359375 294.167969 123.359375 294.265625 123.359375 C 294.265625 123.40625 294.265625 123.5 294.265625 123.546875 C 294.265625 123.972656 294.3125 124.398438 294.3125 124.867188 C 294.359375 125.339844 294.359375 125.8125 294.453125 126.28125 C 294.453125 126.425781 294.5 126.566406 294.5 126.707031 C 294.5 126.894531 294.5 127.132812 294.546875 127.320312 C 294.6875 131.328125 294.921875 135.285156 295.394531 139.246094 C 295.347656 141.226562 295.535156 143.207031 295.628906 145.183594 C 295.675781 145.84375 295.675781 146.503906 295.675781 147.164062 C 295.675781 148.957031 295.726562 150.699219 295.773438 152.492188 C 295.914062 156.40625 296.148438 160.316406 296.289062 164.183594 C 296.289062 168.707031 296.949219 173.1875 296.902344 177.710938 C 296.761719 184.359375 296.761719 191.003906 296.480469 197.652344 C 296.480469 201.421875 296.429688 205.144531 296.429688 208.917969 C 296.382812 215.09375 296.195312 221.21875 295.726562 227.394531 C 295.628906 229.421875 295.535156 231.449219 295.488281 233.476562 C 295.347656 237.152344 295.253906 240.828125 295.019531 244.460938 C 294.78125 246.722656 294.5 248.984375 294.3125 251.292969 C 294.265625 251.90625 294.21875 252.519531 294.167969 253.085938 C 293.980469 254.925781 293.886719 256.761719 293.746094 258.601562 C 293.511719 261.617188 293.273438 264.683594 292.804688 267.605469 C 292.566406 270.199219 292.378906 272.789062 292.238281 275.429688 C 292.378906 276.46875 292.378906 277.550781 292.285156 278.589844 C 292.804688 279.152344 292.660156 279.859375 292.191406 280.378906 C 292.191406 280.804688 292.144531 281.226562 292.144531 281.652344 C 292.097656 282.265625 292.050781 282.925781 291.957031 283.539062 C 291.8125 284.574219 291.53125 285.566406 291.058594 286.507812 C 290.777344 287.027344 290.496094 287.589844 290.210938 288.109375 C 291.390625 288.0625 292.613281 287.96875 293.792969 287.828125 C 294.828125 287.6875 295.914062 287.589844 296.949219 287.496094 C 297.375 287.167969 297.84375 287.167969 298.363281 287.167969 C 298.503906 287.167969 298.644531 287.167969 298.789062 287.167969 C 298.976562 287.167969 299.164062 287.167969 299.304688 287.167969 C 299.304688 287.167969 299.304688 287.167969 299.351562 287.167969 C 299.398438 283.773438 299.730469 280.332031 299.871094 276.9375 C 299.871094 276.5625 299.917969 276.183594 299.917969 275.808594 C 300.105469 271.566406 300.011719 267.320312 300.296875 263.078125 C 300.296875 262.703125 300.34375 262.324219 300.390625 261.902344 C 300.578125 259.355469 300.8125 256.761719 300.90625 254.21875 C 300.90625 253.605469 300.953125 252.992188 301.003906 252.332031 C 301.097656 250.917969 301.191406 249.550781 301.332031 248.136719 C 301.332031 248.136719 301.332031 248.136719 301.332031 248.089844 C 301.519531 246.0625 301.707031 244.035156 301.851562 242.007812 C 302.085938 236.539062 302.226562 231.121094 302.132812 225.652344 C 301.945312 212.265625 302.367188 198.921875 302.746094 185.535156 C 302.746094 182.332031 302.792969 179.171875 302.792969 175.96875 C 302.792969 172.289062 302.839844 168.613281 302.839844 164.890625 C 302.460938 160.695312 302.367188 156.40625 302.367188 152.113281 Z M 90.144531 109.03125 C 90.523438 109.03125 90.851562 109.40625 90.851562 109.785156 C 90.851562 110.207031 90.476562 110.492188 90.097656 110.492188 C 89.722656 110.492188 89.390625 110.113281 89.390625 109.738281 C 89.4375 109.3125 89.769531 109.03125 90.144531 109.03125 Z M 86.09375 120.484375 C 85.246094 120.53125 84.347656 120.625 83.5 120.625 C 82.511719 120.765625 82.089844 119.496094 83.078125 119.164062 C 83.691406 119.117188 84.347656 119.164062 84.960938 119.070312 C 85.667969 119.023438 86.941406 118.695312 86.988281 119.777344 C 86.988281 120.25 86.515625 120.578125 86.09375 120.484375 Z M 87.742188 109.878906 C 86.800781 109.832031 86.046875 109.878906 85.199219 109.878906 C 85.152344 109.878906 85.101562 109.878906 85.054688 109.878906 C 85.101562 110.160156 85.101562 110.398438 85.152344 110.679688 C 85.90625 110.679688 86.5625 110.632812 87.316406 110.679688 C 87.695312 110.679688 88.023438 111.058594 88.023438 111.433594 C 87.976562 112.328125 86.941406 112.09375 86.328125 112.140625 C 86 112.140625 85.621094 112.140625 85.292969 112.140625 C 85.386719 113.226562 85.527344 114.355469 85.667969 115.441406 C 85.761719 116.382812 84.300781 116.523438 84.207031 115.582031 C 84.066406 114.355469 83.972656 113.132812 83.832031 111.953125 C 83.691406 111.8125 83.597656 111.621094 83.597656 111.386719 C 83.597656 111.246094 83.644531 111.105469 83.738281 111.011719 C 83.691406 110.632812 83.644531 110.207031 83.597656 109.832031 C 83.597656 109.59375 83.644531 109.40625 83.785156 109.265625 C 83.597656 108.511719 84.679688 108.085938 85.246094 108.417969 C 86.09375 108.511719 88.542969 107.898438 88.542969 109.171875 C 88.496094 109.546875 88.117188 109.878906 87.742188 109.878906 Z M 90.664062 116.949219 C 89.390625 116.902344 89.25 115.394531 89.15625 114.402344 C 89.15625 113.601562 88.636719 111.574219 89.863281 111.527344 C 90.476562 111.527344 90.664062 112.140625 90.570312 112.660156 C 90.523438 113.601562 90.617188 114.5 90.804688 115.347656 C 92.125 115.300781 91.9375 116.996094 90.664062 116.949219 Z M 94.199219 116.054688 C 94.148438 116.429688 93.726562 116.714844 93.347656 116.667969 C 91.605469 116.195312 91.558594 114.074219 91.464844 112.566406 C 91.417969 111.386719 91.324219 110.253906 91.371094 109.078125 C 91.371094 108.792969 91.464844 108.511719 91.652344 108.324219 C 92.265625 107.472656 93.539062 108.417969 92.832031 109.21875 C 92.785156 110.300781 92.878906 111.246094 92.925781 112.28125 C 93.019531 113.226562 92.878906 114.261719 93.445312 115.0625 C 93.492188 115.109375 93.539062 115.207031 93.585938 115.207031 C 94.007812 115.300781 94.292969 115.675781 94.199219 116.054688 Z M 97.214844 115.207031 C 98.15625 115.300781 98.109375 116.714844 97.164062 116.667969 C 95.894531 116.667969 94.527344 115.863281 94.199219 114.546875 C 94.054688 113.367188 94.148438 111.90625 95.09375 111.058594 C 95.894531 110.300781 97.164062 110.445312 97.96875 111.105469 C 99.425781 112.519531 97.308594 114.167969 96.035156 114.78125 C 96.316406 115.15625 96.835938 115.207031 97.214844 115.207031 Z M 111.679688 120.109375 C 111.394531 120.816406 110.5 120.816406 109.886719 120.816406 C 108.992188 120.765625 108.144531 120.910156 107.25 120.910156 C 105.789062 120.765625 106.542969 118.882812 107.71875 119.449219 C 108.617188 119.351562 109.511719 119.402344 110.453125 119.351562 C 110.546875 119.351562 110.59375 119.304688 110.640625 119.257812 C 111.207031 118.882812 111.914062 119.496094 111.679688 120.109375 Z M 109.933594 117.042969 C 108.097656 117.136719 107.015625 115.347656 107.0625 113.695312 C 106.917969 112 106.871094 110.351562 106.871094 108.652344 C 106.496094 108.085938 107.109375 107.191406 107.769531 107.425781 C 107.816406 107.425781 107.863281 107.378906 107.910156 107.378906 C 108.851562 107.285156 109.792969 107.378906 110.734375 107.425781 C 111.113281 107.425781 111.441406 107.804688 111.441406 108.179688 C 111.441406 108.558594 111.066406 108.886719 110.6875 108.886719 C 109.933594 108.839844 109.179688 108.839844 108.378906 108.839844 C 108.378906 108.984375 108.378906 109.171875 108.378906 109.3125 C 108.378906 109.738281 108.378906 110.160156 108.378906 110.585938 C 109.417969 110.539062 111.066406 109.925781 111.253906 111.058594 C 111.300781 111.433594 110.972656 111.859375 110.59375 111.859375 C 109.886719 111.90625 109.179688 112 108.425781 112.046875 C 108.425781 112.234375 108.425781 112.375 108.472656 112.566406 C 108.523438 114.074219 108.570312 116.242188 110.6875 115.441406 C 110.785156 115.347656 110.878906 115.300781 110.972656 115.207031 C 111.253906 114.921875 111.773438 114.96875 112.007812 115.253906 C 112.808594 116.335938 110.832031 117.089844 109.933594 117.042969 Z M 116.296875 116.054688 C 115.496094 116.667969 114.363281 116.523438 113.46875 116.195312 C 112.101562 115.628906 111.820312 113.695312 112.808594 112.660156 C 113.46875 112 114.410156 112.28125 115.210938 112.140625 C 114.742188 111.621094 113.847656 112 113.703125 111.105469 C 113.65625 110.726562 113.988281 110.300781 114.363281 110.300781 C 115.964844 110.253906 117.191406 111.8125 117.570312 113.226562 C 117.851562 114.355469 117.097656 115.394531 116.296875 116.054688 Z M 119.453125 112 C 119.453125 112.046875 119.40625 112.046875 119.453125 112 C 119.453125 112.894531 119.546875 113.789062 119.832031 114.59375 C 120.207031 114.308594 120.726562 114.449219 120.960938 114.828125 C 121.386719 115.769531 120.019531 116.289062 119.3125 115.960938 C 117.710938 115.109375 118.179688 112.1875 117.992188 110.632812 C 117.992188 109.925781 117.945312 109.171875 118.085938 108.464844 C 118.273438 107.804688 119.265625 107.804688 119.5 108.417969 C 119.546875 109.078125 119.5 109.785156 119.5 110.492188 C 120.300781 110.351562 121.289062 110.300781 121.386719 111.105469 C 121.339844 112.140625 120.113281 111.90625 119.453125 112 Z M 137.40625 108.652344 C 137.828125 108.652344 138.113281 109.03125 138.113281 109.40625 C 138.113281 109.832031 137.734375 110.113281 137.359375 110.113281 C 136.933594 110.113281 136.652344 109.738281 136.652344 109.359375 C 136.652344 108.9375 136.980469 108.652344 137.40625 108.652344 Z M 134.296875 119.589844 C 133.351562 119.636719 132.410156 119.871094 131.421875 119.777344 C 131.042969 119.730469 130.808594 119.351562 130.808594 119.023438 C 130.808594 118.503906 131.328125 118.222656 131.796875 118.316406 C 132.597656 118.269531 133.351562 118.175781 134.152344 118.128906 C 135.097656 118.035156 135.238281 119.496094 134.296875 119.589844 Z M 134.957031 108.039062 C 134.53125 109.738281 134.390625 111.480469 134.203125 113.226562 C 134.105469 114.121094 134.011719 116.195312 132.597656 115.488281 C 131.890625 114.96875 131.890625 113.933594 131.46875 113.179688 C 130.621094 111.433594 129.300781 109.878906 128.828125 107.992188 C 128.875 106.671875 130.527344 107.144531 130.433594 108.230469 C 131.089844 109.691406 132.035156 111.011719 132.742188 112.472656 C 132.929688 110.539062 133.210938 108.605469 133.683594 106.671875 C 133.777344 106.296875 134.105469 106.011719 134.53125 106.058594 C 135.566406 106.296875 135.144531 107.378906 134.957031 108.039062 Z M 137.640625 115.488281 C 136.039062 115.015625 135.992188 112.140625 136.085938 110.773438 C 136.226562 110.253906 136.839844 110.113281 137.265625 110.445312 C 137.59375 110.820312 137.921875 111.527344 137.546875 111.953125 C 137.640625 112.660156 137.59375 113.554688 138.066406 114.121094 C 139.007812 114.355469 138.535156 115.769531 137.640625 115.488281 Z M 140.703125 113.226562 C 140.9375 113.648438 141.503906 113.742188 141.929688 113.839844 C 142.871094 114.027344 142.636719 115.441406 141.691406 115.300781 C 140.796875 115.15625 139.761719 114.78125 139.382812 113.933594 C 138.726562 112.707031 138.628906 110.773438 139.808594 109.785156 C 140.703125 109.21875 141.929688 109.359375 142.777344 109.878906 C 144.613281 111.292969 142.210938 113.035156 140.703125 113.226562 Z M 150.363281 112.847656 C 149.984375 114.6875 148.335938 114.5 147.628906 112.988281 C 147.441406 114.167969 146.359375 115.722656 145.085938 114.96875 C 144.191406 114.355469 144.050781 113.179688 143.71875 112.1875 C 143.625 111.765625 143.390625 111.339844 143.578125 110.914062 C 144.050781 109.925781 145.605469 110.914062 145.132812 111.765625 C 145.320312 112.375 145.414062 113.035156 145.792969 113.601562 C 146.546875 112.566406 146.3125 111.246094 146.59375 110.113281 C 146.78125 109.738281 147.253906 109.5 147.675781 109.738281 C 148.476562 110.351562 148.429688 111.574219 148.996094 112.375 C 149.183594 111.621094 149.28125 110.914062 149.28125 110.160156 C 149.28125 109.785156 149.65625 109.453125 150.035156 109.453125 C 151.304688 109.546875 150.457031 112.046875 150.363281 112.847656 Z M 158.46875 106.25 C 158.890625 105.636719 159.929688 106.105469 159.785156 106.8125 C 159.597656 107.757812 159.738281 108.699219 159.882812 109.644531 C 160.023438 109.644531 160.210938 109.59375 160.351562 109.59375 C 160.636719 109.644531 161.011719 109.546875 161.4375 109.5 C 161.390625 108.230469 161.390625 107.003906 161.578125 105.777344 C 162.09375 104.597656 163.601562 105.683594 162.945312 106.625 C 162.707031 108.984375 163.132812 111.339844 163.039062 113.742188 C 163.226562 114.5 162.144531 115.015625 161.71875 114.355469 C 161.390625 113.742188 161.671875 112.800781 161.578125 112.1875 C 161.578125 111.8125 161.53125 111.386719 161.53125 111.011719 C 161.058594 111.058594 160.585938 111.058594 160.070312 111.105469 C 160.210938 112 160.351562 112.847656 160.304688 113.742188 C 160.398438 114.121094 160.210938 114.5 159.832031 114.640625 C 159.457031 114.78125 159.03125 114.59375 158.890625 114.214844 C 158.84375 113.226562 158.703125 112.1875 158.5625 111.199219 C 158.5625 111.199219 158.515625 111.199219 158.515625 111.199219 C 158.089844 110.960938 158.089844 110.351562 158.421875 110.019531 C 158.328125 109.40625 158.277344 108.792969 158.230469 108.179688 C 158.230469 107.617188 158.042969 106.8125 158.46875 106.25 Z M 164.167969 118.175781 C 162.519531 118.789062 160.730469 118.597656 159.03125 118.882812 C 158.46875 119.023438 157.714844 119.351562 157.429688 118.597656 C 157.148438 117.890625 158.230469 117.183594 158.84375 117.421875 C 160.445312 117.136719 162.144531 117.328125 163.699219 116.808594 C 164.546875 116.476562 165.0625 117.84375 164.167969 118.175781 Z M 168.878906 110.539062 C 168.363281 111.859375 166.761719 112.1875 165.582031 112.707031 C 165.816406 112.988281 166.148438 113.226562 166.523438 113.273438 C 167.46875 113.460938 167.230469 114.875 166.289062 114.734375 C 163.039062 114.027344 162.945312 109.878906 165.960938 108.699219 C 167.089844 108.230469 169.398438 108.984375 168.878906 110.539062 Z M 170.8125 114.261719 C 169.871094 114.074219 170.011719 113.035156 169.917969 112.28125 C 169.632812 111.152344 169.730469 109.972656 169.585938 108.839844 C 169.492188 107.898438 169.351562 107.003906 169.492188 106.058594 C 169.539062 105.542969 169.824219 104.976562 170.4375 104.929688 C 171.140625 104.835938 171.519531 105.777344 170.953125 106.25 C 170.8125 107.332031 171.046875 108.277344 171.09375 109.359375 C 171.09375 110.492188 171.285156 111.621094 171.425781 112.707031 C 171.707031 112.707031 171.992188 112.894531 172.132812 113.179688 C 172.460938 113.933594 171.472656 114.402344 170.8125 114.261719 Z M 175.949219 113.601562 C 175.617188 113.980469 174.863281 114.5 174.207031 114.6875 C 174.347656 115.960938 174.535156 117.183594 174.722656 118.457031 C 174.816406 119.402344 173.355469 119.589844 173.261719 118.597656 C 172.839844 116.195312 172.554688 113.789062 172.601562 111.339844 C 172.554688 111.292969 172.554688 111.246094 172.507812 111.152344 C 171.378906 109.21875 175.242188 108.417969 176.136719 109.644531 C 176.9375 110.820312 177.03125 112.613281 175.949219 113.601562 Z M 95.65625 113.132812 C 95.707031 113.179688 95.753906 113.226562 95.753906 113.226562 C 96.175781 112.941406 96.695312 112.660156 96.929688 112.140625 C 96.128906 111.8125 95.707031 112.375 95.65625 113.132812 Z M 140.375 111.765625 C 140.890625 111.621094 141.503906 111.433594 141.882812 111.011719 C 141.128906 110.679688 140.375 110.773438 140.375 111.765625 Z M 165.300781 111.152344 C 165.347656 111.152344 165.441406 111.152344 165.488281 111.199219 C 166.148438 110.914062 166.855469 110.679688 167.371094 110.253906 C 166.570312 109.691406 165.722656 110.398438 165.300781 111.152344 Z M 113.941406 113.695312 C 113.703125 113.789062 113.75 114.074219 113.703125 114.261719 C 113.703125 114.921875 114.503906 115.015625 115.023438 115.015625 C 115.070312 115.015625 115.164062 115.015625 115.210938 114.96875 C 115.777344 114.640625 116.390625 113.933594 116.011719 113.273438 C 115.589844 113.980469 114.601562 113.507812 113.941406 113.695312 Z M 276.5 90.550781 C 276.832031 90.691406 277.207031 90.691406 277.679688 90.644531 C 278.433594 90.550781 279.375 90.457031 279.941406 89.890625 C 280.835938 88.902344 281.210938 87.910156 280.128906 86.875 C 279.75 86.496094 279.089844 86.121094 279.421875 85.507812 C 279.234375 85.507812 279.042969 85.507812 278.855469 85.507812 C 277.726562 85.507812 276.546875 85.742188 275.933594 86.828125 C 274.898438 88.148438 275.085938 90.03125 276.5 90.550781 Z M 265.285156 90.457031 C 266.652344 90.457031 267.640625 88.855469 267.640625 87.628906 C 267.3125 86.96875 266.746094 86.496094 266.324219 85.933594 C 266.226562 85.886719 266.085938 85.789062 265.992188 85.695312 C 265.898438 85.601562 265.804688 85.507812 265.757812 85.367188 C 265.757812 85.320312 265.710938 85.273438 265.710938 85.226562 C 264.957031 84.941406 264.15625 85.226562 263.449219 85.648438 C 263.210938 85.835938 262.976562 86.027344 262.742188 86.214844 C 262.554688 86.640625 262.410156 87.109375 262.316406 87.582031 C 262.316406 87.628906 262.316406 87.675781 262.269531 87.722656 C 262.175781 88.242188 262.082031 88.761719 262.082031 89.277344 C 262.082031 89.324219 262.128906 89.324219 262.128906 89.375 C 262.789062 90.316406 264.203125 90.457031 265.285156 90.457031 Z M 265.285156 90.457031 " fill-opacity="1" fill-rule="nonzero"/></svg>