<svg xmlns="http://www.w3.org/2000/svg" xmlns:xlink="http://www.w3.org/1999/xlink" width="500" zoomAndPan="magnify" viewBox="0 0 375 374.999991" height="500" preserveAspectRatio="xMidYMid meet" version="1.0"><defs><clipPath id="692dbbbc49"><path d="M 62.082031 115.441406 L 312.582031 115.441406 L 312.582031 259.441406 L 62.082031 259.441406 Z M 62.082031 115.441406 " clip-rule="nonzero"/></clipPath></defs><rect x="-37.5" width="450" fill="#ffffff" y="-37.499999" height="449.999989" fill-opacity="1"/><rect x="-37.5" width="450" fill="#ffffff" y="-37.499999" height="449.999989" fill-opacity="1"/><rect x="-37.5" width="450" fill="#535450" y="-37.499999" height="449.999989" fill-opacity="1"/><g clip-path="url(#692dbbbc49)"><path fill="#1e1e1e" d="M 312.378906 165.25 C 311.980469 173.074219 312.582031 180.945312 311.929688 188.769531 C 311.777344 191.527344 312.230469 194.285156 312.03125 196.992188 C 312.128906 200.605469 312.230469 204.214844 311.980469 207.824219 C 311.980469 210.53125 311.777344 213.191406 311.578125 215.898438 C 311.527344 217.855469 311.679688 219.757812 311.527344 221.714844 C 311.429688 224.070312 312.128906 226.378906 311.828125 228.683594 C 311.730469 230.390625 311.378906 232.09375 311.277344 233.800781 C 311.277344 236.105469 311.128906 238.363281 310.925781 240.621094 C 310.375 242.425781 309.875 249.644531 307.769531 250.546875 C 307.570312 250.75 307.417969 250.898438 307.269531 251.050781 C 306.464844 251.601562 305.464844 251.800781 304.5625 252.203125 C 303.109375 252.703125 301.703125 253.40625 300.152344 253.355469 C 298.496094 253.355469 296.84375 253.304688 295.140625 253.257812 C 293.484375 253.207031 291.832031 253.15625 290.175781 253.15625 C 288.324219 253.003906 286.46875 253.15625 284.613281 253.304688 C 282.660156 253.457031 280.652344 253.605469 278.699219 253.457031 C 274.539062 253.457031 270.429688 253.304688 266.320312 253.507812 C 264.464844 253.457031 262.660156 253.207031 260.808594 253.257812 C 258.550781 253.105469 256.347656 253.457031 254.140625 253.605469 C 253.136719 253.65625 252.1875 253.605469 251.234375 253.507812 C 250.332031 253.457031 249.429688 253.355469 248.527344 253.40625 C 246.671875 253.507812 244.820312 253.65625 242.914062 253.65625 C 232.289062 253.304688 221.613281 253.957031 211.039062 254.808594 C 205.222656 254.859375 199.460938 255.160156 193.695312 255.5625 C 188.382812 255.761719 183.371094 256.164062 178.109375 256.566406 C 172.496094 256.617188 166.78125 256.765625 161.167969 256.867188 C 157.359375 257.117188 153.550781 257.167969 149.691406 257.167969 C 144.527344 257.367188 139.367188 257.820312 134.253906 257.96875 C 132.199219 257.96875 130.144531 257.96875 128.039062 258.019531 C 125.03125 258.070312 122.023438 258.121094 119.015625 258.019531 C 116.609375 258.320312 114.15625 258.621094 111.75 258.570312 C 109.496094 258.773438 107.289062 259.023438 105.035156 259.074219 C 102.878906 259.222656 100.722656 259.171875 98.566406 259.121094 C 97.015625 259.324219 95.511719 259.375 93.957031 259.375 C 93.304688 259.375 92.703125 259.375 92.050781 259.324219 C 88.59375 258.871094 85.085938 259.324219 81.628906 258.773438 C 78.71875 258.570312 75.714844 258.570312 72.90625 257.667969 C 70.148438 257.269531 67.042969 256.566406 65.640625 253.957031 C 65.1875 252.957031 65.238281 251.75 64.789062 250.699219 C 64.4375 249.445312 64.585938 248.140625 64.386719 246.886719 C 64.386719 246.835938 64.386719 246.835938 64.386719 246.789062 C 64.085938 246.488281 63.984375 246.035156 63.984375 245.632812 C 63.785156 243.878906 63.835938 242.125 63.835938 240.367188 C 63.683594 237.863281 63.332031 235.40625 63.183594 232.898438 C 63.132812 231.140625 63.234375 229.386719 63.132812 227.683594 C 62.683594 224.023438 62.480469 220.410156 62.582031 216.699219 C 62.332031 213.542969 62.632812 210.433594 62.53125 207.273438 C 62.082031 204.265625 62.582031 201.15625 62.582031 198.195312 C 62.332031 195.640625 62.53125 193.03125 62.632812 190.476562 C 62.683594 187.816406 62.53125 185.160156 62.53125 182.550781 C 62.730469 179.695312 62.480469 176.835938 62.429688 173.925781 C 62.632812 171.320312 62.683594 168.710938 62.582031 166.105469 C 62.582031 164.25 62.933594 162.644531 62.882812 160.890625 C 62.78125 159.734375 62.683594 158.53125 62.683594 157.378906 C 62.730469 154.972656 62.984375 152.613281 62.832031 150.257812 C 62.882812 148.253906 62.832031 146.296875 62.78125 144.339844 C 62.832031 143.289062 63.03125 142.285156 63.03125 141.230469 C 62.582031 138.976562 63.433594 136.96875 63.433594 134.761719 C 63.632812 133.210938 63.382812 132.003906 63.683594 130.402344 C 64.335938 127.441406 65.1875 122.980469 68.945312 122.878906 C 69.046875 122.878906 69.148438 122.878906 69.246094 122.878906 C 70.101562 122.578125 71.003906 122.378906 71.902344 122.226562 C 73.40625 122.226562 74.710938 122.226562 76.164062 121.875 C 77.617188 121.625 79.171875 121.476562 80.675781 121.425781 C 80.625 121.425781 80.625 121.375 80.574219 121.375 C 82.730469 120.972656 84.984375 120.671875 87.140625 120.472656 C 91.5 119.972656 95.863281 119.621094 100.222656 119.570312 C 104.433594 119.671875 108.640625 119.519531 112.851562 118.867188 C 118.464844 118.164062 124.128906 118.265625 129.742188 117.914062 C 133.300781 117.613281 136.859375 117.261719 140.417969 117.113281 C 148.886719 116.710938 157.410156 117.113281 165.878906 116.660156 C 183.121094 115.910156 200.410156 115.960938 217.652344 115.707031 C 232.6875 115.609375 247.726562 115.507812 262.710938 115.660156 C 265.21875 115.707031 267.722656 115.707031 270.230469 115.707031 C 272.785156 115.707031 275.390625 115.707031 277.949219 115.757812 C 280.453125 115.859375 282.960938 116.160156 285.464844 116.160156 C 287.769531 116.210938 290.027344 116.460938 292.332031 116.359375 C 293.234375 116.359375 294.085938 116.460938 294.9375 116.5625 C 295.839844 116.660156 296.742188 116.8125 297.695312 116.761719 C 302.355469 116.761719 308.070312 117.464844 310.425781 122.027344 C 311.429688 123.78125 311.527344 125.886719 311.679688 127.792969 C 311.730469 127.84375 311.730469 127.84375 311.777344 127.894531 C 312.078125 128.445312 311.929688 129.148438 311.929688 129.75 C 311.878906 130.800781 311.730469 131.90625 311.679688 132.957031 C 311.476562 134.863281 312.078125 136.71875 312.230469 138.574219 C 311.878906 143.488281 312.480469 148.453125 312.230469 153.367188 C 312.28125 155.421875 312.53125 157.179688 312.53125 159.183594 C 312.328125 161.289062 312.28125 163.246094 312.378906 165.25 Z M 312.378906 165.25 " fill-opacity="1" fill-rule="nonzero"/></g><path fill="#e4a222" d="M 308.871094 127.992188 C 308.871094 127.644531 308.820312 127.242188 308.820312 126.992188 C 308.621094 119.769531 301.90625 119.519531 296.242188 119.417969 C 295.238281 119.519531 294.285156 119.21875 293.285156 119.066406 C 292.484375 119.019531 291.628906 119.019531 290.828125 119.019531 C 289.574219 119.019531 288.324219 119.019531 287.121094 118.867188 C 284.613281 118.816406 282.15625 118.71875 279.703125 118.515625 C 276.59375 118.367188 273.539062 118.367188 270.429688 118.367188 C 268.523438 118.367188 266.570312 118.367188 264.664062 118.316406 C 249.628906 118.164062 234.59375 118.214844 219.609375 118.316406 C 209.535156 118.566406 199.511719 118.367188 189.4375 118.617188 C 178.761719 118.765625 168.085938 119.269531 157.460938 119.46875 C 155.101562 119.519531 152.746094 119.519531 150.390625 119.519531 C 147.785156 119.519531 145.179688 119.519531 142.574219 119.570312 C 138.261719 119.769531 134.003906 120.121094 129.742188 120.472656 C 125.53125 120.722656 121.273438 120.722656 117.0625 121.023438 C 111.699219 121.476562 106.335938 122.378906 100.921875 122.128906 C 99.46875 122.128906 98.015625 122.175781 96.5625 122.226562 C 94.40625 122.328125 92.304688 122.476562 90.148438 122.679688 C 90.097656 122.730469 90.046875 122.777344 90.046875 122.878906 C 89.695312 122.929688 89.394531 122.929688 89.046875 122.980469 C 88.042969 123.128906 87.089844 123.332031 86.089844 123.53125 C 84.734375 123.683594 83.382812 123.882812 82.027344 123.933594 C 79.722656 123.882812 77.46875 124.132812 75.160156 124.585938 C 74.109375 124.785156 72.90625 124.683594 71.902344 124.734375 C 70.75 124.835938 69.597656 125.535156 68.546875 125.585938 C 68.445312 125.585938 68.34375 125.535156 68.296875 125.535156 C 67.445312 126.1875 67.09375 127.191406 66.84375 128.195312 C 66.792969 128.34375 66.742188 128.546875 66.691406 128.695312 C 66.089844 130.199219 65.789062 131.65625 65.890625 133.109375 C 66.089844 133.960938 65.738281 134.863281 65.789062 135.765625 C 65.839844 136.917969 65.386719 138.023438 65.289062 139.175781 C 65.289062 139.726562 65.339844 140.28125 65.386719 140.832031 C 65.6875 140.832031 65.988281 140.832031 66.289062 140.832031 C 68.246094 140.628906 70.199219 140.582031 72.15625 140.628906 C 75.511719 140.582031 78.769531 139.527344 82.128906 139.527344 C 83.382812 139.425781 84.632812 139.277344 85.835938 139.328125 C 87.691406 139.425781 89.496094 140.027344 91.351562 139.980469 C 93.90625 139.777344 96.464844 139.476562 99.070312 139.226562 C 101.675781 138.726562 104.230469 139.027344 106.835938 139.125 C 110.898438 138.875 114.957031 138.375 119.015625 138.125 C 121.625 138.023438 124.28125 138.125 126.886719 137.972656 C 128.339844 137.921875 129.792969 138.023438 131.246094 138.023438 C 133.300781 137.921875 135.355469 137.621094 137.410156 137.523438 C 140.46875 137.421875 143.425781 136.769531 146.484375 136.769531 C 148.636719 136.769531 150.742188 136.519531 152.898438 136.519531 C 154.652344 136.570312 156.457031 136.667969 158.210938 136.46875 C 162.421875 136.367188 166.53125 135.515625 170.742188 135.414062 C 172.746094 135.367188 174.699219 135.214844 176.707031 135.066406 C 178.207031 134.964844 179.710938 135.066406 181.214844 135.164062 C 182.621094 135.265625 184.023438 135.316406 185.425781 135.265625 C 187.480469 135.316406 189.585938 135.214844 191.691406 135.113281 C 193.394531 135.015625 195.050781 134.964844 196.652344 134.964844 C 201.765625 134.765625 206.878906 134.5625 211.941406 134.363281 C 216.652344 134.3125 221.3125 134.011719 226.023438 134.011719 C 228.378906 134.160156 230.683594 134.414062 233.039062 134.3125 C 235.945312 134.414062 238.855469 134.460938 241.761719 134.3125 C 243.414062 134.363281 245.070312 134.3125 246.722656 134.261719 C 248.226562 134.210938 249.78125 134.160156 251.332031 134.210938 C 256.996094 134.3125 262.660156 134.011719 268.273438 133.960938 C 271.632812 133.8125 274.941406 133.8125 278.296875 134.011719 C 283.460938 133.8125 288.625 134.0625 293.785156 134.160156 C 296.292969 133.910156 298.796875 133.960938 301.355469 134.261719 C 303.257812 134.113281 305.164062 134.113281 307.015625 134.460938 C 307.316406 134.460938 307.570312 134.511719 307.871094 134.5625 C 308.019531 134.511719 308.171875 134.460938 308.320312 134.460938 C 308.371094 134.460938 308.421875 134.460938 308.472656 134.460938 C 308.570312 134.460938 308.671875 134.460938 308.722656 134.460938 C 308.722656 134.011719 308.722656 133.609375 308.773438 133.160156 C 308.820312 132.054688 308.921875 130.953125 309.023438 129.847656 C 308.519531 129.347656 308.519531 128.546875 308.871094 127.992188 Z M 274.539062 128.644531 C 273.789062 130.351562 271.78125 131.65625 269.628906 131.65625 C 268.824219 131.65625 268.023438 131.503906 267.222656 131.101562 C 265.667969 130.25 264.066406 128.847656 264.316406 126.941406 C 264.414062 125.738281 264.917969 124.632812 265.71875 123.730469 C 266.722656 122.578125 268.125 121.875 269.726562 121.976562 C 271.03125 122.078125 273.488281 122.578125 273.386719 124.234375 C 274.941406 125.6875 275.140625 127.292969 274.539062 128.644531 Z M 290.277344 127.542969 C 289.675781 129.597656 287.46875 131.003906 285.066406 131.003906 C 284.664062 131.003906 284.210938 130.953125 283.8125 130.851562 C 280.953125 130.652344 277.898438 127.742188 278.898438 124.785156 C 279.300781 123.683594 280.152344 122.679688 281.207031 121.976562 C 282.558594 121.074219 284.261719 120.773438 285.714844 121.425781 C 287.167969 120.523438 289.324219 123.230469 289.925781 124.332031 C 290.476562 125.535156 290.527344 126.589844 290.277344 127.542969 Z M 303.257812 128.945312 C 303.15625 129.199219 303.058594 129.398438 302.90625 129.597656 C 302.15625 130.800781 300.703125 131.355469 299.296875 131.355469 C 299.046875 131.355469 298.746094 131.355469 298.496094 131.304688 C 297.996094 131.253906 297.496094 131.054688 297.042969 130.851562 C 295.039062 129.847656 293.636719 127.390625 294.585938 125.234375 C 295.488281 122.980469 298.398438 121.425781 300.5 122.476562 C 301.003906 122.730469 301.453125 123.128906 301.804688 123.632812 C 301.957031 123.683594 302.054688 123.730469 302.207031 123.78125 C 303.859375 124.785156 303.859375 127.242188 303.257812 128.945312 Z M 220.960938 217.703125 C 220.859375 217.203125 220.761719 216.699219 220.609375 216.148438 C 220.558594 215.898438 220.460938 215.597656 220.410156 215.347656 C 220.257812 214.792969 220.109375 214.242188 219.957031 213.691406 C 219.859375 213.289062 219.808594 212.789062 219.707031 212.289062 C 219.558594 211.335938 219.355469 210.332031 218.855469 209.578125 C 218.457031 208.929688 217.855469 208.527344 216.851562 208.578125 C 216.5 208.726562 216.148438 208.777344 215.75 208.777344 C 215.75 208.777344 215.75 208.777344 215.699219 208.777344 C 214.996094 208.828125 214.246094 208.726562 213.644531 208.828125 C 212.992188 208.878906 212.339844 208.878906 211.6875 208.878906 C 210.285156 208.878906 208.882812 208.878906 207.429688 208.878906 C 206.125 208.878906 204.824219 208.878906 203.519531 208.929688 C 200.863281 208.929688 198.257812 209.128906 195.601562 209.429688 C 194.75 209.480469 193.894531 209.53125 193.042969 209.578125 C 192.042969 209.628906 190.988281 209.628906 189.988281 209.78125 C 189.9375 209.78125 189.9375 209.78125 189.886719 209.78125 C 189.886719 209.78125 189.835938 209.78125 189.835938 209.78125 C 187.730469 210.179688 185.625 210.179688 183.472656 210.332031 C 182.96875 210.382812 182.46875 210.382812 181.96875 210.433594 C 181.066406 210.582031 180.113281 210.683594 179.210938 210.785156 C 179.0625 210.785156 178.859375 210.832031 178.710938 210.832031 C 177.207031 210.933594 175.703125 211.035156 174.199219 211.183594 C 171.191406 211.886719 168.035156 211.734375 165.078125 212.738281 C 164.925781 212.789062 164.777344 212.839844 164.625 212.890625 C 164.574219 212.890625 164.574219 212.890625 164.574219 212.941406 C 163.421875 213.441406 162.171875 213.792969 161.21875 214.644531 C 161.066406 214.84375 160.917969 215.046875 160.765625 215.296875 C 160.367188 215.949219 160.066406 216.648438 159.914062 217.402344 C 159.914062 217.402344 159.914062 217.402344 159.914062 217.453125 C 159.914062 217.453125 159.914062 217.503906 159.914062 217.503906 C 159.714844 218.503906 159.664062 219.507812 159.714844 220.511719 C 159.664062 221.613281 159.765625 222.667969 159.863281 223.769531 C 160.015625 225.273438 160.265625 226.828125 160.566406 228.335938 C 160.71875 229.085938 160.867188 229.886719 161.019531 230.640625 C 161.066406 230.742188 161.117188 230.890625 161.167969 230.992188 C 161.519531 231.894531 161.871094 232.898438 162.671875 233.398438 C 164.675781 233.949219 166.679688 234.453125 168.734375 234.351562 C 176.753906 234.300781 184.625 232.847656 192.542969 232.144531 C 195.199219 231.945312 197.855469 231.695312 200.511719 231.394531 C 204.570312 231.492188 208.632812 231.042969 212.691406 231.140625 C 214.945312 230.742188 217.300781 230.289062 219.257812 229.136719 C 221.011719 227.382812 220.410156 224.625 220.761719 222.367188 C 220.761719 221.613281 220.859375 220.8125 220.910156 220.058594 C 220.960938 219.710938 220.960938 219.359375 220.960938 218.957031 C 220.960938 218.957031 220.960938 218.957031 220.960938 218.90625 C 221.011719 218.457031 221.011719 218.105469 220.960938 217.703125 Z M 170.792969 229.789062 C 169.789062 229.636719 168.9375 229.085938 168.132812 228.484375 C 167.984375 228.382812 167.234375 227.832031 167.082031 227.683594 C 166.429688 226.929688 166.03125 225.925781 165.980469 224.925781 C 165.980469 223.921875 165.828125 222.867188 166.230469 221.914062 C 167.132812 219.808594 168.433594 217.902344 170.039062 216.300781 C 170.839844 215.398438 172.445312 216.097656 172.394531 217.300781 C 172.445312 218.054688 171.742188 218.457031 171.292969 218.957031 C 170.742188 219.457031 168.988281 222.167969 168.734375 223.019531 C 168.6875 223.671875 168.6875 224.371094 168.734375 225.023438 C 168.734375 225.074219 168.785156 225.175781 168.835938 225.273438 C 168.886719 225.375 168.9375 225.527344 168.988281 225.625 C 168.988281 225.675781 169.035156 225.726562 169.035156 225.777344 C 169.035156 225.777344 169.035156 225.777344 169.085938 225.828125 C 169.289062 225.976562 169.6875 226.277344 169.890625 226.429688 C 170.191406 226.628906 170.492188 226.828125 170.792969 226.980469 C 170.839844 226.980469 170.839844 226.980469 170.890625 227.03125 C 171.492188 227.179688 171.292969 227.179688 172.445312 227.128906 C 172.496094 227.128906 172.546875 227.128906 172.59375 227.082031 C 172.644531 227.082031 172.695312 227.03125 172.746094 227.03125 C 173.597656 226.378906 174.949219 226.78125 175.050781 227.933594 C 175.300781 230.039062 172.246094 230.039062 170.792969 229.789062 Z M 182.269531 226.828125 C 181.867188 227.78125 181.066406 228.585938 180.0625 228.886719 C 178.507812 229.386719 176.90625 228.636719 175.804688 227.53125 C 174.75 226.429688 175.152344 224.523438 175.953125 223.371094 C 176.65625 222.367188 177.808594 221.867188 178.960938 221.566406 C 178.460938 221.113281 178.308594 220.960938 177.605469 220.5625 C 176.554688 220.011719 176.804688 218.304688 177.957031 218.003906 C 179.011719 217.753906 179.914062 218.707031 180.664062 219.359375 C 181.464844 220.011719 182.269531 220.8125 182.46875 221.867188 C 182.71875 222.71875 183.019531 223.570312 183.019531 224.523438 C 183.019531 225.425781 182.667969 226.128906 182.269531 226.828125 Z M 191.089844 226.027344 C 190.1875 226.578125 188.984375 225.875 188.984375 224.824219 C 188.882812 223.769531 188.632812 222.46875 188.535156 222.367188 C 188.484375 222.316406 188.433594 222.214844 188.433594 222.167969 C 188.332031 222.066406 188.234375 221.914062 188.132812 221.816406 C 188.082031 221.765625 187.980469 221.664062 187.933594 221.613281 C 187.882812 221.566406 187.730469 221.464844 187.632812 221.363281 C 187.179688 222.066406 186.878906 224.121094 186.578125 226.378906 C 186.226562 227.832031 184.023438 227.683594 183.871094 226.179688 C 183.871094 224.972656 184.222656 223.722656 184.375 222.46875 C 184.625 220.914062 185.324219 219.105469 186.929688 218.503906 C 187.78125 218.203125 188.632812 218.503906 189.285156 219.105469 C 189.9375 219.507812 190.386719 220.058594 190.839844 220.660156 C 191.441406 221.566406 191.539062 222.71875 191.691406 223.820312 C 191.839844 224.625 191.890625 225.574219 191.089844 226.027344 Z M 198.308594 225.476562 C 196.554688 226.378906 195.351562 227.28125 193.144531 225.976562 C 192.292969 225.476562 191.992188 224.523438 191.941406 223.570312 C 191.792969 222.015625 192.695312 220.613281 193.34375 219.308594 C 193.894531 218.253906 195.601562 218.503906 195.902344 219.660156 C 196.152344 220.460938 195.5 221.113281 195.199219 221.816406 C 194.648438 223.167969 194.648438 222.71875 194.796875 223.722656 C 194.847656 223.769531 194.949219 223.820312 195 223.820312 C 195 223.820312 195.050781 223.820312 195.050781 223.871094 C 195.050781 223.871094 195.050781 223.871094 195.097656 223.871094 C 195.148438 223.871094 195.199219 223.871094 195.199219 223.871094 C 196.050781 223.570312 195.449219 223.921875 196.902344 223.117188 C 198.457031 222.167969 199.859375 224.523438 198.308594 225.476562 Z M 206.226562 221.0625 C 205.824219 221.714844 205.074219 222.066406 204.371094 222.265625 C 203.769531 222.46875 203.167969 222.617188 202.566406 222.769531 C 202.867188 223.117188 203.167969 223.46875 203.367188 223.921875 C 203.667969 224.972656 202.515625 226.078125 201.464844 225.574219 C 200.5625 225.074219 200.914062 224.972656 200.460938 224.625 C 199.660156 223.621094 198.707031 222.667969 198.507812 221.363281 C 198.007812 219.058594 199.511719 216.5 201.964844 216.300781 C 203.019531 216.097656 204.222656 216.097656 205.171875 216.601562 C 206.828125 217.703125 207.480469 219.457031 206.226562 221.0625 Z M 213.191406 225.324219 C 212.441406 226.480469 210.585938 226.128906 209.632812 225.425781 C 209.234375 225.125 208.882812 224.773438 208.632812 224.273438 C 208.53125 224.070312 208.382812 223.621094 208.332031 223.519531 C 208.082031 222.917969 207.929688 222.265625 207.929688 221.613281 C 207.328125 219.007812 207.378906 216.300781 207.578125 213.640625 C 207.527344 212.1875 209.734375 211.734375 210.234375 213.089844 C 210.484375 213.792969 210.183594 214.59375 210.234375 215.347656 C 210.136719 216.800781 210.234375 218.253906 210.335938 219.710938 C 210.4375 220.359375 210.636719 221.011719 210.6875 221.714844 C 210.6875 221.816406 210.6875 221.914062 210.6875 222.015625 C 210.6875 222.066406 210.738281 222.167969 210.738281 222.214844 C 210.988281 222.769531 211.039062 222.917969 211.085938 222.96875 C 211.085938 222.96875 211.136719 223.019531 211.136719 223.019531 C 211.1875 223.070312 211.289062 223.117188 211.386719 223.117188 C 211.386719 223.117188 211.4375 223.117188 211.4375 223.117188 C 211.488281 223.117188 211.539062 223.117188 211.589844 223.117188 C 212.792969 222.96875 213.84375 224.324219 213.191406 225.324219 Z M 203.871094 219.105469 C 203.769531 219.058594 203.621094 219.058594 203.519531 219.058594 C 203.46875 219.058594 203.46875 219.058594 203.367188 219.058594 C 202.316406 219.105469 202.96875 219.007812 201.867188 219.257812 C 201.867188 219.257812 201.816406 219.257812 201.816406 219.308594 C 201.765625 219.359375 201.664062 219.457031 201.566406 219.507812 C 201.566406 219.507812 201.566406 219.507812 201.566406 219.558594 C 201.515625 219.710938 201.414062 219.808594 201.363281 219.960938 C 201.3125 220.058594 201.3125 220.160156 201.265625 220.261719 C 202.015625 220.109375 202.769531 219.910156 203.519531 219.660156 C 203.667969 219.609375 203.769531 219.558594 203.921875 219.507812 C 203.921875 219.507812 203.921875 219.507812 203.96875 219.507812 C 204.019531 219.457031 204.019531 219.410156 204.070312 219.359375 C 204.070312 219.308594 204.019531 219.308594 204.019531 219.308594 C 203.96875 219.207031 203.921875 219.15625 203.871094 219.105469 Z M 180.164062 224.171875 C 178.910156 224.523438 178.960938 224.472656 178.308594 224.824219 C 178.308594 224.824219 178.257812 224.875 178.257812 224.875 C 178.207031 224.972656 178.160156 225.023438 178.109375 225.125 C 178.058594 225.324219 178.007812 225.527344 177.957031 225.777344 C 178.007812 225.828125 178.007812 225.828125 178.058594 225.828125 C 178.308594 225.976562 178.660156 226.179688 178.808594 226.277344 C 178.859375 226.277344 178.910156 226.277344 179.011719 226.277344 C 179.0625 226.277344 179.109375 226.277344 179.160156 226.277344 C 179.210938 226.277344 179.261719 226.226562 179.3125 226.226562 C 179.363281 226.179688 179.460938 226.128906 179.511719 226.078125 C 179.511719 226.078125 179.511719 226.078125 179.5625 226.027344 C 179.5625 226.027344 179.5625 226.027344 179.613281 225.976562 C 179.613281 225.976562 179.613281 225.925781 179.664062 225.925781 C 179.8125 225.726562 180.164062 224.972656 180.3125 224.671875 C 180.3125 224.625 180.3125 224.625 180.363281 224.574219 C 180.363281 224.472656 180.363281 224.371094 180.363281 224.273438 C 180.214844 224.324219 180.214844 224.273438 180.164062 224.171875 Z M 180.164062 224.171875 " fill-opacity="1" fill-rule="nonzero"/><path fill="#ffe5b3" d="M 143.574219 165.453125 C 143.625 165.503906 143.625 165.503906 143.625 165.550781 C 143.828125 165.753906 144.027344 165.953125 144.277344 166.15625 C 144.328125 166.203125 144.378906 166.253906 144.429688 166.253906 C 144.476562 166.253906 144.527344 166.304688 144.578125 166.304688 C 144.679688 166.304688 144.730469 166.304688 144.777344 166.304688 C 145.53125 166.203125 146.28125 166.003906 146.984375 165.703125 C 147.035156 165.652344 147.085938 165.601562 147.132812 165.601562 C 147.484375 165.152344 147.535156 165.152344 147.886719 164.046875 C 147.988281 163.347656 147.9375 163.09375 147.886719 162.445312 C 147.886719 162.394531 147.886719 162.34375 147.835938 162.292969 C 147.785156 162.191406 147.6875 162.042969 147.636719 161.941406 C 147.636719 161.941406 147.585938 161.941406 147.585938 161.890625 C 147.535156 161.84375 147.484375 161.84375 147.433594 161.84375 C 147.183594 161.890625 146.882812 161.890625 146.632812 161.890625 C 146.332031 161.941406 145.378906 161.992188 144.226562 162.34375 C 144.175781 162.34375 144.175781 162.394531 144.078125 162.394531 C 144.027344 162.445312 143.976562 162.492188 143.925781 162.542969 C 143.875 162.695312 143.675781 162.945312 143.527344 163.195312 C 143.125 164.148438 143.175781 163.898438 143.023438 164.5 C 143.023438 164.5 143.023438 164.5 143.023438 164.550781 C 143.273438 164.949219 143.273438 164.902344 143.574219 165.453125 Z M 105.683594 169.214844 C 105.785156 169.261719 105.886719 169.363281 106.035156 169.414062 C 106.035156 169.414062 106.085938 169.414062 106.085938 169.464844 C 107.039062 169.765625 106.4375 169.664062 107.339844 169.664062 C 107.488281 169.613281 107.640625 169.5625 107.789062 169.515625 C 108.140625 169.363281 108.390625 169.113281 108.691406 168.914062 C 108.742188 168.863281 108.792969 168.8125 108.84375 168.761719 C 108.992188 168.5625 109.144531 168.3125 109.242188 168.058594 C 109.292969 167.960938 109.34375 167.808594 109.445312 167.707031 C 109.445312 167.660156 109.445312 167.660156 109.496094 167.609375 C 109.542969 167.40625 109.542969 167.15625 109.542969 166.957031 C 109.542969 166.757812 109.496094 166.003906 109.496094 165.703125 C 109.496094 165.601562 109.445312 165.550781 109.445312 165.453125 C 109.144531 165 108.894531 164.550781 108.542969 164.097656 C 108.292969 163.796875 108.039062 163.496094 107.789062 163.246094 C 107.738281 163.246094 107.738281 163.195312 107.691406 163.195312 C 107.4375 163.09375 107.136719 162.996094 106.9375 162.792969 C 106.6875 162.894531 106.386719 162.945312 106.1875 163.046875 C 105.9375 163.144531 105.734375 163.246094 105.535156 163.347656 C 105.382812 163.394531 105.183594 163.546875 105.082031 163.648438 C 105.035156 163.699219 104.984375 163.746094 104.933594 163.847656 C 104.933594 163.847656 104.933594 163.847656 104.933594 163.898438 C 104.230469 165.203125 103.980469 167.257812 104.632812 168.160156 C 104.632812 168.410156 105.183594 168.863281 105.683594 169.214844 Z M 166.679688 165.050781 C 166.679688 165.101562 166.679688 165.101562 166.679688 165.050781 C 166.832031 165.101562 166.980469 165.203125 167.132812 165.203125 C 167.332031 165.300781 168.132812 165.503906 168.386719 165.601562 C 168.386719 165.601562 168.433594 165.601562 168.433594 165.601562 C 168.484375 165.601562 168.484375 165.601562 168.535156 165.601562 C 168.585938 165.550781 168.6875 165.503906 168.734375 165.453125 C 168.886719 165.300781 169.035156 165.203125 169.1875 165.050781 C 169.738281 164 169.589844 164.347656 169.9375 163.496094 C 169.9375 163.296875 169.9375 163.09375 169.890625 162.894531 C 169.738281 162.445312 169.589844 161.742188 169.4375 160.890625 C 168.386719 160.988281 167.382812 160.988281 167.132812 161.089844 C 166.980469 161.140625 166.832031 161.191406 166.78125 161.191406 C 166.730469 161.238281 166.679688 161.238281 166.632812 161.289062 C 166.632812 161.289062 166.582031 161.339844 166.582031 161.339844 C 166.53125 161.390625 166.480469 161.492188 166.429688 161.589844 C 166.378906 161.691406 166.332031 161.792969 166.28125 161.890625 C 166.078125 162.394531 166.03125 162.894531 165.929688 163.394531 C 165.929688 163.746094 165.878906 164.046875 165.878906 164.398438 C 166.078125 164.601562 166.28125 164.75 166.480469 164.902344 C 166.53125 165 166.582031 165.050781 166.679688 165.050781 Z M 85.835938 170.769531 C 85.9375 171.371094 85.9375 171.269531 85.9375 171.570312 C 86.039062 171.570312 86.1875 171.519531 86.390625 171.519531 C 87.242188 171.46875 88.09375 171.46875 88.945312 171.519531 C 90.199219 171.621094 89.996094 171.46875 91.550781 171.019531 C 93.355469 170.617188 93.457031 170.617188 94.859375 169.664062 C 95.007812 169.5625 95.109375 169.464844 95.210938 169.3125 C 95.308594 169.214844 95.410156 169.113281 95.511719 169.011719 C 95.5625 168.960938 95.609375 168.863281 95.660156 168.8125 C 95.710938 168.761719 95.710938 168.710938 95.761719 168.660156 C 96.261719 167.207031 96.164062 167.308594 96.3125 165.550781 C 96.714844 163.445312 95.511719 161.941406 94.707031 160.738281 C 93.90625 159.886719 93.054688 159.386719 91.449219 158.53125 C 91.300781 158.433594 91.199219 158.382812 91.050781 158.332031 C 89.394531 157.832031 89.597656 158.082031 87.992188 157.78125 C 86.992188 157.480469 86.488281 157.730469 84.632812 158.230469 C 85.035156 161.640625 85.234375 164.148438 85.488281 167.457031 C 85.585938 169.0625 85.636719 170.015625 85.835938 170.769531 Z M 309.671875 162.792969 C 309.722656 162.144531 309.722656 161.492188 309.722656 160.839844 C 309.722656 159.132812 309.625 157.378906 309.523438 155.675781 C 309.472656 154.570312 309.421875 153.46875 309.421875 152.363281 C 309.472656 151.511719 309.472656 150.710938 309.472656 149.90625 C 309.472656 147 309.222656 144.140625 309.273438 141.230469 C 309.273438 140.882812 309.273438 140.582031 309.273438 140.230469 C 309.371094 139.828125 309.371094 139.378906 309.324219 138.976562 C 309.324219 138.625 309.273438 138.324219 309.222656 137.972656 C 309.171875 137.722656 309.121094 137.472656 309.070312 137.222656 C 308.871094 137.222656 308.621094 137.121094 308.421875 137.019531 C 308.070312 137.171875 307.667969 137.171875 307.269531 137.019531 C 306.917969 136.96875 306.515625 136.917969 306.164062 136.871094 C 304.613281 136.667969 303.007812 136.570312 301.402344 136.769531 C 300.402344 136.769531 299.25 136.570312 298.195312 136.519531 C 297.746094 136.46875 297.34375 136.46875 296.941406 136.46875 C 296.59375 136.46875 296.191406 136.519531 295.839844 136.519531 C 295.089844 136.570312 294.335938 136.617188 293.585938 136.617188 C 293.433594 136.617188 293.234375 136.617188 293.082031 136.617188 C 287.621094 136.417969 282.109375 136.417969 276.644531 136.367188 C 274.890625 136.367188 273.085938 136.316406 271.332031 136.316406 C 270.128906 136.367188 268.875 136.417969 267.621094 136.417969 C 266.972656 136.417969 266.371094 136.46875 265.71875 136.46875 C 264.164062 136.519531 262.609375 136.519531 261.105469 136.519531 C 259.453125 136.570312 257.847656 136.617188 256.195312 136.667969 C 255.894531 136.667969 255.644531 136.667969 255.34375 136.667969 C 253.4375 136.71875 251.585938 136.71875 249.679688 136.617188 C 245.769531 136.871094 241.859375 136.667969 237.953125 136.917969 C 237 136.871094 235.996094 136.871094 235.046875 136.820312 C 232.339844 136.769531 229.582031 136.769531 226.875 136.46875 C 226.773438 136.46875 226.726562 136.46875 226.625 136.46875 C 225.171875 136.367188 223.769531 136.417969 222.316406 136.519531 C 221.3125 136.570312 220.308594 136.617188 219.308594 136.617188 C 214.644531 136.769531 210.035156 136.769531 205.375 137.121094 C 203.820312 137.121094 202.265625 137.171875 200.710938 137.222656 C 197.605469 137.320312 194.449219 137.421875 191.339844 137.570312 C 186.78125 137.871094 182.269531 137.621094 177.707031 137.472656 C 175.902344 137.570312 174.097656 137.722656 172.292969 137.824219 C 169.289062 137.824219 166.332031 138.171875 163.375 138.574219 C 160.96875 138.773438 158.5625 138.925781 156.105469 139.027344 C 152.699219 138.976562 149.339844 138.976562 145.929688 139.175781 C 144.878906 139.226562 143.828125 139.328125 142.773438 139.425781 C 141.019531 139.726562 139.214844 139.828125 137.460938 139.929688 C 137.058594 139.929688 136.710938 139.980469 136.359375 140.027344 C 135.457031 140.078125 134.605469 140.179688 133.703125 140.28125 C 131.949219 140.53125 129.941406 140.429688 128.140625 140.429688 C 127.886719 140.429688 127.636719 140.429688 127.4375 140.429688 C 127.035156 140.429688 126.636719 140.480469 126.183594 140.480469 C 125.03125 140.53125 123.929688 140.582031 122.777344 140.582031 C 121.972656 140.582031 121.171875 140.582031 120.371094 140.582031 C 114.207031 140.832031 108.039062 142.035156 101.875 141.484375 C 98.96875 141.683594 95.910156 142.234375 92.855469 142.386719 C 92.003906 142.4375 91.148438 142.484375 90.25 142.484375 C 89.597656 142.4375 88.996094 142.386719 88.34375 142.285156 C 87.691406 142.183594 86.992188 142.035156 86.289062 141.933594 C 85.886719 141.882812 85.535156 141.882812 85.136719 141.882812 C 84.183594 141.882812 83.230469 142.035156 82.230469 142.085938 C 81.375 142.085938 80.574219 142.183594 79.773438 142.234375 C 77.867188 142.4375 76.015625 142.785156 74.160156 143.039062 C 73.105469 143.136719 72.003906 143.136719 70.902344 143.136719 C 70.449219 143.136719 69.949219 143.136719 69.5 143.136719 C 69.347656 143.136719 69.199219 143.136719 69.046875 143.1875 C 68.046875 143.238281 67.042969 143.289062 66.039062 143.386719 C 65.738281 143.4375 65.488281 143.4375 65.1875 143.488281 C 65.1875 143.691406 65.1875 143.839844 65.1875 144.039062 C 65.085938 147.5 65.339844 151.011719 65.136719 154.46875 C 65.136719 154.722656 65.136719 154.921875 65.085938 155.171875 C 64.988281 156.476562 65.039062 157.78125 65.085938 159.082031 C 65.136719 159.835938 65.1875 160.589844 65.238281 161.339844 C 65.1875 162.09375 65.136719 162.84375 65.085938 163.597656 C 64.9375 165.703125 64.835938 167.757812 64.988281 169.863281 C 64.988281 170.515625 64.9375 171.117188 64.886719 171.769531 C 64.789062 173.023438 64.6875 174.226562 64.789062 175.480469 C 64.789062 175.730469 64.835938 175.984375 64.835938 176.234375 C 64.886719 176.683594 64.886719 177.136719 64.9375 177.636719 C 64.988281 178.039062 64.988281 178.390625 64.988281 178.789062 C 64.988281 178.992188 64.988281 179.191406 64.988281 179.394531 C 64.988281 179.695312 64.988281 179.996094 64.9375 180.296875 C 64.835938 182.703125 64.886719 185.058594 64.988281 187.414062 C 65.085938 189.269531 64.9375 191.125 64.886719 192.980469 C 64.835938 194.183594 64.789062 195.390625 64.835938 196.542969 C 64.988281 198.246094 65.039062 199.902344 64.789062 201.605469 C 64.636719 202.710938 64.6875 203.863281 64.738281 204.964844 C 64.789062 205.46875 64.789062 206.019531 64.835938 206.519531 C 64.886719 207.574219 64.9375 208.628906 64.886719 209.730469 C 64.789062 211.785156 64.835938 213.890625 64.886719 215.949219 C 64.9375 217.453125 64.9375 218.957031 64.886719 220.460938 C 64.835938 222.867188 65.289062 225.273438 65.4375 227.683594 C 65.488281 231.042969 65.488281 234.402344 65.988281 237.761719 C 66.242188 240.167969 66.039062 242.574219 66.242188 244.933594 C 66.339844 245.03125 66.441406 245.183594 66.441406 245.382812 C 66.492188 245.433594 66.492188 245.535156 66.492188 245.632812 C 66.492188 245.734375 66.492188 245.835938 66.542969 245.882812 C 66.542969 245.984375 66.589844 246.035156 66.589844 246.085938 C 66.691406 246.535156 66.742188 247.039062 66.742188 247.488281 C 66.84375 248.84375 66.890625 250.246094 67.445312 251.5 C 67.492188 253.90625 69.648438 254.507812 71.652344 254.910156 C 72.054688 254.960938 72.40625 255.011719 72.804688 255.113281 C 74.359375 255.414062 75.914062 255.964844 77.519531 255.964844 C 79.070312 256.015625 80.574219 256.164062 82.128906 256.316406 C 82.730469 256.363281 83.28125 256.414062 83.882812 256.464844 C 84.035156 256.464844 84.183594 256.464844 84.332031 256.464844 C 85.136719 256.464844 85.988281 256.464844 86.789062 256.464844 C 87.742188 256.464844 88.695312 256.464844 89.648438 256.515625 C 92.753906 257.015625 95.910156 256.664062 99.019531 256.515625 C 99.121094 256.515625 99.21875 256.515625 99.320312 256.515625 C 100.371094 256.566406 101.375 256.566406 102.425781 256.566406 C 105.082031 256.515625 107.738281 256.316406 110.347656 256.0625 C 112.652344 255.863281 114.957031 256.015625 117.210938 255.5625 C 119.21875 255.261719 121.222656 255.511719 123.226562 255.511719 C 123.277344 255.511719 123.277344 255.511719 123.328125 255.511719 C 127.539062 255.363281 131.746094 255.414062 135.90625 255.3125 C 136.660156 255.3125 137.359375 255.261719 138.113281 255.261719 C 141.320312 255.011719 144.578125 254.808594 147.835938 254.710938 C 150.59375 254.609375 153.347656 254.558594 156.105469 254.558594 C 157.859375 254.460938 159.5625 254.359375 161.316406 254.308594 C 165.328125 254.160156 169.289062 254.160156 173.296875 254.007812 C 175.25 254.109375 177.207031 254.007812 179.160156 253.90625 C 180.964844 253.808594 182.71875 253.605469 184.472656 253.457031 C 191.492188 253.054688 198.507812 252.703125 205.574219 252.253906 C 209.683594 252.351562 213.742188 251.902344 217.855469 251.703125 C 218.253906 251.703125 218.707031 251.652344 219.105469 251.652344 C 219.308594 251.652344 219.507812 251.652344 219.65625 251.601562 C 223.71875 251.351562 227.726562 251.101562 231.789062 251.050781 C 234.996094 251 238.152344 250.949219 241.359375 251.050781 C 242.914062 251.148438 244.46875 251.050781 246.019531 250.949219 C 246.671875 250.898438 247.375 250.898438 248.027344 250.847656 C 249.378906 250.800781 250.78125 250.800781 252.136719 251 C 253.390625 251.101562 254.589844 250.949219 255.84375 250.800781 C 256.546875 250.75 257.25 250.648438 257.949219 250.597656 C 258.402344 250.597656 258.851562 250.546875 259.304688 250.597656 C 259.753906 250.597656 260.15625 250.597656 260.554688 250.648438 C 261.105469 250.648438 261.707031 250.648438 262.261719 250.648438 C 262.910156 250.648438 263.5625 250.699219 264.214844 250.800781 C 264.964844 250.847656 265.71875 250.949219 266.46875 250.898438 C 268.175781 250.75 269.929688 250.75 271.632812 250.800781 C 272.035156 250.800781 272.433594 250.800781 272.835938 250.847656 C 273.386719 250.847656 273.988281 250.847656 274.539062 250.847656 C 275.039062 250.847656 275.492188 250.847656 275.992188 250.847656 C 276.542969 250.847656 277.144531 250.847656 277.695312 250.847656 C 279.550781 250.898438 281.40625 250.898438 283.210938 250.847656 C 283.460938 250.847656 283.710938 250.800781 283.960938 250.800781 C 284.964844 250.699219 285.917969 250.597656 286.917969 250.546875 C 287.167969 250.546875 287.421875 250.496094 287.671875 250.496094 C 288.972656 250.496094 290.226562 250.546875 291.53125 250.597656 C 293.285156 250.648438 295.039062 250.699219 296.84375 250.75 C 297.644531 250.75 298.445312 250.800781 299.25 250.800781 C 299.75 250.847656 300.300781 250.847656 300.800781 250.75 C 301.703125 250.597656 302.554688 250.195312 303.410156 249.894531 C 304.261719 249.496094 305.3125 249.34375 305.914062 248.644531 C 305.964844 248.59375 305.964844 248.542969 306.015625 248.492188 C 306.066406 248.441406 306.113281 248.34375 306.164062 248.292969 C 306.164062 247.941406 306.265625 247.640625 306.464844 247.4375 C 306.515625 247.390625 306.515625 247.390625 306.566406 247.339844 C 306.566406 247.339844 306.566406 247.339844 306.617188 247.339844 C 306.667969 247.289062 306.765625 247.238281 306.816406 247.1875 C 307.167969 246.136719 307.367188 244.980469 307.570312 243.878906 C 307.617188 243.527344 307.667969 243.175781 307.71875 242.824219 C 307.820312 242.425781 307.917969 242.023438 307.96875 241.621094 C 308.171875 240.621094 308.269531 239.667969 308.320312 238.664062 C 308.371094 237.8125 308.421875 236.957031 308.472656 236.105469 C 308.421875 235.40625 308.472656 234.753906 308.519531 234.050781 C 308.671875 231.34375 309.324219 228.683594 309.121094 225.976562 C 308.671875 223.519531 308.820312 221.0625 308.871094 218.605469 C 308.722656 214.996094 309.273438 211.386719 309.222656 207.773438 C 309.472656 204.265625 309.371094 200.804688 309.273438 197.292969 C 309.324219 196.441406 309.324219 195.539062 309.324219 194.6875 C 309.324219 193.632812 309.273438 192.53125 309.222656 191.476562 C 309.222656 191.175781 309.171875 190.824219 309.171875 190.523438 C 309.472656 184.808594 309.625 179.042969 309.523438 173.324219 C 309.523438 172.320312 309.523438 171.320312 309.523438 170.316406 C 309.671875 167.757812 309.824219 165.25 309.671875 162.792969 Z M 214.898438 162.394531 C 216.699219 162.445312 216.699219 165.152344 214.898438 165.203125 C 213.09375 165.152344 213.09375 162.394531 214.898438 162.394531 Z M 210.183594 162.394531 C 211.988281 162.445312 211.988281 165.152344 210.183594 165.203125 C 208.382812 165.152344 208.382812 162.394531 210.183594 162.394531 Z M 204.019531 162.695312 C 205.824219 162.746094 205.824219 165.453125 204.019531 165.503906 C 202.167969 165.402344 202.167969 162.695312 204.019531 162.695312 Z M 189.738281 156.925781 C 190.9375 155.773438 192.996094 155.273438 194.648438 155.222656 C 195.851562 155.171875 196.503906 156.777344 195.652344 157.578125 C 195.25 158.03125 194.648438 157.980469 194.097656 158.03125 C 193.34375 158.179688 192.644531 158.433594 191.992188 158.683594 C 191.941406 158.683594 191.941406 158.734375 191.890625 158.734375 C 191.839844 158.78125 191.742188 158.832031 191.691406 158.933594 C 191.339844 159.386719 190.988281 159.886719 190.738281 160.386719 C 190.6875 160.488281 190.636719 160.589844 190.589844 160.636719 C 190.589844 160.6875 190.589844 160.738281 190.539062 160.789062 C 190.539062 160.839844 190.539062 160.890625 190.539062 160.9375 C 190.539062 161.039062 190.589844 161.140625 190.636719 161.289062 C 190.636719 161.289062 190.636719 161.339844 190.636719 161.339844 C 190.6875 161.390625 190.738281 161.390625 190.839844 161.441406 C 190.890625 161.441406 190.988281 161.492188 191.140625 161.542969 C 191.339844 161.589844 191.539062 161.640625 191.742188 161.691406 C 191.792969 161.691406 191.839844 161.691406 191.890625 161.691406 C 192.042969 161.640625 192.34375 161.589844 192.59375 161.492188 C 192.742188 161.390625 192.894531 161.339844 193.042969 161.238281 C 193.144531 161.140625 193.296875 160.9375 193.445312 160.839844 C 193.894531 160.085938 193.847656 160.335938 194.046875 159.835938 C 194.296875 159.433594 194.046875 159.585938 194.546875 158.734375 C 195.097656 157.929688 196.402344 158.03125 196.851562 158.882812 C 197.152344 159.835938 197.304688 160.789062 197.707031 161.84375 C 198.007812 162.695312 200.613281 166.457031 197.40625 167.808594 C 196.652344 168.109375 195.902344 168.613281 195.050781 168.410156 C 193.996094 168.160156 193.644531 166.605469 194.597656 165.953125 C 195 165.601562 195.601562 165.601562 196.050781 165.351562 C 196.101562 165.300781 196.152344 165.300781 196.203125 165.25 C 196.152344 165.050781 196.101562 164.851562 196.050781 164.648438 C 195.953125 164.550781 195.601562 163.847656 195.25 162.945312 C 193.546875 164.699219 190.488281 164.902344 188.683594 163.144531 C 186.78125 161.140625 188.234375 158.734375 189.738281 156.925781 Z M 178.558594 162.59375 C 178.710938 160.589844 179.109375 158.28125 181.214844 157.429688 C 182.921875 156.828125 184.324219 158.179688 185.125 159.585938 C 185.777344 160.9375 185.878906 162.445312 185.777344 163.898438 C 185.777344 164.550781 185.925781 165.203125 185.375 165.703125 C 184.574219 166.554688 182.96875 165.902344 183.019531 164.699219 C 182.921875 162.792969 183.171875 162.394531 182.71875 160.988281 C 182.621094 160.789062 182.367188 160.4375 182.21875 160.238281 C 182.167969 160.1875 182.117188 160.136719 182.066406 160.085938 C 181.96875 160.1875 181.867188 160.289062 181.816406 160.386719 C 181.765625 160.4375 181.71875 160.539062 181.667969 160.636719 C 181.617188 160.789062 181.566406 160.9375 181.515625 161.089844 C 181.417969 161.640625 181.117188 163.847656 181.066406 165.503906 C 181.117188 166.957031 178.910156 167.40625 178.410156 166.054688 C 178.058594 165 178.507812 163.746094 178.558594 162.59375 Z M 176.753906 165.953125 C 176.804688 166.054688 176.804688 166.203125 176.804688 166.304688 C 176.855469 167.40625 175.402344 168.160156 174.550781 167.40625 C 173.847656 166.957031 173.949219 166.003906 173.898438 165.25 C 173.847656 163.394531 173.796875 161.542969 173.847656 159.6875 C 173.898438 157.878906 176.605469 157.878906 176.65625 159.6875 C 176.65625 161.742188 176.65625 163.847656 176.753906 165.953125 Z M 175.152344 153.820312 C 176.957031 153.867188 176.957031 156.578125 175.152344 156.625 C 173.296875 156.527344 173.296875 153.820312 175.152344 153.820312 Z M 163.121094 163.445312 C 163.574219 159.035156 165.328125 158.332031 168.9375 158.132812 C 168.734375 157.179688 168.535156 156.226562 168.234375 155.375 C 168.183594 155.324219 168.183594 155.273438 168.132812 155.171875 C 168.085938 155.121094 168.085938 155.074219 168.085938 155.074219 C 168.035156 154.972656 167.933594 154.921875 167.882812 154.820312 C 167.785156 154.671875 167.632812 154.570312 167.535156 154.421875 C 167.03125 153.617188 167.582031 152.414062 168.535156 152.363281 C 169.035156 152.265625 169.539062 152.515625 169.839844 152.917969 C 169.839844 152.917969 169.890625 152.964844 169.890625 152.964844 C 171.191406 154.121094 171.742188 158.179688 172.042969 159.9375 C 172.195312 161.191406 172.695312 162.394531 172.644531 163.648438 C 172.34375 165.351562 171.441406 167.105469 169.890625 167.960938 C 168.484375 168.8125 166.832031 168.109375 165.476562 167.507812 C 164.675781 167.105469 163.976562 166.503906 163.421875 165.804688 C 162.972656 165.152344 163.074219 164.25 163.121094 163.445312 Z M 151.796875 165.101562 C 151.996094 164.097656 152.296875 163.09375 153 162.292969 C 154.152344 161.238281 155.605469 160.6875 157.109375 160.335938 C 156.808594 160.136719 156.457031 160.035156 155.703125 159.585938 C 154.652344 159.035156 154.902344 157.328125 156.054688 157.027344 C 156.90625 156.777344 157.609375 157.53125 158.359375 157.832031 C 161.96875 159.835938 163.324219 166.40625 158.914062 168.261719 C 156.507812 169.3125 151.394531 168.460938 151.796875 165.101562 Z M 140.871094 162.695312 C 140.871094 162.644531 140.871094 162.644531 140.871094 162.695312 C 141.171875 161.890625 141.570312 161.089844 142.171875 160.488281 C 143.574219 159.234375 145.582031 159.285156 147.335938 159.082031 C 147.585938 159.082031 147.835938 159.183594 148.035156 159.285156 C 148.636719 159.234375 149.289062 159.585938 149.691406 160.035156 C 151.292969 161.941406 151.09375 165.101562 149.238281 167.40625 C 148.289062 168.511719 146.683594 168.761719 145.328125 169.011719 C 142.722656 169.515625 140.417969 166.757812 140.367188 164.347656 C 140.367188 163.746094 140.667969 163.195312 140.871094 162.695312 Z M 137.613281 154.070312 C 137.863281 154.320312 138.011719 154.671875 138.011719 155.074219 C 138.261719 157.078125 138.261719 159.082031 138.414062 161.039062 C 138.515625 164 139.164062 164.851562 139.265625 167.609375 C 139.015625 168.660156 137.460938 169.011719 136.808594 168.058594 C 136.308594 167.308594 136.359375 166.253906 136.207031 165.402344 C 136.257812 165.753906 136.257812 165.851562 136.207031 165.453125 C 135.457031 162.042969 135.65625 158.480469 135.257812 155.023438 C 135.15625 153.820312 136.757812 153.167969 137.613281 154.070312 Z M 127.738281 165 C 127.886719 162.996094 129.089844 160.789062 131.246094 160.539062 C 131.898438 160.4375 132.597656 160.4375 133.199219 160.738281 C 133.753906 161.039062 134.101562 161.640625 134.355469 162.191406 C 135.355469 163.648438 135.457031 165.453125 135.757812 167.15625 C 135.90625 167.707031 136.058594 168.261719 135.707031 168.761719 C 135.15625 169.816406 133.453125 169.613281 133.152344 168.410156 C 132.851562 167.105469 132.699219 165.804688 132.398438 164.550781 C 132.398438 164.5 132.398438 164.5 132.347656 164.449219 C 132.347656 164.449219 132.347656 164.449219 132.347656 164.398438 C 132.25 164.199219 131.898438 163.597656 131.699219 163.195312 C 131.699219 163.195312 131.648438 163.195312 131.648438 163.195312 C 131.597656 163.195312 131.496094 163.246094 131.398438 163.246094 C 131.097656 163.394531 130.945312 163.648438 130.746094 163.847656 C 130.496094 164.25 129.992188 167.859375 129.894531 168.511719 C 129.941406 169.964844 127.738281 170.417969 127.238281 169.0625 C 127.035156 167.910156 127.636719 166.253906 127.738281 165 Z M 115.757812 161.691406 C 116.3125 163.394531 116.710938 165.550781 117.210938 167.15625 C 117.210938 167.15625 117.210938 167.105469 117.210938 167.105469 C 117.511719 165.804688 117.511719 163.847656 119.066406 163.445312 C 120.121094 163.195312 121.023438 163.847656 121.773438 164.5 C 122.375 165.050781 123.027344 165.453125 123.476562 166.105469 C 123.578125 166.203125 123.679688 166.355469 123.777344 166.457031 C 123.828125 165.652344 123.878906 164.851562 123.929688 164.097656 C 123.929688 163.195312 124.378906 162.191406 125.382812 162.191406 C 126.035156 162.191406 126.683594 162.695312 126.734375 163.394531 C 126.785156 163.648438 126.734375 163.898438 126.683594 164.148438 C 126.585938 165.300781 126.585938 166.457031 126.382812 167.558594 C 126.082031 169.3125 124.53125 170.46875 122.875 169.515625 C 122.175781 169.0625 121.773438 168.359375 121.222656 167.757812 C 120.871094 167.359375 120.46875 167.058594 120.070312 166.757812 C 119.96875 167.15625 119.917969 167.507812 119.867188 167.910156 C 119.617188 169.464844 118.765625 171.820312 116.761719 171.417969 C 115.207031 170.917969 114.808594 169.0625 114.40625 167.707031 C 113.953125 166.003906 113.503906 164.25 113.003906 162.542969 C 112.601562 160.636719 115.257812 159.9375 115.757812 161.691406 Z M 102.378906 162.492188 C 103.28125 161.089844 104.984375 160.539062 106.488281 160.035156 C 107.039062 159.886719 107.539062 160.085938 107.839844 160.4375 C 108.242188 160.4375 108.640625 160.589844 109.042969 160.839844 C 110.296875 161.640625 111.148438 162.996094 111.851562 164.25 C 112.402344 165.550781 112.300781 167.058594 112.101562 168.410156 C 111.550781 170.117188 110.296875 171.570312 108.59375 172.171875 C 107.1875 172.722656 105.585938 172.472656 104.332031 171.71875 C 104.179688 171.621094 103.679688 171.21875 103.480469 171.070312 C 102.628906 170.46875 101.925781 169.664062 101.574219 168.710938 C 100.972656 166.65625 101.375 164.347656 102.378906 162.492188 Z M 82.730469 155.976562 C 82.980469 155.773438 83.28125 155.625 83.683594 155.574219 C 84.835938 155.324219 85.988281 154.921875 87.191406 154.871094 C 89.195312 155.121094 88.894531 155.222656 90.046875 155.273438 C 91.199219 155.375 92.253906 155.824219 93.253906 156.375 C 94.359375 156.976562 95.460938 157.628906 96.363281 158.53125 C 97.464844 159.734375 98.316406 161.191406 98.867188 162.695312 C 99.269531 164 99.121094 165.351562 98.96875 166.707031 C 98.917969 168.058594 98.566406 169.414062 97.867188 170.566406 C 97.015625 171.769531 95.710938 172.574219 94.359375 173.175781 C 93.707031 173.425781 93.003906 173.574219 92.304688 173.726562 C 91.449219 173.976562 90.648438 174.277344 89.796875 174.328125 C 89.144531 174.378906 88.445312 174.226562 87.792969 174.277344 C 86.539062 174.378906 86.890625 174.226562 86.089844 174.429688 C 85.234375 174.730469 84.632812 174.527344 84.234375 174.175781 C 83.78125 173.976562 83.433594 173.574219 83.382812 172.972656 C 82.929688 170.417969 82.78125 169.515625 82.578125 166.054688 C 82.378906 163.699219 82.027344 160.589844 81.726562 157.277344 C 81.726562 156.625 82.179688 156.175781 82.730469 155.976562 Z M 223.566406 219.710938 C 222.816406 227.179688 224.570312 231.140625 215.546875 233.097656 C 214.796875 233.296875 213.996094 233.449219 213.191406 233.550781 C 212.441406 233.648438 211.6875 233.648438 210.988281 233.597656 C 210.085938 233.648438 209.234375 233.699219 208.332031 233.75 C 207.730469 233.800781 207.078125 233.800781 206.476562 233.800781 C 205.523438 233.851562 204.621094 233.898438 203.667969 233.898438 C 203.417969 233.898438 203.167969 233.898438 202.96875 233.898438 C 202.015625 233.898438 201.113281 233.898438 200.160156 233.898438 C 199.710938 233.949219 199.308594 234 198.910156 234.050781 C 197.707031 234.199219 196.503906 234.402344 195.300781 234.402344 C 188.484375 234.851562 181.816406 236.007812 175 236.558594 C 173.097656 236.707031 171.191406 236.808594 169.238281 236.859375 C 168.234375 236.910156 167.28125 236.859375 166.332031 236.757812 C 164.976562 236.609375 163.675781 236.257812 162.371094 235.957031 C 160.96875 235.605469 160.066406 234.652344 159.414062 233.449219 C 159.414062 233.449219 159.414062 233.398438 159.414062 233.398438 C 158.761719 232.195312 158.410156 230.792969 158.160156 229.585938 C 157.507812 226.328125 157.109375 223.117188 157.109375 219.859375 C 157.109375 219.207031 157.109375 218.605469 157.160156 217.953125 C 157.207031 217.703125 157.207031 217.453125 157.308594 217.203125 C 157.609375 215.796875 158.160156 214.394531 159.0625 213.289062 C 159.363281 212.941406 159.714844 212.589844 160.117188 212.289062 C 161.167969 211.585938 162.371094 211.132812 163.574219 210.632812 C 165.226562 209.929688 166.980469 209.628906 168.734375 209.429688 C 169.386719 209.378906 170.089844 209.277344 170.742188 209.230469 C 173.347656 208.675781 176.003906 208.476562 178.660156 208.328125 C 179.210938 208.226562 179.8125 208.175781 180.363281 208.125 C 181.667969 207.976562 183.019531 207.875 184.375 207.773438 C 185.175781 207.722656 186.027344 207.675781 186.828125 207.675781 C 188.082031 207.574219 189.234375 207.375 190.386719 207.222656 C 190.9375 207.171875 191.492188 207.121094 192.09375 207.074219 C 192.84375 207.074219 193.644531 207.023438 194.398438 206.972656 C 195.652344 206.871094 196.902344 206.773438 198.15625 206.621094 C 198.808594 206.570312 199.410156 206.519531 200.0625 206.472656 C 204.320312 206.320312 208.582031 206.320312 212.839844 206.269531 C 214.144531 206.269531 215.398438 206.21875 216.699219 206.21875 C 217.804688 205.71875 219.007812 206.121094 219.957031 206.820312 C 220.308594 207.074219 220.660156 207.421875 220.910156 207.722656 C 221.3125 208.226562 221.613281 208.828125 221.8125 209.429688 C 222.214844 210.484375 222.414062 211.636719 222.566406 212.738281 C 222.964844 215.046875 223.867188 217.300781 223.566406 219.710938 Z M 296.84375 184.355469 C 296.492188 185.960938 296.089844 187.617188 295.140625 188.96875 C 294.4375 190.171875 292.984375 190.574219 291.832031 191.226562 C 290.578125 191.828125 289.074219 192.078125 287.769531 192.480469 C 286.117188 193.03125 284.363281 192.882812 282.660156 193.03125 C 278.949219 193.734375 275.191406 193.683594 271.382812 193.632812 C 268.375 193.785156 265.367188 193.835938 262.359375 193.835938 C 254.441406 193.734375 246.574219 194.9375 238.652344 195.238281 C 233.890625 195.488281 229.128906 195.738281 224.320312 195.941406 C 220.257812 196.140625 216.050781 196.542969 211.988281 196.390625 C 204.222656 196.59375 196.453125 197.195312 188.683594 196.941406 C 181.816406 197.09375 174.902344 197.34375 168.035156 197.644531 C 163.875 197.746094 159.765625 198.496094 155.65625 198.847656 C 149.742188 199.402344 144.078125 200.304688 138.164062 200.753906 C 134.253906 201.507812 130.292969 201.507812 126.382812 202.207031 C 117.5625 202.960938 108.742188 204.464844 99.820312 204.164062 C 97.566406 204.214844 95.359375 204.816406 93.105469 204.964844 C 92.203125 205.066406 91.25 205.015625 90.347656 204.917969 C 89.695312 204.867188 89.046875 204.816406 88.445312 204.816406 C 87.390625 204.765625 86.339844 204.867188 85.285156 205.015625 C 84.382812 205.117188 83.480469 205.21875 82.578125 205.21875 C 81.226562 205.21875 79.972656 204.964844 78.820312 204.164062 C 76.464844 202.808594 76.164062 199.851562 75.714844 197.445312 C 75.414062 194.988281 74.960938 192.53125 74.910156 190.125 C 74.960938 188.46875 74.660156 186.863281 74.5625 185.210938 C 74.511719 181.246094 78.570312 179.894531 81.878906 179.34375 C 84.285156 178.839844 86.390625 178.039062 88.792969 177.738281 C 90.550781 177.585938 92.402344 177.636719 94.15625 177.335938 C 95.8125 177.085938 97.464844 176.683594 99.167969 176.683594 C 100.320312 176.683594 101.726562 176.734375 102.878906 176.535156 C 107.289062 175.933594 111.75 175.832031 116.210938 175.429688 C 127.238281 174.378906 138.3125 173.625 149.390625 172.875 C 158.410156 172.371094 167.382812 171.320312 176.40625 171.070312 C 186.480469 170.117188 197.054688 169.714844 207.226562 169.3125 C 221.0625 168.710938 234.894531 168.210938 248.726562 168.460938 C 254.390625 168.5625 260.003906 168.613281 265.667969 168.8125 C 272.636719 168.660156 279.601562 168.8125 286.519531 169.164062 C 288.222656 169.261719 289.976562 169.464844 291.679688 169.3125 C 292.183594 169.261719 292.734375 169.113281 293.234375 169.3125 C 293.683594 169.515625 294.085938 169.816406 294.488281 170.117188 C 295.789062 171.117188 296.292969 172.722656 296.691406 174.226562 C 297.242188 175.683594 297.292969 177.238281 297.34375 178.742188 C 297.542969 180.546875 297.394531 182.652344 296.84375 184.355469 Z M 103.480469 171.019531 C 103.53125 171.070312 103.578125 171.070312 103.628906 171.117188 C 103.378906 170.96875 103.378906 170.96875 103.480469 171.019531 Z M 293.886719 174.226562 C 293.636719 173.226562 293.234375 172.273438 292.28125 171.71875 C 289.824219 172.070312 287.320312 171.671875 284.863281 171.570312 C 281.855469 171.570312 278.800781 171.21875 275.792969 171.269531 C 269.378906 171.371094 262.910156 171.21875 256.496094 171.117188 C 248.929688 170.96875 241.410156 170.816406 233.84375 171.019531 C 233.140625 171.019531 232.4375 171.019531 231.789062 171.019531 C 226.074219 171.019531 220.359375 171.417969 214.644531 171.519531 C 208.480469 171.871094 202.417969 171.972656 196.300781 172.320312 C 189.484375 172.671875 182.667969 172.972656 175.851562 173.625 C 170.191406 173.726562 164.625 174.378906 158.960938 174.730469 C 149.941406 175.429688 140.917969 176.082031 131.898438 176.632812 C 122.625 177.488281 113.253906 178.1875 103.980469 178.992188 C 101.824219 179.394531 99.621094 179.140625 97.414062 179.394531 C 95.8125 179.695312 94.207031 179.996094 92.554688 180.144531 C 91.101562 180.296875 89.996094 180.195312 88.644531 180.34375 C 86.390625 180.695312 84.234375 181.5 81.976562 181.949219 C 80.476562 182.199219 78.921875 182.652344 77.71875 183.503906 C 77.265625 183.90625 77.117188 184.457031 77.066406 185.007812 C 77.015625 186.5625 77.46875 187.917969 77.367188 189.421875 C 77.367188 191.777344 77.816406 194.085938 78.070312 196.390625 C 78.519531 199.050781 78.71875 202.761719 82.277344 202.710938 C 84.683594 202.558594 87.140625 202.160156 89.597656 202.308594 C 91.351562 202.507812 93.054688 202.507812 94.757812 202.207031 C 98.46875 201.304688 102.328125 201.859375 106.085938 201.507812 C 110.996094 201.15625 115.960938 200.753906 120.871094 200.152344 C 124.28125 199.75 127.636719 199.449219 130.996094 198.949219 C 133.703125 198.898438 136.359375 198.347656 139.015625 198.046875 C 143.375 197.796875 147.988281 196.941406 152.296875 196.640625 C 159.464844 195.839844 166.632812 194.835938 173.898438 194.835938 C 178.660156 194.6875 183.371094 194.4375 188.082031 194.386719 C 192.542969 194.4375 196.953125 194.386719 201.363281 194.234375 C 206.878906 193.835938 212.390625 193.835938 217.953125 193.734375 C 225.871094 193.183594 233.792969 192.980469 241.710938 192.480469 C 247.875 192.179688 254.039062 191.226562 260.253906 191.277344 C 264.015625 191.226562 267.722656 191.226562 271.433594 191.078125 C 274.890625 191.175781 278.347656 191.226562 281.707031 190.625 C 283.109375 190.375 284.464844 190.523438 285.867188 190.324219 C 287.167969 190.074219 288.371094 189.621094 289.625 189.371094 C 290.425781 189.121094 291.128906 188.667969 291.882812 188.320312 C 292.53125 188.117188 292.933594 187.667969 293.234375 187.113281 C 293.886719 185.960938 294.035156 184.507812 294.386719 183.355469 C 294.886719 181.75 294.738281 180.09375 294.585938 178.488281 C 294.636719 176.984375 294.335938 175.582031 293.886719 174.226562 Z M 88.996094 200.453125 C 88.59375 200.855469 88.09375 200.953125 87.84375 201.003906 C 86.890625 201.207031 85.886719 201.304688 84.886719 201.304688 C 84.082031 201.304688 82.929688 201.207031 82.230469 200.304688 C 81.878906 199.902344 81.777344 199.402344 81.675781 199.050781 C 80.675781 195.390625 80.074219 191.578125 79.875 187.765625 C 79.824219 186.8125 79.824219 185.859375 80.324219 184.957031 C 80.875 184.054688 81.929688 183.453125 83.332031 183.152344 C 83.683594 183.101562 84.035156 183.054688 84.382812 183.003906 C 85.035156 182.953125 85.636719 182.851562 86.1875 182.652344 L 86.941406 182.402344 L 87.089844 183.203125 C 88.09375 188.066406 88.84375 192.933594 89.394531 198.597656 C 89.445312 199.050781 89.546875 199.851562 88.996094 200.453125 Z M 97.414062 200.253906 C 96.863281 200.605469 96.210938 200.652344 95.660156 200.703125 C 95.359375 200.753906 95.007812 200.753906 94.609375 200.753906 C 93.957031 200.753906 93.253906 200.652344 92.652344 200.253906 C 91.652344 199.601562 91.25 198.449219 91 197.34375 C 90.046875 193.785156 89.09375 190.074219 88.695312 186.3125 C 88.59375 185.308594 88.59375 184.257812 89.09375 183.355469 C 89.648438 182.453125 90.648438 181.898438 92.050781 181.648438 C 92.402344 181.597656 92.703125 181.550781 93.054688 181.5 C 93.707031 181.449219 94.308594 181.347656 94.859375 181.148438 C 95.460938 180.945312 96.210938 181.148438 96.664062 181.75 C 97.015625 182.199219 97.113281 182.753906 97.214844 183.152344 C 98.167969 187.464844 98.71875 191.878906 98.867188 196.292969 C 98.867188 197.644531 98.769531 199.449219 97.414062 200.253906 Z M 109.292969 198.898438 C 108.691406 199.652344 107.738281 199.902344 106.9375 200.101562 C 106.1875 200.253906 105.433594 200.402344 104.632812 200.554688 C 104.28125 200.605469 103.878906 200.652344 103.53125 200.652344 C 103.179688 200.652344 102.777344 200.605469 102.425781 200.453125 C 101.222656 199.953125 100.773438 198.699219 100.472656 197.496094 C 99.46875 193.433594 98.867188 189.320312 98.617188 185.160156 C 98.566406 184.308594 98.417969 181.699219 100.273438 180.746094 C 101.074219 180.34375 101.925781 180.394531 102.726562 180.496094 C 103.179688 180.546875 103.578125 180.546875 103.929688 180.546875 L 104.132812 180.546875 C 104.332031 180.597656 104.53125 180.597656 104.78125 180.597656 C 105.734375 180.644531 107.039062 180.695312 107.738281 181.800781 C 108.039062 182.25 108.089844 182.703125 108.191406 183.101562 C 108.941406 187.367188 109.496094 191.726562 109.84375 196.039062 C 109.894531 196.992188 109.945312 198.097656 109.292969 198.898438 Z M 119.015625 198.597656 C 117.964844 199.75 116.359375 199.851562 114.90625 199.851562 C 114.855469 199.851562 114.757812 199.851562 114.707031 199.851562 C 114.003906 199.851562 112.800781 199.800781 112.152344 198.898438 C 111.851562 198.449219 111.75 197.945312 111.648438 197.59375 C 110.796875 193.332031 110.144531 188.921875 109.695312 184.609375 C 109.59375 183.804688 109.496094 182.703125 109.945312 181.75 C 110.394531 180.796875 111.347656 180.09375 112.550781 179.792969 C 113.554688 179.542969 114.605469 179.59375 115.507812 179.644531 C 117.863281 179.742188 118.214844 182.402344 118.316406 183.304688 L 119.769531 194.085938 C 120.019531 195.136719 120.320312 197.246094 119.015625 198.597656 Z M 129.894531 196.691406 C 129.191406 197.894531 127.839844 198.496094 125.683594 198.597656 C 125.582031 198.597656 125.433594 198.597656 125.230469 198.597656 C 124.429688 198.597656 123.027344 198.449219 122.273438 197.394531 C 121.925781 196.894531 121.824219 196.292969 121.722656 195.890625 C 120.820312 191.425781 120.320312 186.8125 120.21875 182.25 C 120.21875 181.75 120.21875 181.046875 120.519531 180.445312 C 121.371094 178.640625 123.777344 178.789062 124.730469 178.839844 C 126.285156 178.488281 127.886719 179.191406 128.640625 180.496094 C 129.089844 181.246094 129.191406 182.152344 129.292969 182.851562 C 129.742188 186.414062 130.09375 189.972656 130.394531 193.535156 C 130.394531 194.636719 130.445312 195.691406 129.894531 196.691406 Z M 140.519531 196.191406 C 139.765625 196.941406 138.765625 196.992188 137.863281 197.042969 C 137.710938 197.042969 137.5625 197.042969 137.410156 197.09375 C 137.109375 197.144531 136.859375 197.144531 136.558594 197.195312 C 136.058594 197.246094 135.507812 197.34375 134.957031 197.34375 C 134.253906 197.34375 133.5 197.195312 132.898438 196.691406 C 131.898438 195.890625 131.648438 194.636719 131.496094 193.484375 C 130.996094 189.421875 130.59375 185.257812 130.34375 181.199219 C 130.292969 180.796875 130.292969 180.296875 130.445312 179.792969 C 130.695312 178.941406 131.445312 178.289062 132.449219 177.988281 C 133.152344 177.789062 133.902344 177.789062 134.554688 177.839844 C 135.957031 177.035156 137.914062 177.386719 138.964844 178.640625 C 139.917969 179.792969 140.066406 181.347656 140.21875 182.601562 L 141.269531 192.980469 C 141.320312 193.734375 141.472656 195.238281 140.519531 196.191406 Z M 151.746094 194.738281 C 151.246094 195.789062 150.042969 196.140625 149.1875 196.242188 C 148.238281 196.390625 147.285156 196.441406 146.332031 196.492188 C 146.28125 196.492188 146.28125 196.492188 146.230469 196.492188 C 145.429688 196.492188 144.578125 196.390625 143.925781 195.789062 C 143.273438 195.1875 143.125 194.335938 143.023438 193.785156 C 142.171875 189.269531 141.621094 184.609375 141.320312 179.996094 C 141.269531 179.394531 141.21875 178.140625 142.070312 177.4375 C 142.523438 177.085938 143.023438 176.933594 143.476562 176.835938 C 144.828125 176.585938 146.183594 176.433594 147.535156 176.382812 C 148.238281 176.332031 149.289062 176.632812 149.890625 177.539062 C 150.390625 178.289062 150.542969 179.140625 150.59375 179.84375 C 151.246094 184.257812 151.644531 188.71875 151.894531 193.183594 C 151.945312 193.582031 151.996094 194.183594 151.746094 194.738281 Z M 161.871094 193.835938 C 161.417969 194.285156 160.816406 194.4375 160.367188 194.535156 C 159.464844 194.785156 158.511719 194.9375 157.609375 194.9375 C 156.558594 194.9375 155.554688 194.6875 154.753906 193.933594 C 153.800781 193.03125 153.550781 191.726562 153.347656 190.726562 C 152.699219 187.316406 151.945312 183.503906 151.84375 179.644531 C 151.84375 179.089844 151.84375 178.488281 152.097656 177.886719 C 152.445312 177.035156 153.25 176.382812 154.25 176.082031 C 155.101562 175.832031 155.957031 175.832031 156.757812 175.832031 L 157.160156 175.832031 C 157.558594 175.832031 158.011719 175.832031 158.460938 175.832031 C 158.960938 175.78125 159.664062 175.78125 160.265625 176.183594 C 161.066406 176.734375 161.21875 177.738281 161.269531 178.289062 C 161.871094 182.652344 162.269531 187.066406 162.472656 191.476562 C 162.570312 192.027344 162.621094 193.082031 161.871094 193.835938 Z M 171.441406 193.433594 C 170.890625 193.785156 170.238281 193.835938 169.636719 193.835938 C 169.4375 193.835938 169.1875 193.835938 168.988281 193.835938 L 166.882812 193.734375 C 166.378906 193.683594 165.679688 193.683594 165.128906 193.183594 C 164.675781 192.832031 164.527344 192.328125 164.375 191.828125 C 163.023438 187.414062 162.421875 182.851562 162.519531 178.238281 C 162.519531 177.585938 162.570312 176.835938 163.074219 176.183594 C 163.773438 175.28125 164.925781 175.28125 165.828125 175.230469 C 166.128906 175.230469 166.429688 175.230469 166.679688 175.179688 L 167.03125 175.128906 C 168.085938 174.980469 169.386719 174.78125 170.390625 175.632812 C 171.441406 176.484375 171.59375 177.988281 171.691406 178.839844 L 172.695312 189.222656 C 172.847656 190.171875 173.046875 192.480469 171.441406 193.433594 Z M 183.871094 191.980469 C 183.320312 193.433594 181.816406 194.085938 180.664062 194.234375 C 180.464844 194.285156 180.214844 194.285156 179.964844 194.285156 C 178.960938 194.285156 177.957031 194.035156 177.054688 193.835938 C 176.605469 193.734375 176.054688 193.582031 175.601562 193.183594 C 175.101562 192.730469 174.902344 192.128906 174.800781 191.527344 C 173.847656 187.464844 173.347656 183.304688 173.347656 179.089844 C 173.347656 178.289062 173.398438 177.4375 173.75 176.683594 C 174.25 175.683594 175.300781 174.878906 176.65625 174.628906 C 177.65625 174.429688 178.710938 174.476562 179.664062 174.578125 C 179.914062 174.429688 180.214844 174.429688 180.515625 174.476562 C 181.015625 174.578125 181.515625 174.878906 181.816406 175.382812 C 182.21875 176.03125 182.269531 176.734375 182.320312 177.335938 C 182.621094 181.246094 183.222656 185.160156 183.972656 188.96875 C 184.023438 189.773438 184.273438 190.925781 183.871094 191.980469 Z M 194.097656 192.730469 C 193.445312 193.132812 192.742188 193.132812 192.140625 193.082031 C 191.941406 193.082031 191.742188 193.082031 191.589844 193.082031 C 191.339844 193.082031 191.089844 193.132812 190.839844 193.183594 C 190.488281 193.234375 190.085938 193.332031 189.6875 193.332031 C 189.4375 193.332031 189.183594 193.28125 188.984375 193.234375 C 187.230469 192.78125 186.578125 190.875 186.277344 189.523438 C 185.527344 186.464844 184.976562 183.355469 184.574219 180.246094 C 184.375 178.390625 184.273438 176.132812 185.828125 174.730469 C 187.078125 173.625 188.835938 173.625 190.488281 173.726562 C 191.492188 173.675781 192.644531 174.277344 193.246094 175.230469 C 193.796875 176.132812 193.894531 177.136719 193.996094 177.988281 L 195.199219 189.171875 C 195.25 189.921875 195.449219 191.878906 194.097656 192.730469 Z M 157.109375 165.851562 C 157.359375 165.804688 157.660156 165.753906 157.910156 165.652344 C 158.011719 165.601562 158.109375 165.550781 158.160156 165.503906 C 158.660156 165.050781 158.410156 165.351562 158.8125 164.648438 C 158.8125 164.601562 158.863281 164.5 158.863281 164.398438 C 158.863281 164.347656 158.863281 164.300781 158.863281 164.25 C 158.863281 163.09375 158.863281 163.746094 158.710938 162.792969 C 158.613281 162.792969 158.511719 162.84375 158.410156 162.84375 C 156.65625 163.394531 156.15625 163.394531 155.054688 164.148438 C 155.003906 164.199219 155.003906 164.199219 154.953125 164.25 C 154.902344 164.300781 154.902344 164.347656 154.851562 164.398438 C 154.804688 164.601562 154.652344 165.050781 154.550781 165.351562 C 155.453125 165.902344 156.507812 166.003906 157.109375 165.851562 Z M 269.777344 128.996094 C 270.53125 129.046875 271.179688 128.746094 271.683594 128.195312 C 271.683594 128.195312 271.683594 128.195312 271.734375 128.144531 C 272.082031 127.792969 272.382812 127.390625 272.183594 126.890625 C 272.035156 126.1875 271.132812 125.789062 271.28125 124.984375 C 270.078125 124.132812 268.675781 124.382812 267.773438 125.234375 C 267.273438 125.738281 266.921875 126.488281 266.921875 127.34375 C 267.472656 128.394531 268.675781 129.097656 269.777344 128.996094 Z M 297.894531 128.34375 C 297.996094 128.394531 298.046875 128.445312 298.144531 128.496094 C 298.195312 128.546875 298.246094 128.546875 298.347656 128.597656 C 298.648438 128.746094 298.949219 128.796875 299.25 128.796875 C 299.800781 128.796875 300.5 128.695312 300.800781 128.144531 C 301.003906 127.441406 301.101562 126.839844 300.953125 126.1875 C 300.902344 126.140625 300.800781 126.089844 300.703125 125.988281 C 300.550781 125.988281 300.402344 125.9375 300.300781 125.886719 C 299.949219 125.738281 299.648438 125.386719 299.5 124.984375 C 299.25 124.785156 299.046875 124.683594 298.796875 124.683594 C 297.996094 124.683594 297.195312 125.636719 296.894531 126.289062 C 296.742188 127.140625 297.195312 127.894531 297.894531 128.34375 Z M 285.066406 128.394531 C 285.867188 128.394531 286.46875 128.246094 286.917969 127.945312 C 287.019531 127.894531 287.121094 127.792969 287.21875 127.691406 C 288.222656 126.789062 287.921875 125.085938 286.269531 123.984375 C 285.566406 124.433594 284.914062 123.832031 284.210938 123.683594 C 283.511719 123.730469 282.660156 124.082031 282.058594 124.632812 C 281.605469 125.035156 281.304688 125.585938 281.304688 126.1875 C 281.757812 127.742188 283.511719 128.445312 285.066406 128.394531 Z M 285.066406 128.394531 " fill-opacity="1" fill-rule="nonzero"/><path fill="#2dcfad" d="M 85.886719 184.257812 C 85.4375 184.355469 84.984375 184.40625 84.535156 184.457031 C 84.183594 184.507812 83.882812 184.507812 83.582031 184.609375 C 82.878906 184.757812 81.929688 185.058594 81.527344 185.710938 C 81.226562 186.261719 81.226562 187.015625 81.226562 187.714844 C 81.375 191.425781 81.976562 195.089844 82.980469 198.699219 C 83.082031 199 83.132812 199.300781 83.28125 199.449219 C 83.53125 199.75 84.035156 199.902344 84.886719 199.902344 C 85.789062 199.902344 86.691406 199.800781 87.542969 199.652344 C 87.640625 199.652344 87.890625 199.601562 87.992188 199.5 C 88.09375 199.402344 88.042969 198.949219 88.042969 198.796875 C 87.492188 193.433594 86.789062 188.820312 85.886719 184.257812 Z M 95.8125 183.503906 C 95.710938 183.152344 95.660156 182.851562 95.511719 182.652344 C 95.410156 182.550781 95.359375 182.5 95.308594 182.5 C 94.609375 182.753906 93.90625 182.851562 93.207031 182.902344 C 92.90625 182.953125 92.605469 182.953125 92.304688 183.003906 C 91.601562 183.101562 90.699219 183.402344 90.296875 184.054688 C 89.949219 184.609375 89.996094 185.460938 90.046875 186.164062 C 90.398438 189.824219 91.402344 193.433594 92.304688 196.941406 C 92.554688 197.847656 92.804688 198.648438 93.40625 199.050781 C 93.90625 199.402344 94.660156 199.351562 95.511719 199.25 C 95.910156 199.199219 96.363281 199.148438 96.664062 199 C 97.214844 198.648438 97.464844 197.847656 97.414062 196.339844 C 97.316406 192.128906 96.765625 187.765625 95.8125 183.503906 Z M 106.835938 183.355469 C 106.789062 183.054688 106.738281 182.753906 106.585938 182.550781 C 106.285156 182.101562 105.636719 182.050781 104.734375 182 C 104.480469 182 104.28125 182 104.082031 181.949219 C 103.578125 182 103.128906 181.949219 102.628906 181.898438 C 102.328125 181.851562 102.078125 181.851562 101.824219 181.851562 C 101.476562 181.851562 101.222656 181.898438 100.921875 182 C 100.222656 182.351562 99.921875 183.402344 100.023438 185.058594 C 100.273438 189.121094 100.875 193.183594 101.824219 197.144531 C 102.027344 197.996094 102.328125 198.847656 102.929688 199.148438 C 103.328125 199.300781 103.832031 199.25 104.382812 199.148438 C 105.132812 199 105.886719 198.847656 106.585938 198.699219 C 107.1875 198.546875 107.839844 198.398438 108.140625 197.996094 C 108.492188 197.546875 108.492188 196.792969 108.390625 196.089844 C 108.089844 191.878906 107.539062 187.566406 106.835938 183.355469 Z M 117.0625 183.402344 C 116.863281 181.75 116.410156 180.996094 115.558594 180.945312 C 115.207031 180.945312 114.855469 180.898438 114.507812 180.898438 C 114.003906 180.898438 113.503906 180.945312 113.003906 181.046875 C 112.199219 181.246094 111.550781 181.699219 111.296875 182.25 C 110.996094 182.851562 111.097656 183.554688 111.148438 184.40625 C 111.597656 188.71875 112.25 193.03125 113.054688 197.292969 C 113.101562 197.546875 113.152344 197.894531 113.304688 198.046875 C 113.554688 198.398438 114.253906 198.449219 114.90625 198.449219 C 116.109375 198.449219 117.3125 198.347656 118.015625 197.644531 C 118.765625 196.84375 118.667969 195.4375 118.464844 194.183594 Z M 127.839844 183.003906 C 127.789062 182.402344 127.6875 181.699219 127.386719 181.148438 C 126.9375 180.34375 125.882812 179.945312 124.929688 180.195312 L 124.832031 180.246094 L 124.730469 180.246094 C 124.480469 180.246094 124.230469 180.195312 124.027344 180.195312 C 122.824219 180.195312 122.074219 180.496094 121.824219 181.046875 C 121.671875 181.347656 121.671875 181.800781 121.671875 182.25 C 121.773438 186.714844 122.273438 191.226562 123.125 195.640625 C 123.226562 196.039062 123.277344 196.390625 123.476562 196.640625 C 123.777344 197.09375 124.53125 197.292969 125.683594 197.246094 C 127.285156 197.195312 128.339844 196.792969 128.742188 196.039062 C 129.089844 195.4375 129.042969 194.636719 128.992188 193.683594 C 128.640625 190.074219 128.289062 186.511719 127.839844 183.003906 Z M 138.8125 182.703125 C 138.714844 181.648438 138.5625 180.34375 137.863281 179.492188 C 137.3125 178.789062 136.007812 178.488281 135.105469 179.089844 L 134.90625 179.242188 L 134.65625 179.242188 C 134.402344 179.242188 134.101562 179.191406 133.851562 179.191406 C 133.453125 179.191406 133.101562 179.242188 132.800781 179.34375 C 132.398438 179.441406 131.898438 179.742188 131.746094 180.195312 C 131.648438 180.445312 131.699219 180.796875 131.699219 181.097656 C 132 185.160156 132.347656 189.269531 132.851562 193.332031 C 132.949219 194.234375 133.101562 195.1875 133.703125 195.640625 C 134.355469 196.140625 135.304688 195.992188 136.308594 195.839844 C 136.609375 195.789062 136.910156 195.738281 137.210938 195.738281 C 137.359375 195.738281 137.5625 195.691406 137.710938 195.691406 C 138.414062 195.640625 139.066406 195.589844 139.464844 195.238281 C 139.917969 194.789062 139.867188 193.933594 139.765625 193.132812 Z M 149.238281 180.042969 C 149.140625 179.34375 149.039062 178.742188 148.738281 178.289062 C 148.488281 177.9375 147.988281 177.738281 147.585938 177.738281 C 146.28125 177.789062 145.03125 177.9375 143.726562 178.1875 C 143.425781 178.238281 143.125 178.339844 142.972656 178.441406 C 142.671875 178.691406 142.671875 179.292969 142.722656 179.894531 C 143.023438 184.457031 143.574219 189.019531 144.378906 193.484375 C 144.476562 193.984375 144.578125 194.484375 144.828125 194.738281 C 145.128906 195.039062 145.730469 195.089844 146.28125 195.089844 C 147.183594 195.089844 148.035156 194.988281 148.9375 194.886719 C 149.789062 194.738281 150.292969 194.535156 150.441406 194.183594 C 150.542969 193.933594 150.542969 193.582031 150.492188 193.28125 C 150.292969 188.871094 149.890625 184.40625 149.238281 180.042969 Z M 159.964844 178.441406 C 159.914062 177.9375 159.816406 177.488281 159.5625 177.285156 C 159.363281 177.136719 159.011719 177.136719 158.613281 177.1875 C 158.109375 177.238281 157.609375 177.1875 157.207031 177.1875 L 156.808594 177.1875 C 156.757812 177.1875 156.707031 177.1875 156.65625 177.1875 C 156.003906 177.1875 155.355469 177.1875 154.753906 177.386719 C 154.152344 177.585938 153.648438 177.9375 153.449219 178.390625 C 153.300781 178.742188 153.300781 179.140625 153.300781 179.59375 C 153.347656 183.304688 154.101562 187.113281 154.753906 190.425781 C 154.953125 191.425781 155.152344 192.328125 155.753906 192.882812 C 156.707031 193.835938 158.460938 193.535156 160.066406 193.132812 C 160.367188 193.03125 160.71875 192.980469 160.917969 192.78125 C 161.167969 192.53125 161.167969 191.980469 161.167969 191.425781 C 160.96875 187.164062 160.566406 182.753906 159.964844 178.441406 Z M 170.390625 178.992188 C 170.289062 178.089844 170.191406 177.1875 169.636719 176.734375 C 169.085938 176.285156 168.183594 176.433594 167.332031 176.535156 L 166.933594 176.585938 C 166.582031 176.632812 166.230469 176.632812 165.929688 176.632812 C 165.078125 176.632812 164.527344 176.683594 164.226562 177.035156 C 164.023438 177.285156 163.976562 177.789062 163.976562 178.238281 C 163.875 182.703125 164.476562 187.164062 165.777344 191.425781 C 165.878906 191.726562 165.980469 191.980469 166.128906 192.128906 C 166.332031 192.28125 166.679688 192.328125 167.03125 192.328125 L 169.136719 192.429688 C 169.789062 192.480469 170.339844 192.480469 170.742188 192.230469 C 171.34375 191.878906 171.542969 190.976562 171.390625 189.371094 Z M 180.816406 177.335938 C 180.765625 176.835938 180.714844 176.332031 180.515625 175.984375 C 180.414062 175.832031 180.265625 175.730469 180.164062 175.730469 L 179.964844 175.882812 L 179.664062 175.882812 C 179.109375 175.832031 178.558594 175.78125 178.007812 175.78125 C 177.605469 175.78125 177.207031 175.832031 176.804688 175.882812 C 175.902344 176.082031 175.203125 176.585938 174.902344 177.1875 C 174.648438 177.6875 174.648438 178.339844 174.648438 178.992188 C 174.648438 183.054688 175.152344 187.113281 176.105469 191.078125 C 176.203125 191.476562 176.304688 191.878906 176.503906 192.027344 C 176.707031 192.230469 177.054688 192.28125 177.355469 192.378906 C 178.359375 192.632812 179.410156 192.882812 180.464844 192.78125 C 181.464844 192.679688 182.269531 192.128906 182.570312 191.425781 C 182.820312 190.777344 182.667969 189.921875 182.519531 189.121094 C 181.71875 185.257812 181.164062 181.296875 180.816406 177.335938 Z M 193.796875 189.371094 L 192.59375 178.1875 C 192.492188 177.4375 192.441406 176.632812 192.042969 175.984375 C 191.742188 175.480469 191.039062 175.082031 190.539062 175.128906 L 190.4375 175.128906 C 190.039062 175.082031 189.636719 175.082031 189.234375 175.082031 C 188.28125 175.082031 187.378906 175.230469 186.730469 175.78125 C 185.675781 176.734375 185.726562 178.589844 185.925781 180.042969 C 186.328125 183.101562 186.878906 186.164062 187.582031 189.171875 C 187.980469 190.824219 188.535156 191.679688 189.285156 191.878906 C 189.6875 191.980469 190.085938 191.878906 190.589844 191.828125 C 190.890625 191.777344 191.191406 191.726562 191.492188 191.726562 C 191.691406 191.726562 191.941406 191.726562 192.140625 191.726562 C 192.644531 191.726562 193.042969 191.726562 193.34375 191.578125 C 193.746094 191.277344 193.894531 190.574219 193.796875 189.371094 Z M 193.796875 189.371094 " fill-opacity="1" fill-rule="nonzero"/></svg>