<svg xmlns="http://www.w3.org/2000/svg" xmlns:xlink="http://www.w3.org/1999/xlink" width="500" zoomAndPan="magnify" viewBox="0 0 375 374.999991" height="500" preserveAspectRatio="xMidYMid meet" version="1.0"><defs><clipPath id="3bb74bbf64"><path d="M 89.066406 80.929688 L 285.566406 80.929688 L 285.566406 293.929688 L 89.066406 293.929688 Z M 89.066406 80.929688 " clip-rule="nonzero"/></clipPath></defs><rect x="-37.5" width="450" fill="#ffffff" y="-37.499999" height="449.999989" fill-opacity="1"/><rect x="-37.5" width="450" fill="#ffffff" y="-37.499999" height="449.999989" fill-opacity="1"/><rect x="-37.5" width="450" fill="#535450" y="-37.499999" height="449.999989" fill-opacity="1"/><g clip-path="url(#3bb74bbf64)"><path fill="#1e1e1e" d="M 285.101562 148.480469 C 284.675781 151.589844 285.230469 154.695312 284.847656 157.800781 C 284.507812 161.804688 284.464844 165.847656 284.378906 169.847656 C 284.167969 173.890625 284.039062 177.980469 283.996094 182.023438 C 283.785156 185.085938 283.699219 188.195312 283.742188 191.257812 C 283.359375 198.582031 282.976562 205.902344 282.550781 213.179688 C 282.550781 219.351562 281.914062 225.523438 281.828125 231.738281 C 282.042969 235.996094 281.320312 240.210938 281.320312 244.46875 C 281.148438 247.703125 280.851562 250.894531 280.765625 254.128906 C 280.59375 256.769531 280.808594 259.40625 280.679688 262.003906 C 280.425781 265.835938 280.128906 269.707031 280.128906 273.539062 C 279.957031 275.242188 280.128906 276.859375 280.425781 278.519531 C 280.722656 280.734375 280.425781 282.945312 280.425781 285.117188 C 280.59375 286.605469 280.679688 288.265625 280.214844 289.714844 C 279.109375 291.503906 277.109375 293.121094 274.984375 293.246094 C 274.515625 293.246094 274.089844 293.203125 273.625 293.203125 C 273.324219 293.503906 272.859375 293.671875 272.476562 293.503906 C 271.710938 293.289062 270.902344 293.246094 270.09375 293.203125 C 268.691406 293.203125 267.289062 293.546875 265.886719 293.546875 C 264.058594 293.246094 262.269531 293.246094 260.441406 293.289062 C 258.316406 293.375 256.148438 293.714844 254.023438 293.246094 C 250.367188 293.078125 246.667969 293.121094 242.96875 292.820312 C 238.292969 292.523438 233.402344 293.035156 228.769531 292.777344 C 224.6875 292.820312 220.605469 292.480469 216.480469 292.777344 C 213.675781 292.777344 210.871094 292.949219 208.0625 293.078125 C 206.746094 293.121094 205.429688 292.949219 204.152344 292.90625 C 202.707031 292.949219 201.304688 293.203125 199.859375 293.121094 C 197.648438 292.90625 195.480469 292.695312 193.269531 292.949219 C 190.929688 293.121094 188.632812 292.863281 186.296875 292.820312 C 179.917969 293.078125 173.585938 293.164062 167.207031 292.90625 C 165.335938 292.949219 163.464844 293.121094 161.59375 293.078125 C 159.765625 293.035156 157.9375 292.820312 156.109375 292.820312 C 153.21875 293.203125 150.371094 293.078125 147.480469 292.820312 C 145.015625 292.90625 142.589844 293.078125 140.125 293.078125 C 137.828125 293.332031 135.53125 293.460938 133.238281 293.289062 C 130.6875 293.332031 128.433594 293.332031 125.96875 293.289062 C 124.097656 293.332031 122.226562 293.589844 120.355469 293.503906 C 118.953125 293.460938 117.589844 293.84375 116.1875 293.800781 C 113.933594 293.503906 111.683594 293.929688 109.386719 293.84375 C 106.367188 293.628906 103.347656 293.800781 100.414062 293.035156 C 99.863281 292.820312 99.265625 292.523438 98.84375 292.140625 C 98.671875 292.140625 98.460938 292.097656 98.246094 291.96875 C 95.058594 290.054688 95.652344 282.988281 95.398438 279.625 C 95.1875 275.753906 95.269531 271.878906 95.1875 268.007812 C 94.761719 259.917969 94.761719 251.789062 94.589844 243.699219 C 94.589844 237.445312 94.632812 231.144531 94.464844 224.886719 C 94.378906 218.585938 94.164062 212.328125 93.867188 206.074219 C 93.65625 202.15625 93.910156 198.199219 93.65625 194.28125 C 93.484375 192.195312 93.316406 190.152344 93.273438 188.066406 C 93.015625 179.679688 93.058594 171.339844 92.59375 162.953125 C 92.125 154.523438 92.082031 146.097656 91.53125 137.667969 C 91.148438 133.539062 90.636719 129.453125 90.507812 125.367188 C 90.296875 119.40625 90.167969 113.492188 90.082031 107.574219 C 90.042969 105.703125 89.957031 103.703125 89.914062 101.871094 C 89.660156 98.847656 89.148438 95.828125 89.234375 92.761719 C 89.445312 90.589844 89.105469 88.164062 90.425781 86.292969 C 90.382812 85.867188 90.59375 85.484375 90.933594 85.269531 C 91.148438 84.886719 91.488281 84.503906 91.785156 84.25 C 92.636719 83.523438 93.527344 82.632812 94.675781 82.632812 C 94.804688 82.632812 94.886719 82.589844 95.015625 82.589844 C 95.441406 82.25 96.035156 82.207031 96.460938 82.546875 C 98.160156 82.460938 99.863281 82.035156 101.605469 82.078125 C 102.710938 82.207031 103.773438 82.332031 104.878906 82.25 C 108.367188 81.78125 111.894531 82.164062 115.421875 82.121094 C 118.1875 82.121094 120.949219 81.78125 123.757812 81.992188 C 128.304688 82.035156 132.726562 81.480469 137.191406 81.523438 C 139.019531 81.609375 140.847656 81.480469 142.675781 81.355469 C 146.203125 81.269531 149.734375 81.3125 153.21875 81.523438 C 157.046875 81.480469 160.914062 81.3125 164.742188 81.097656 C 166.695312 80.929688 168.652344 80.972656 170.609375 81.054688 C 175.921875 81.097656 181.195312 81.609375 186.425781 81.652344 C 191.949219 81.863281 197.476562 82.460938 203.003906 82.375 C 211.507812 82.714844 219.757812 83.269531 228.214844 83.058594 C 231.109375 83.097656 233.957031 82.929688 236.847656 83.097656 C 240.25 83.140625 243.648438 82.84375 247.007812 82.757812 C 250.410156 82.503906 253.769531 82.503906 257.167969 82.503906 C 261.335938 82.289062 265.503906 82.417969 269.667969 82.632812 C 271.835938 82.757812 274.046875 82.417969 276.175781 82.972656 C 278.300781 83.355469 280.382812 84.292969 281.742188 85.992188 C 282.804688 87.398438 282.976562 89.144531 283.316406 90.804688 C 283.527344 91.101562 283.527344 91.441406 283.527344 91.613281 C 283.570312 92.890625 283.828125 94.167969 283.996094 95.402344 C 284.167969 96.253906 284.039062 97.105469 283.828125 97.914062 C 283.785156 99.1875 283.742188 100.507812 283.65625 101.785156 C 283.699219 103.019531 284.039062 104.253906 284.082031 105.488281 C 284.125 107.234375 284.125 108.980469 284.25 110.726562 C 284.292969 112.640625 284.632812 114.511719 284.507812 116.429688 C 284.25 119.109375 284.507812 121.75 284.675781 124.429688 C 285.015625 129.324219 285.058594 134.265625 285.058594 139.160156 C 285.230469 142.308594 285.527344 145.414062 285.101562 148.480469 Z M 285.101562 148.480469 " fill-opacity="1" fill-rule="nonzero"/></g><path fill="#bee8df" d="M 281.828125 95.402344 C 281.742188 94.761719 281.617188 94.125 281.53125 93.441406 C 281.445312 92.976562 281.402344 92.464844 281.402344 91.953125 C 281.402344 91.910156 281.359375 91.867188 281.359375 91.824219 C 281.277344 91.65625 281.234375 91.484375 281.234375 91.273438 C 281.191406 91.144531 281.191406 91.058594 281.148438 90.929688 C 281.148438 90.890625 281.105469 90.804688 281.105469 90.761719 C 281.0625 90.632812 281.0625 90.507812 281.019531 90.335938 C 281.019531 90.292969 281.019531 90.25 281.019531 90.207031 C 280.976562 90.039062 280.976562 89.867188 280.9375 89.695312 C 280.9375 89.613281 280.894531 89.484375 280.894531 89.398438 C 280.894531 89.3125 280.851562 89.230469 280.851562 89.144531 C 280.851562 89.058594 280.808594 88.929688 280.765625 88.847656 C 280.765625 88.761719 280.722656 88.71875 280.722656 88.632812 C 280.679688 88.546875 280.679688 88.460938 280.636719 88.378906 C 280.59375 88.292969 280.59375 88.207031 280.554688 88.121094 C 280.511719 88.035156 280.511719 87.996094 280.46875 87.910156 C 280.339844 87.652344 280.214844 87.398438 280.042969 87.1875 C 279.574219 86.675781 279.023438 86.292969 278.46875 85.953125 C 276.980469 85.144531 275.238281 84.84375 273.496094 84.757812 C 273.496094 84.757812 273.453125 84.757812 273.453125 84.757812 C 273.113281 84.757812 272.773438 84.757812 272.433594 84.757812 C 272.21875 84.757812 272.007812 84.757812 271.792969 84.757812 C 271.710938 84.757812 271.582031 84.757812 271.496094 84.757812 C 271.453125 84.757812 271.453125 84.757812 271.414062 84.757812 C 271.328125 84.757812 271.285156 84.757812 271.199219 84.757812 C 270.945312 84.757812 270.648438 84.757812 270.390625 84.757812 C 270.308594 84.757812 270.179688 84.757812 270.09375 84.757812 C 268.945312 84.71875 267.839844 84.589844 266.691406 84.632812 C 266.652344 84.632812 266.566406 84.632812 266.480469 84.632812 C 266.011719 84.632812 265.585938 84.589844 265.121094 84.589844 C 265.121094 84.589844 265.078125 84.589844 265.035156 84.589844 C 264.652344 84.589844 264.3125 84.546875 263.929688 84.546875 C 263.886719 84.546875 263.84375 84.546875 263.800781 84.546875 C 263.71875 84.546875 263.675781 84.546875 263.589844 84.546875 C 262.953125 84.546875 262.269531 84.546875 261.589844 84.546875 C 259.335938 84.546875 257.085938 84.589844 254.832031 84.632812 C 253.769531 84.632812 252.707031 84.675781 251.640625 84.675781 C 247.347656 84.84375 243.097656 85.140625 238.804688 85.226562 C 238.039062 85.226562 237.230469 85.226562 236.464844 85.226562 C 236.378906 85.226562 236.292969 85.226562 236.210938 85.226562 C 235.65625 85.226562 235.105469 85.183594 234.550781 85.183594 C 234.339844 85.183594 234.125 85.183594 233.914062 85.183594 C 232.382812 85.226562 230.808594 85.226562 229.28125 85.226562 C 229.195312 85.226562 229.109375 85.226562 229.066406 85.226562 C 228.089844 85.226562 227.070312 85.226562 226.089844 85.226562 C 225.664062 85.226562 225.199219 85.226562 224.730469 85.226562 C 219.542969 85.183594 214.355469 85.058594 209.210938 84.800781 C 207.722656 84.71875 206.277344 84.675781 204.789062 84.546875 C 203.769531 84.546875 202.75 84.503906 201.730469 84.503906 C 199.773438 84.460938 197.859375 84.375 195.90625 84.332031 C 193.226562 84.207031 190.546875 84.035156 187.871094 83.824219 C 184.042969 83.78125 180.214844 83.566406 176.433594 83.398438 C 174.433594 83.3125 172.394531 83.226562 170.394531 83.183594 C 169.546875 83.097656 168.695312 83.097656 167.84375 83.097656 C 164.953125 83.140625 162.0625 83.484375 159.128906 83.484375 C 157.429688 83.484375 155.683594 83.695312 153.984375 83.652344 C 153.984375 83.652344 153.941406 83.652344 153.941406 83.652344 C 153.941406 83.652344 153.898438 83.652344 153.898438 83.652344 C 153.898438 83.652344 153.898438 83.652344 153.855469 83.652344 C 153.816406 83.652344 153.730469 83.652344 153.6875 83.652344 C 153.433594 83.652344 153.175781 83.652344 152.921875 83.652344 C 150.839844 83.484375 148.796875 83.523438 146.714844 83.484375 C 146.375 83.484375 146.078125 83.484375 145.777344 83.441406 C 145.652344 83.441406 145.523438 83.441406 145.394531 83.441406 C 145.140625 83.441406 144.929688 83.441406 144.671875 83.441406 C 144.289062 83.441406 143.910156 83.441406 143.527344 83.484375 C 142.421875 83.523438 141.359375 83.566406 140.253906 83.609375 C 140.210938 83.609375 140.125 83.609375 140.082031 83.609375 C 140.039062 83.609375 139.996094 83.609375 139.953125 83.609375 C 139.488281 83.609375 139.019531 83.652344 138.550781 83.652344 C 138.550781 83.652344 138.507812 83.652344 138.507812 83.652344 C 138.382812 83.652344 138.296875 83.652344 138.167969 83.652344 C 137.828125 83.652344 137.53125 83.652344 137.191406 83.652344 C 137.191406 83.652344 137.191406 83.652344 137.148438 83.652344 C 137.105469 83.652344 137.105469 83.652344 137.0625 83.652344 C 137.105469 83.652344 137.105469 83.652344 137.148438 83.652344 C 137.105469 83.652344 137.019531 83.652344 136.976562 83.652344 C 136.894531 83.652344 136.851562 83.652344 136.808594 83.652344 C 136.425781 83.652344 136.042969 83.652344 135.660156 83.609375 C 131.621094 83.90625 127.667969 84.207031 123.671875 84.207031 C 123.671875 84.207031 123.671875 84.207031 123.628906 84.207031 C 123.585938 84.207031 123.5 84.207031 123.457031 84.207031 C 122.863281 84.207031 122.269531 84.207031 121.671875 84.164062 C 121.417969 84.164062 121.164062 84.164062 120.949219 84.164062 C 119.378906 84.207031 117.804688 84.292969 116.1875 84.332031 C 115.976562 84.332031 115.804688 84.332031 115.59375 84.332031 C 115.296875 84.332031 115.039062 84.332031 114.742188 84.332031 C 114.742188 84.332031 114.742188 84.332031 114.699219 84.332031 C 114.742188 84.375 114.742188 84.375 114.742188 84.375 C 114.316406 84.375 113.890625 84.375 113.511719 84.332031 C 112.445312 84.292969 111.382812 84.292969 110.277344 84.25 C 109.980469 84.25 109.683594 84.25 109.386719 84.25 C 109.089844 84.25 108.789062 84.25 108.492188 84.25 C 108.449219 84.25 108.40625 84.25 108.367188 84.25 C 107.941406 84.25 107.515625 84.25 107.089844 84.292969 C 107.046875 84.292969 107.003906 84.292969 106.960938 84.292969 C 106.496094 84.332031 106.070312 84.332031 105.601562 84.375 C 105.132812 84.417969 104.667969 84.460938 104.199219 84.503906 C 103.988281 84.503906 103.816406 84.503906 103.605469 84.503906 C 103.5625 84.503906 103.519531 84.503906 103.519531 84.503906 C 102.753906 84.503906 101.988281 84.375 101.222656 84.292969 C 101.09375 84.292969 100.96875 84.292969 100.839844 84.292969 C 100.457031 84.332031 100.074219 84.375 99.691406 84.417969 C 98.714844 84.546875 97.777344 84.675781 96.800781 84.757812 C 96.417969 84.800781 96.078125 84.84375 95.695312 84.800781 C 95.527344 84.800781 95.355469 84.800781 95.1875 84.800781 C 94.972656 84.800781 94.761719 84.84375 94.546875 84.84375 C 94.039062 85.183594 93.570312 85.566406 93.144531 85.992188 C 93.144531 86.035156 93.101562 86.035156 93.058594 86.078125 C 93.015625 86.164062 92.933594 86.25 92.847656 86.378906 C 92.804688 86.800781 92.507812 87.144531 92.253906 87.527344 C 92.253906 87.527344 92.253906 87.527344 92.253906 87.570312 C 92.210938 87.570312 92.210938 87.613281 92.167969 87.652344 C 91.910156 88.035156 91.785156 88.460938 91.699219 88.886719 C 91.699219 89.015625 91.65625 89.144531 91.65625 89.269531 C 91.53125 90.804688 91.402344 92.335938 91.402344 93.867188 C 91.402344 93.867188 91.402344 93.910156 91.402344 93.910156 C 91.402344 93.996094 91.402344 94.125 91.402344 94.210938 C 91.402344 94.636719 91.402344 95.058594 91.445312 95.445312 C 91.613281 96.890625 91.742188 98.378906 91.871094 99.828125 C 91.910156 99.828125 91.953125 99.828125 91.996094 99.828125 C 92.082031 99.828125 92.125 99.828125 92.210938 99.828125 C 93.527344 99.785156 94.84375 99.574219 96.164062 99.53125 C 96.207031 99.53125 96.25 99.53125 96.292969 99.53125 C 96.375 99.53125 96.417969 99.53125 96.503906 99.53125 C 96.84375 99.53125 97.140625 99.574219 97.4375 99.574219 C 98.246094 99.65625 99.097656 99.785156 99.90625 99.871094 C 100.585938 99.957031 101.265625 100 101.988281 100.039062 C 102.582031 100.039062 103.222656 100 103.816406 99.871094 C 108.832031 98.765625 113.933594 99.148438 119.035156 98.550781 C 124.480469 98.167969 129.921875 97.914062 135.363281 97.699219 C 135.40625 97.699219 135.492188 97.699219 135.53125 97.699219 C 138.296875 97.65625 141.058594 97.699219 143.824219 97.570312 C 144.121094 97.570312 144.417969 97.570312 144.714844 97.527344 C 144.757812 97.527344 144.84375 97.527344 144.886719 97.527344 C 144.929688 97.527344 144.929688 97.527344 144.972656 97.527344 C 145.015625 97.527344 145.015625 97.527344 145.054688 97.527344 C 145.054688 97.527344 145.054688 97.527344 145.097656 97.527344 C 145.992188 97.527344 146.925781 97.570312 147.820312 97.570312 C 154.75 97.699219 161.636719 97.871094 168.523438 98.339844 C 168.609375 98.339844 168.652344 98.339844 168.738281 98.339844 C 174.605469 98.421875 180.472656 98.976562 186.339844 98.976562 C 187.105469 98.976562 187.871094 99.019531 188.632812 99.019531 C 192.84375 99.105469 197.09375 99.230469 201.304688 99.230469 C 201.390625 99.230469 201.433594 99.230469 201.515625 99.230469 C 204.449219 99.316406 207.425781 99.65625 210.359375 99.699219 C 216.652344 99.914062 222.902344 99.828125 229.195312 99.957031 C 230.128906 100.039062 231.066406 100.082031 232 100.082031 C 232.128906 100.082031 232.253906 100.082031 232.425781 100.082031 C 234.382812 100.082031 236.292969 100 238.25 100 C 238.421875 100 238.546875 100 238.675781 100 C 238.71875 100 238.71875 100 238.761719 100 C 238.804688 100 238.886719 100 238.929688 100 C 239.441406 100 239.949219 100 240.460938 100 C 240.503906 100 240.546875 100 240.632812 100 C 240.886719 100 241.140625 100 241.4375 100.039062 C 242.585938 100.082031 243.691406 100.125 244.839844 100.125 C 245.394531 100.125 245.945312 100.125 246.5 100.125 C 246.582031 100.125 246.667969 100.125 246.753906 100.125 C 247.222656 100.125 247.6875 100.125 248.15625 100.082031 C 248.328125 100.082031 248.496094 100.082031 248.667969 100.082031 C 248.667969 100.082031 248.667969 100.082031 248.710938 100.082031 C 248.710938 100.082031 248.710938 100.082031 248.75 100.082031 C 248.792969 100.082031 248.835938 100.082031 248.878906 100.082031 C 248.921875 100.082031 249.007812 100.082031 249.050781 100.082031 C 250.75 100.082031 252.492188 100.253906 254.195312 100.382812 C 255.257812 100.464844 256.320312 100.507812 257.382812 100.507812 C 258.316406 100.507812 259.253906 100.296875 260.144531 100.210938 C 260.230469 100.210938 260.273438 100.210938 260.359375 100.210938 C 260.65625 100.167969 260.953125 100.167969 261.25 100.167969 C 261.292969 100.167969 261.335938 100.167969 261.378906 100.167969 C 261.378906 100.167969 261.378906 100.167969 261.421875 100.167969 C 261.464844 100.167969 261.507812 100.167969 261.589844 100.167969 C 261.632812 100.167969 261.675781 100.167969 261.71875 100.167969 C 262.824219 100.210938 263.929688 100.421875 265.035156 100.464844 C 265.203125 100.464844 265.332031 100.464844 265.503906 100.464844 C 265.503906 100.464844 265.546875 100.464844 265.546875 100.464844 C 266.054688 100.339844 266.308594 100.125 266.734375 99.957031 C 266.992188 99.871094 267.289062 99.828125 267.542969 99.785156 C 267.671875 99.785156 267.839844 99.785156 267.96875 99.742188 C 268.054688 99.742188 268.179688 99.742188 268.265625 99.742188 C 269.5 99.699219 270.773438 100.039062 271.878906 100.167969 C 271.964844 100.167969 272.050781 100.167969 272.136719 100.167969 C 272.304688 100.167969 272.519531 100.125 272.6875 100.125 C 273.027344 100.082031 273.367188 100.039062 273.75 100.039062 C 273.792969 100.039062 273.792969 100.039062 273.835938 100.039062 C 273.878906 100.039062 273.964844 100.039062 274.046875 100.039062 C 274.046875 100.039062 274.046875 100.039062 274.089844 100.039062 C 274.132812 100.039062 274.132812 100.039062 274.175781 100.039062 C 274.304688 100.039062 274.472656 100.039062 274.601562 100.039062 C 274.726562 100.039062 274.8125 100.039062 274.941406 100.082031 C 274.984375 100.082031 274.984375 100.082031 275.027344 100.082031 C 275.75 100.125 276.472656 100.296875 277.238281 100.339844 C 277.238281 100.339844 277.28125 100.339844 277.28125 100.339844 C 277.449219 100.339844 277.621094 100.339844 277.789062 100.296875 C 277.832031 100.296875 277.917969 100.296875 277.960938 100.296875 C 278.34375 100.296875 278.765625 100.253906 279.148438 100.253906 C 279.191406 100.253906 279.234375 100.253906 279.277344 100.253906 C 279.234375 100.253906 279.234375 100.253906 279.191406 100.253906 C 279.277344 100.253906 279.363281 100.253906 279.40625 100.253906 C 279.449219 100.253906 279.488281 100.253906 279.488281 100.253906 C 280.171875 100.253906 280.894531 100.296875 281.574219 100.464844 C 281.574219 100.421875 281.574219 100.382812 281.574219 100.382812 C 281.574219 99.871094 281.574219 99.316406 281.617188 98.804688 C 281.660156 97.914062 281.742188 97.0625 281.871094 96.210938 C 281.914062 95.996094 281.871094 95.699219 281.828125 95.402344 Z M 109.726562 96.378906 C 109.300781 96.378906 108.832031 96.082031 108.832031 95.527344 C 108.664062 93.101562 108.875 90.292969 107.472656 88.207031 C 107.261719 88.078125 106.921875 87.824219 106.621094 87.78125 C 106.539062 87.78125 106.453125 87.78125 106.367188 87.867188 C 105.816406 88.804688 105.558594 89.867188 105.261719 90.890625 C 104.964844 92.378906 104.878906 93.910156 104.710938 95.402344 C 104.667969 95.785156 104.539062 96.210938 104.199219 96.464844 C 104.027344 96.59375 103.859375 96.636719 103.6875 96.636719 C 103.007812 96.679688 102.625 95.871094 102.753906 95.144531 C 102.753906 93.398438 102.285156 91.65625 101.605469 90.039062 C 101.351562 89.570312 101.179688 89.058594 100.671875 88.886719 C 98.800781 89.015625 98.503906 91.613281 98.585938 93.058594 C 98.628906 94.082031 98.96875 95.058594 99.265625 96.039062 C 99.394531 96.507812 99.097656 97.019531 98.628906 97.105469 C 98.585938 97.105469 98.503906 97.144531 98.460938 97.144531 C 98.078125 97.1875 97.695312 96.890625 97.566406 96.507812 C 96.671875 93.867188 96.207031 90.507812 98.203125 88.25 C 98.96875 87.527344 99.691406 87.1875 100.371094 87.144531 C 101.859375 87.058594 103.007812 88.460938 103.605469 90.335938 C 104.027344 89.015625 104.285156 87.398438 105.347656 86.460938 C 105.730469 86.164062 106.15625 86.035156 106.621094 86.035156 C 107.601562 86.035156 108.621094 86.675781 109.214844 87.441406 C 110.617188 89.867188 110.535156 92.847656 110.703125 95.570312 C 110.617188 96.082031 110.152344 96.378906 109.726562 96.378906 Z M 118.355469 92.550781 C 118.355469 94.167969 117.082031 95.953125 115.507812 95.953125 C 115.125 95.953125 114.742188 95.871094 114.359375 95.65625 C 112.363281 94.933594 111.894531 92.632812 111.683594 90.761719 C 111.683594 90.164062 112.148438 89.910156 112.574219 89.910156 C 113 89.910156 113.46875 90.164062 113.46875 90.761719 C 113.765625 91.867188 113.765625 93.441406 114.957031 93.953125 C 115.167969 94.082031 115.339844 94.125 115.464844 94.125 C 116.527344 94.167969 116.65625 91.867188 116.527344 91.015625 C 116.484375 90.292969 116.144531 89.144531 117.167969 88.972656 C 117.167969 88.972656 117.207031 88.972656 117.207031 88.972656 C 118.824219 88.886719 118.3125 91.527344 118.355469 92.550781 Z M 128.179688 85.652344 C 128.179688 85.652344 128.21875 85.652344 128.179688 85.652344 C 128.21875 85.652344 128.21875 85.652344 128.261719 85.652344 C 128.730469 85.652344 129.15625 86.078125 129.15625 86.546875 C 129.15625 87.015625 128.773438 87.441406 128.261719 87.441406 C 128.261719 87.441406 128.21875 87.441406 128.21875 87.441406 C 128.21875 87.441406 128.21875 87.441406 128.179688 87.441406 C 127.710938 87.441406 127.285156 87.015625 127.285156 86.546875 C 127.328125 86.035156 127.710938 85.652344 128.179688 85.652344 Z M 124.988281 96.292969 C 124.902344 96.292969 124.820312 96.292969 124.691406 96.292969 C 124.222656 96.167969 123.925781 95.65625 124.097656 95.230469 C 124.179688 94.976562 124.265625 94.71875 124.222656 94.464844 C 122.351562 93.742188 118.996094 93.273438 119.589844 90.546875 C 120.101562 89.101562 121.332031 87.269531 122.992188 87.1875 C 123.246094 87.1875 123.457031 87.1875 123.714844 87.269531 C 124.988281 87.441406 124.988281 89.101562 123.796875 89.101562 C 123.714844 89.101562 123.628906 89.101562 123.542969 89.101562 C 123.414062 89.058594 123.289062 89.015625 123.160156 89.015625 C 122.269531 89.058594 121.585938 90.335938 121.332031 91.101562 C 121.929688 92.378906 123.925781 92.207031 125.03125 92.890625 C 126.308594 93.273438 126.390625 96.253906 124.988281 96.292969 Z M 128.859375 94.933594 C 128.519531 94.976562 128.136719 94.804688 127.964844 94.25 C 127.625 92.847656 127.496094 91.441406 127.242188 90.039062 C 127.242188 89.3125 127.625 89.058594 128.09375 89.058594 C 128.816406 89.015625 129.664062 89.78125 129.199219 90.675781 C 129.367188 91.570312 129.496094 92.589844 129.664062 93.398438 C 130.007812 94.25 129.453125 94.933594 128.859375 94.933594 Z M 135.066406 95.65625 C 134.769531 95.65625 134.46875 95.613281 134.214844 95.527344 C 129.664062 94.210938 130.730469 91.1875 133.066406 88.207031 C 133.195312 87.652344 133.578125 87.441406 133.917969 87.484375 C 134.511719 87.484375 135.191406 88.121094 134.9375 88.886719 C 134.726562 89.3125 134.257812 89.441406 134.042969 89.867188 C 133.578125 90.71875 132.941406 91.613281 132.855469 92.632812 C 132.855469 92.632812 132.855469 92.632812 132.855469 92.675781 C 132.855469 92.675781 132.855469 92.71875 132.855469 92.71875 C 133.28125 93.441406 134.300781 93.742188 135.109375 93.910156 C 135.191406 93.910156 135.234375 93.910156 135.320312 93.910156 C 135.789062 93.867188 136.253906 94.167969 136.296875 94.675781 C 136.339844 95.402344 135.703125 95.65625 135.066406 95.65625 Z M 250.75 94.890625 C 249.644531 96.125 247.945312 96.679688 246.328125 96.679688 C 246.242188 96.679688 246.15625 96.679688 246.074219 96.679688 C 244.371094 96.464844 242.628906 95.273438 242.375 93.441406 C 241.820312 91.824219 242.542969 90.25 243.734375 89.1875 C 244.457031 88.460938 245.433594 87.652344 246.5 87.738281 C 246.625 87.738281 246.753906 87.78125 246.882812 87.824219 C 246.882812 87.824219 246.921875 87.78125 246.921875 87.78125 C 247.222656 87.570312 247.5625 87.527344 247.902344 87.527344 C 248.710938 87.570312 249.558594 88.121094 250.195312 88.546875 C 251.046875 89.355469 251.8125 90.464844 251.8125 91.65625 C 251.726562 92.847656 251.472656 93.996094 250.75 94.890625 Z M 263.335938 93.742188 C 262.652344 95.359375 260.953125 96.378906 259.253906 96.421875 C 258.785156 96.421875 258.359375 96.378906 257.933594 96.253906 C 256.617188 95.742188 255.640625 94.464844 255.128906 93.1875 C 254.617188 90.847656 257 87.738281 259.335938 87.484375 C 259.636719 87.484375 260.019531 87.441406 260.359375 87.441406 C 260.785156 87.441406 261.207031 87.570312 261.464844 87.910156 C 264.015625 88.503906 264.480469 91.699219 263.335938 93.742188 Z M 275.28125 94.890625 C 274.472656 96.125 272.984375 96.679688 271.539062 96.679688 C 270.945312 96.679688 270.390625 96.59375 269.882812 96.421875 C 266.394531 95.101562 266.308594 90.761719 269.285156 88.761719 C 270.050781 88.25 271.113281 87.824219 272.09375 87.867188 C 272.601562 87.910156 273.113281 88.035156 273.539062 88.421875 C 276.132812 89.484375 276.683594 92.589844 275.28125 94.890625 Z M 143.355469 162.742188 C 143.609375 162.398438 143.910156 162.058594 144.164062 161.71875 C 144.757812 160.996094 145.398438 160.269531 146.078125 159.589844 C 148.457031 157.164062 151.136719 155.078125 153.644531 152.824219 C 154.496094 152.015625 155.34375 151.246094 156.238281 150.4375 C 157.046875 149.671875 157.894531 148.90625 158.703125 148.140625 C 158.703125 148.140625 158.746094 148.097656 158.746094 148.097656 C 159.597656 147.332031 160.445312 146.566406 161.296875 145.839844 C 161.296875 145.839844 161.339844 145.800781 161.339844 145.800781 C 162.191406 145.074219 163.082031 144.351562 163.933594 143.628906 C 163.933594 143.628906 163.976562 143.585938 163.976562 143.585938 C 165.25 142.691406 166.527344 141.839844 167.800781 140.988281 C 168.101562 140.777344 168.398438 140.605469 168.652344 140.394531 C 169.929688 139.542969 171.203125 138.691406 172.4375 137.839844 C 176.175781 135.625 180.300781 133.070312 184.808594 133.371094 C 185.191406 133.453125 185.53125 133.667969 185.914062 133.964844 C 186.804688 134.730469 187.613281 136.09375 187.953125 137.117188 C 187.996094 137.285156 188.082031 137.457031 188.082031 137.625 C 188.125 137.839844 188.210938 138.007812 188.253906 138.222656 C 188.507812 139.242188 188.632812 140.265625 188.71875 141.285156 C 188.761719 141.96875 188.847656 142.648438 188.890625 143.332031 C 189.058594 144.265625 189.65625 145.03125 189.996094 145.925781 C 190.503906 147.460938 190.421875 149.203125 191.3125 150.652344 C 192.800781 152.566406 194.714844 154.609375 197.351562 154.484375 C 198.710938 154.484375 199.945312 154.226562 201.132812 153.84375 C 204.238281 152.863281 206.917969 150.820312 209.550781 148.734375 C 211.636719 147.074219 213.675781 145.414062 215.886719 144.179688 C 216.949219 143.628906 218.011719 143.117188 219.117188 142.691406 C 220.777344 142.011719 222.519531 141.5 224.261719 141.246094 C 225.410156 141.074219 226.601562 140.988281 227.792969 141.074219 C 229.449219 141.117188 231.066406 141.246094 232.511719 142.097656 C 233.191406 142.480469 233.660156 143.117188 234.382812 143.414062 C 234.382812 142.179688 234.339844 140.902344 234.296875 139.628906 C 234.296875 139.160156 234.296875 138.691406 234.296875 138.222656 C 234.296875 137.925781 234.339844 137.625 234.339844 137.328125 C 234.382812 135.242188 234.210938 133.15625 234.125 131.070312 C 234.210938 128.730469 234.339844 126.429688 234.339844 124.089844 C 234.339844 123.75 234.382812 123.367188 234.382812 123.027344 C 234.464844 121.960938 234.550781 120.855469 234.59375 119.792969 C 234.59375 119.238281 234.636719 118.683594 234.59375 118.132812 C 234.59375 117.960938 234.550781 117.789062 234.550781 117.621094 C 234.425781 116.34375 234.125 115.066406 234.167969 113.832031 C 233.957031 113.789062 233.699219 113.789062 233.488281 113.746094 C 233.488281 113.746094 233.488281 113.746094 233.445312 113.746094 C 233.320312 113.703125 233.191406 113.703125 233.0625 113.703125 C 232.171875 113.578125 231.277344 113.535156 230.34375 113.535156 C 229.28125 113.535156 228.257812 113.578125 227.238281 113.578125 C 226.8125 113.535156 226.429688 113.492188 226.046875 113.492188 C 225.28125 113.449219 224.558594 113.363281 223.796875 113.363281 C 223.03125 113.320312 222.308594 113.277344 221.5 113.277344 C 220.308594 113.234375 219.074219 113.195312 217.886719 113.152344 C 214.355469 113.023438 210.828125 112.894531 207.300781 112.894531 C 206.109375 112.894531 204.917969 112.894531 203.726562 112.9375 C 203.089844 112.9375 202.410156 112.9375 201.773438 112.9375 C 198.625 112.9375 195.4375 112.980469 192.292969 113.234375 C 191.527344 113.320312 190.761719 113.363281 189.996094 113.449219 C 186.976562 113.660156 183.957031 113.535156 180.9375 113.535156 C 179.707031 113.621094 178.472656 113.703125 177.242188 113.746094 C 174.222656 113.917969 171.246094 114.003906 168.226562 114.085938 C 167.378906 114.128906 166.570312 114.128906 165.71875 114.128906 C 164.570312 114.128906 163.421875 114.128906 162.316406 114.128906 C 160.445312 114.171875 158.578125 114.214844 156.707031 114.34375 C 155.984375 114.386719 155.300781 114.429688 154.578125 114.511719 C 154.113281 114.554688 153.644531 114.554688 153.175781 114.597656 C 151.988281 114.640625 150.839844 114.683594 149.648438 114.726562 C 147.988281 114.769531 146.332031 114.855469 144.714844 115.023438 C 143.609375 115.109375 142.546875 115.277344 141.484375 115.363281 C 141.316406 115.363281 141.101562 115.40625 140.890625 115.40625 C 140.933594 115.789062 140.976562 116.171875 141.015625 116.554688 C 141.058594 117.066406 141.058594 117.535156 141.101562 118.046875 C 141.144531 119.664062 141.015625 121.238281 141.015625 122.855469 C 141.015625 123.707031 141.058594 124.601562 141.1875 125.453125 C 141.316406 127.792969 140.804688 130.09375 140.933594 132.433594 C 141.058594 133.625 141.144531 134.816406 141.230469 136.007812 C 141.441406 139.074219 141.527344 142.136719 141.65625 145.203125 C 141.738281 146.480469 141.78125 147.800781 141.910156 149.078125 C 141.953125 149.542969 141.996094 150.054688 142.039062 150.523438 C 142.207031 153.164062 142.082031 155.757812 142.082031 158.398438 C 142.082031 158.824219 142.082031 159.292969 142.082031 159.71875 C 142.082031 159.929688 142.121094 160.144531 142.121094 160.355469 C 142.207031 161.675781 142.25 162.953125 142.25 164.273438 C 142.632812 163.71875 143.015625 163.207031 143.226562 162.910156 C 143.3125 162.824219 143.355469 162.78125 143.355469 162.742188 Z M 203.558594 127.367188 C 203.601562 127.242188 203.683594 127.113281 203.769531 126.984375 C 204.152344 126.347656 204.535156 125.664062 204.960938 125.027344 C 205.511719 124.21875 206.109375 123.496094 206.789062 122.855469 C 207.128906 122.558594 207.46875 122.261719 207.851562 121.960938 C 210.019531 120.515625 212.910156 120.175781 215.078125 121.835938 C 215.121094 121.878906 215.164062 121.878906 215.25 121.917969 C 215.460938 122.046875 215.71875 122.132812 215.800781 122.34375 C 215.972656 122.300781 216.140625 122.386719 216.3125 122.472656 C 216.480469 122.601562 216.652344 122.726562 216.824219 122.855469 C 216.949219 122.941406 217.035156 123.070312 217.164062 123.152344 C 217.503906 123.496094 217.757812 123.921875 217.96875 124.347656 C 218.351562 125.113281 218.566406 125.964844 218.863281 126.773438 C 218.90625 126.898438 218.949219 126.984375 218.992188 127.070312 C 219.457031 128.261719 219.246094 129.539062 218.777344 130.6875 C 218.691406 130.902344 218.609375 131.070312 218.523438 131.285156 C 218.480469 131.371094 218.4375 131.453125 218.394531 131.539062 C 218.351562 131.582031 218.351562 131.625 218.308594 131.667969 C 217.929688 132.304688 217.503906 132.902344 217.078125 133.453125 C 216.3125 134.179688 215.335938 134.648438 214.398438 135.03125 C 213.207031 135.5 211.890625 135.964844 210.613281 135.882812 C 209.851562 135.753906 209.042969 135.582031 208.234375 135.285156 C 207.339844 134.945312 206.449219 134.476562 205.726562 133.878906 C 205.386719 133.582031 205.046875 133.285156 204.789062 132.945312 C 204.746094 132.902344 204.707031 132.859375 204.664062 132.816406 C 204.492188 132.605469 204.367188 132.433594 204.238281 132.179688 C 204.195312 132.09375 204.152344 132.007812 204.109375 131.921875 C 204.066406 131.792969 204.023438 131.710938 203.984375 131.582031 C 203.8125 131.027344 203.726562 130.433594 203.558594 129.878906 C 203.515625 129.710938 203.472656 129.582031 203.429688 129.410156 C 203.21875 128.6875 203.261719 128.007812 203.558594 127.367188 Z M 233.617188 188.238281 C 233.617188 187.726562 233.617188 187.171875 233.617188 186.664062 C 233.617188 185.003906 233.617188 183.386719 233.574219 181.726562 C 233.53125 180.066406 233.445312 178.40625 233.359375 176.785156 C 233.320312 176.363281 233.320312 175.9375 233.277344 175.511719 C 233.191406 175.511719 233.148438 175.550781 233.0625 175.550781 C 233.019531 175.550781 232.9375 175.550781 232.894531 175.59375 C 232 175.722656 231.109375 175.894531 230.214844 176.0625 C 229.621094 176.191406 229.023438 176.277344 228.429688 176.402344 C 227.578125 176.574219 226.730469 176.703125 225.878906 176.871094 C 225.625 176.914062 225.410156 176.957031 225.199219 177.042969 C 224.433594 177.296875 223.667969 177.597656 222.988281 177.980469 C 221.242188 179 219.375 179.894531 217.332031 180.703125 C 217.332031 180.703125 217.332031 180.703125 217.289062 180.703125 C 216.949219 180.875 216.609375 181 216.226562 181.128906 C 216.183594 181.171875 216.140625 181.171875 216.058594 181.171875 C 215.757812 181.300781 215.503906 181.382812 215.207031 181.511719 C 215.121094 181.554688 215.035156 181.554688 214.953125 181.597656 C 214.695312 181.683594 214.398438 181.765625 214.144531 181.851562 C 214.058594 181.894531 213.972656 181.894531 213.890625 181.9375 C 213.546875 182.066406 213.207031 182.148438 212.824219 182.234375 C 210.488281 182.703125 208.023438 182.789062 205.683594 182.277344 C 204.28125 181.9375 202.960938 181.382812 201.601562 180.914062 C 200.539062 180.53125 199.519531 180.234375 198.414062 180.105469 C 197.476562 180.023438 196.5 180.066406 195.566406 180.191406 C 193.820312 180.40625 192.121094 180.914062 190.589844 181.765625 C 189.996094 182.066406 189.484375 182.449219 188.933594 182.832031 C 188.675781 183 188.378906 183.214844 188.125 183.386719 C 187.910156 183.511719 187.699219 183.640625 187.488281 183.769531 C 187.105469 183.9375 186.679688 184.109375 186.253906 184.277344 C 184.808594 184.832031 183.234375 185.257812 181.746094 184.746094 C 179.664062 183.980469 177.921875 182.660156 176.21875 181.300781 C 175.796875 181 175.414062 180.746094 174.988281 180.449219 C 174.945312 180.40625 174.859375 180.363281 174.816406 180.320312 C 174.433594 180.023438 174.007812 179.722656 173.625 179.425781 C 173.203125 179.085938 172.777344 178.789062 172.394531 178.40625 C 171.585938 177.808594 170.863281 177.085938 170.183594 176.445312 C 168.949219 175.296875 167.84375 174.191406 166.398438 173.550781 C 166.355469 173.550781 166.355469 173.507812 166.3125 173.507812 C 166.144531 173.425781 165.972656 173.339844 165.847656 173.253906 C 165.675781 173.167969 165.550781 173.125 165.378906 173.042969 C 163.71875 172.445312 161.976562 173.382812 160.445312 173.933594 C 159 174.574219 157.640625 175.382812 156.40625 176.320312 C 155.429688 177 154.539062 177.765625 153.601562 178.574219 C 151.050781 180.574219 148.753906 182.917969 146.542969 185.300781 C 146.078125 185.855469 145.566406 186.363281 145.054688 186.875 C 144.375 187.554688 143.695312 188.28125 143.144531 189.089844 C 143.1875 190.066406 143.226562 191.003906 143.269531 191.898438 C 143.824219 194.070312 143.824219 196.28125 144.164062 198.496094 C 144.292969 198.582031 144.417969 198.707031 144.546875 198.835938 C 148.925781 197.984375 153.390625 198.539062 157.8125 198.28125 C 161.167969 198.113281 164.527344 197.6875 167.886719 197.601562 C 168.824219 197.558594 169.800781 197.558594 170.734375 197.601562 C 173.457031 197.390625 176.175781 197.304688 178.941406 197.21875 C 180.386719 197.175781 181.789062 197.175781 183.234375 197.132812 C 183.492188 197.132812 183.746094 197.089844 183.957031 197.089844 C 185.660156 196.964844 187.359375 196.878906 189.058594 196.835938 C 190.121094 196.792969 191.144531 196.792969 192.207031 196.835938 C 195.605469 196.835938 199.050781 196.707031 202.453125 196.878906 C 205.726562 197.046875 208.957031 196.707031 212.1875 196.664062 C 213.972656 196.792969 215.757812 196.75 217.460938 196.621094 C 218.269531 196.582031 219.074219 196.496094 219.882812 196.453125 C 222.007812 196.28125 224.136719 196.070312 226.304688 196.027344 C 226.6875 196.027344 227.070312 196.070312 227.453125 196.113281 C 227.453125 196.113281 227.453125 196.113281 227.492188 196.113281 C 227.875 196.15625 228.257812 196.238281 228.597656 196.238281 C 229.238281 196.15625 229.832031 196.027344 230.511719 196.070312 C 231.789062 196.195312 233.148438 196.28125 234.382812 196.027344 C 234.425781 196.027344 234.464844 196.027344 234.507812 195.984375 C 234.550781 195.984375 234.59375 195.941406 234.679688 195.941406 C 234.507812 193.21875 234 190.75 233.617188 188.238281 Z M 233.617188 188.238281 " fill-opacity="1" fill-rule="nonzero"/><path fill="#ff7b66" d="M 232.382812 150.738281 C 229.023438 152.480469 226.175781 154.824219 223.921875 157.71875 C 222.605469 159.292969 221.285156 160.230469 219.882812 160.613281 C 219.839844 160.613281 219.839844 160.613281 219.796875 160.613281 C 217.121094 161.039062 214.441406 160.484375 211.933594 159.804688 C 211.890625 159.804688 211.847656 159.761719 211.804688 159.761719 C 209.976562 158.996094 208.828125 159.378906 206.917969 160.015625 L 206.277344 160.230469 C 204.960938 160.613281 203.8125 161.082031 202.878906 161.675781 C 201.390625 162.65625 199.902344 163.71875 198.457031 164.742188 C 196.203125 166.359375 193.90625 168.0625 191.398438 169.421875 C 188.378906 171.296875 184.722656 173.167969 180.726562 172.699219 C 179.835938 172.65625 178.984375 172.273438 178.21875 171.933594 C 176.050781 171 174.265625 169.933594 172.777344 168.699219 C 170.734375 167.507812 168.824219 166.570312 166.910156 165.761719 C 161.550781 163.292969 158.957031 163.675781 153.472656 165.167969 C 151.09375 165.847656 148.628906 166.570312 146.203125 167.507812 C 145.226562 167.933594 144.292969 168.359375 143.355469 168.828125 L 142.589844 169.210938 C 142.464844 169.253906 142.335938 169.296875 142.207031 169.296875 C 142.207031 169.59375 142.207031 169.890625 142.207031 170.1875 C 142.378906 172.957031 142.464844 175.722656 142.675781 178.488281 C 142.929688 180.574219 142.761719 182.703125 142.761719 184.789062 C 142.761719 184.875 142.761719 184.960938 142.804688 185.042969 C 143.015625 184.832031 143.1875 184.660156 143.226562 184.578125 C 143.269531 184.535156 143.269531 184.535156 143.3125 184.492188 C 146.460938 181.128906 149.394531 178.363281 152.367188 176.0625 C 156.066406 172.957031 159.765625 171.125 163.378906 170.613281 C 164.867188 170.53125 166.144531 171.125 167.164062 171.722656 C 168.863281 172.53125 170.140625 173.765625 171.414062 174.957031 C 172.140625 175.636719 172.777344 176.277344 173.5 176.828125 C 173.5 176.828125 173.542969 176.871094 173.542969 176.871094 C 174.519531 177.765625 175.582031 178.488281 176.6875 179.257812 C 176.984375 179.46875 177.28125 179.679688 177.582031 179.894531 L 178.003906 180.234375 C 179.027344 181.042969 180.046875 181.851562 181.195312 182.277344 C 181.238281 182.277344 181.238281 182.320312 181.28125 182.320312 C 182.171875 182.789062 182.9375 182.960938 183.660156 182.789062 C 184.679688 182.535156 185.785156 182.277344 186.765625 181.765625 C 187.1875 181.511719 187.613281 181.214844 188.082031 180.914062 C 188.71875 180.449219 189.398438 180.023438 190.164062 179.640625 C 193.609375 177.980469 197.351562 177.554688 200.625 178.363281 C 201.644531 178.617188 202.664062 179 203.601562 179.339844 C 204.578125 179.679688 205.511719 180.023438 206.535156 180.277344 C 208.828125 180.746094 211.339844 180.703125 213.71875 180.066406 C 216.863281 179.042969 219.628906 177.808594 222.09375 176.402344 C 224.347656 175.128906 226.855469 174.742188 229.320312 174.402344 L 229.40625 174.402344 C 229.789062 174.316406 230.214844 174.234375 230.640625 174.148438 C 231.492188 173.976562 232.339844 173.808594 233.191406 173.679688 C 233.0625 170.65625 233.105469 167.59375 233.277344 164.570312 C 233.277344 164.527344 233.277344 164.527344 233.277344 164.484375 C 233.320312 163.507812 233.402344 162.484375 233.53125 161.507812 C 233.53125 161.464844 233.53125 161.421875 233.53125 161.378906 C 233.488281 160.953125 233.488281 160.527344 233.488281 160.101562 C 233.488281 159.929688 233.488281 159.761719 233.488281 159.632812 C 233.488281 159.335938 233.488281 158.996094 233.488281 158.695312 C 233.488281 158.484375 233.488281 158.3125 233.488281 158.101562 C 233.488281 157.84375 233.488281 157.546875 233.488281 157.292969 C 233.488281 157.078125 233.488281 156.824219 233.488281 156.609375 C 233.488281 156.355469 233.488281 156.144531 233.53125 155.886719 C 233.53125 155.632812 233.574219 155.375 233.574219 155.121094 C 233.574219 154.90625 233.617188 154.695312 233.617188 154.523438 C 233.617188 154.226562 233.660156 153.929688 233.660156 153.632812 C 233.660156 153.460938 233.660156 153.332031 233.699219 153.164062 C 233.742188 152.78125 233.742188 152.4375 233.785156 152.054688 C 233.785156 152.015625 233.785156 151.929688 233.785156 151.886719 C 233.828125 151.460938 233.871094 151.035156 233.914062 150.609375 C 233.402344 150.480469 232.851562 150.480469 232.382812 150.738281 Z M 199.433594 239.953125 C 199.347656 239.785156 199.261719 239.65625 199.222656 239.527344 C 199.09375 239.359375 199.007812 239.1875 198.882812 239.019531 C 198.710938 238.761719 198.5 238.507812 198.328125 238.292969 C 198.03125 237.785156 197.777344 237.316406 197.308594 236.933594 C 196.457031 236.378906 195.566406 235.953125 194.714844 235.398438 C 194.5 235.273438 194.246094 235.101562 194.035156 234.933594 C 193.226562 234.378906 192.375 233.953125 191.484375 233.613281 C 191.398438 233.570312 191.3125 233.570312 191.226562 233.527344 C 191.058594 233.484375 190.886719 233.484375 190.675781 233.441406 C 190.292969 233.398438 189.953125 233.355469 189.570312 233.316406 C 189.441406 233.316406 189.316406 233.316406 189.1875 233.273438 C 188.632812 233.230469 188.125 233.1875 187.570312 233.1875 C 187.105469 233.144531 186.636719 233.101562 186.167969 233.058594 C 186.167969 233.058594 186.167969 233.058594 186.125 233.058594 C 185.359375 233.058594 184.597656 233.144531 183.871094 233.355469 C 182.257812 233.910156 180.8125 234.804688 179.578125 235.953125 C 179.070312 236.378906 178.644531 236.890625 178.21875 237.359375 C 176.859375 238.976562 175.796875 240.890625 175.242188 242.890625 C 174.902344 244.550781 174.945312 245.914062 175.074219 247.53125 C 175.074219 247.617188 175.074219 247.703125 175.113281 247.785156 C 175.113281 248.808594 175.539062 249.703125 176.050781 250.554688 C 176.433594 251.066406 176.816406 251.53125 177.28125 251.957031 C 178.855469 253.492188 180.8125 254.640625 182.851562 255.492188 C 183.957031 256.085938 185.105469 256.554688 186.382812 256.386719 C 186.722656 256.34375 187.105469 256.34375 187.445312 256.300781 C 188.71875 256.214844 190.039062 256.085938 191.226562 255.578125 C 191.824219 255.449219 192.375 255.277344 192.929688 255.023438 C 193.992188 254.597656 195.011719 254 196.03125 253.449219 C 197.648438 252.128906 198.964844 250.554688 199.730469 248.597656 C 200.027344 247.488281 200.285156 246.425781 200.367188 245.316406 C 200.410156 244.890625 200.410156 244.46875 200.367188 244 C 200.328125 242.59375 200.113281 241.316406 199.433594 239.953125 Z M 185.488281 249.53125 C 185.277344 249.53125 185.105469 249.488281 184.9375 249.40625 C 184.9375 249.40625 184.894531 249.363281 184.894531 249.363281 C 184.511719 249.105469 184.382812 248.597656 184.339844 248.085938 C 184.339844 247.871094 184.296875 247.660156 184.296875 247.488281 C 184.214844 246.550781 184.171875 245.617188 184.128906 244.679688 C 184.085938 243.699219 184.085938 242.765625 184.042969 241.785156 C 184.042969 241.1875 184 240.550781 184 239.953125 C 183.914062 238.550781 185.359375 238.253906 185.957031 238.933594 C 185.957031 238.933594 185.957031 238.976562 186 238.976562 C 186.042969 239.019531 186.082031 239.0625 186.125 239.144531 C 186.253906 239.359375 186.296875 239.65625 186.253906 239.996094 C 186.296875 240.339844 186.296875 240.679688 186.296875 241.0625 C 186.339844 241.699219 186.339844 242.339844 186.339844 242.933594 C 186.339844 243.914062 186.339844 244.894531 186.464844 245.871094 C 186.550781 246.722656 186.550781 247.617188 186.636719 248.511719 C 186.636719 249.0625 186.082031 249.574219 185.488281 249.53125 Z M 192.121094 249.660156 C 191.738281 249.957031 191.144531 250 190.761719 249.660156 C 190.675781 249.574219 190.546875 249.445312 190.503906 249.320312 C 190.460938 249.148438 190.378906 249.019531 190.335938 248.851562 C 190.335938 248.808594 190.292969 248.765625 190.292969 248.722656 C 190.25 248.597656 190.207031 248.46875 190.207031 248.339844 C 190.207031 248.296875 190.207031 248.296875 190.164062 248.253906 C 190.121094 247.914062 190.082031 247.574219 190.039062 247.191406 C 190.039062 247.019531 190.039062 246.894531 190.039062 246.722656 C 190.039062 246.511719 190.039062 246.296875 190.039062 246.085938 C 189.996094 245.742188 189.953125 245.445312 189.953125 245.105469 C 189.910156 244.382812 189.953125 243.65625 189.996094 242.933594 C 189.996094 242.59375 190.039062 242.210938 189.996094 241.871094 C 189.996094 241.828125 189.996094 241.828125 189.996094 241.785156 C 189.953125 241.402344 189.910156 240.933594 189.910156 240.507812 C 189.910156 240.378906 189.910156 240.210938 189.953125 240.082031 C 190.039062 239.65625 190.25 239.316406 190.761719 239.1875 C 190.804688 239.1875 190.886719 239.1875 190.929688 239.144531 C 191.101562 239.144531 191.269531 239.144531 191.441406 239.230469 C 192.078125 239.488281 192.503906 240.253906 192.121094 240.933594 C 192.207031 241.574219 192.207031 242.167969 192.164062 242.808594 C 192.121094 243.871094 192.035156 244.933594 192.207031 245.957031 C 192.207031 246.765625 192.164062 247.574219 192.417969 248.339844 C 192.503906 248.511719 192.546875 248.679688 192.546875 248.808594 C 192.589844 249.148438 192.375 249.488281 192.121094 249.660156 Z M 230.46875 209.050781 C 229.40625 208.96875 228.9375 209.816406 228.683594 210.667969 C 228.683594 210.753906 228.640625 210.839844 228.640625 210.925781 C 228.597656 211.351562 228.429688 211.691406 228.089844 211.945312 C 227.367188 212.5 226.304688 212.074219 226.046875 211.222656 C 225.453125 210.585938 224.898438 209.476562 223.964844 209.351562 C 222.476562 209.691406 222.265625 211.863281 223.242188 212.882812 C 224.261719 213.988281 225.539062 215.523438 227.195312 215.4375 C 227.535156 215.394531 227.875 215.480469 228.132812 215.691406 C 229.363281 214.839844 230.386719 213.734375 230.851562 212.285156 C 231.109375 211.648438 231.53125 210.96875 231.53125 210.285156 C 231.234375 209.859375 231.023438 209.179688 230.46875 209.050781 Z M 230.46875 209.050781 " fill-opacity="1" fill-rule="nonzero"/><path fill="#ffe5b3" d="M 125.753906 277.285156 C 125.371094 277.199219 125.03125 277.074219 124.988281 276.648438 L 124.777344 276.476562 C 122.734375 276.945312 123.332031 280.308594 125.285156 280.519531 C 126.390625 280.390625 126.859375 278.816406 126.476562 277.839844 Z M 148.328125 225.484375 C 147.605469 226.121094 147.183594 227.015625 146.84375 227.953125 C 147.054688 227.910156 147.226562 227.867188 147.4375 227.867188 C 147.90625 227.867188 148.839844 227.566406 149.605469 227.566406 C 149.605469 227.484375 149.5625 227.441406 149.5625 227.355469 C 149.308594 226.675781 149.054688 225.824219 148.328125 225.484375 Z M 155.601562 215.691406 C 156.789062 215.480469 157.472656 214.332031 157.894531 213.265625 C 157.726562 212.796875 157.472656 212.371094 157.046875 212.160156 C 156.707031 212.542969 156.152344 212.753906 155.644531 212.585938 C 155.644531 212.585938 155.644531 212.585938 155.601562 212.585938 C 155.003906 213.054688 154.664062 213.777344 154.367188 214.5 C 154.578125 215.011719 155.003906 215.566406 155.601562 215.691406 Z M 282.976562 141.285156 C 282.976562 141.203125 282.976562 141.117188 282.976562 141.03125 C 282.890625 138.691406 282.890625 136.265625 282.890625 133.921875 C 282.890625 133.027344 282.890625 132.136719 282.847656 131.285156 C 282.847656 131.199219 282.847656 131.070312 282.847656 130.984375 C 282.765625 126.984375 282.382812 122.984375 282.253906 118.984375 C 282.253906 118.429688 282.253906 117.917969 282.296875 117.363281 C 282.339844 116.640625 282.382812 115.960938 282.382812 115.238281 C 282.296875 113.789062 282.167969 112.34375 282.082031 110.9375 C 281.871094 108.765625 282.042969 106.554688 281.785156 104.382812 C 281.785156 104.339844 281.785156 104.339844 281.785156 104.296875 C 281.699219 103.871094 281.660156 103.488281 281.617188 103.0625 C 281.53125 103.0625 281.488281 103.019531 281.402344 102.976562 C 281.191406 102.890625 281.019531 102.808594 280.808594 102.722656 C 279.789062 102.425781 278.683594 102.59375 277.621094 102.636719 C 277.40625 102.636719 277.195312 102.636719 276.980469 102.636719 C 276.769531 102.636719 276.558594 102.636719 276.34375 102.59375 C 275.664062 102.507812 274.941406 102.382812 274.21875 102.382812 C 273.496094 102.339844 272.773438 102.382812 272.09375 102.507812 C 272.050781 102.507812 272.007812 102.507812 271.964844 102.507812 C 271.285156 102.507812 270.5625 102.339844 269.839844 102.210938 C 269.328125 102.125 268.777344 102.042969 268.265625 102 C 268.136719 102 268.054688 102 267.925781 102 C 267.882812 102 267.839844 102 267.796875 102 C 267.671875 102 267.585938 102 267.5 102.042969 C 267.457031 102.042969 267.457031 102.042969 267.414062 102.082031 C 267.375 102.082031 267.375 102.082031 267.332031 102.082031 C 267.289062 102.082031 267.203125 102.125 267.160156 102.167969 C 264.78125 103.402344 262.101562 102.082031 259.550781 102.507812 C 259.339844 102.550781 259.125 102.59375 258.957031 102.636719 C 255.46875 103.019531 251.941406 102.382812 248.453125 102.339844 C 244.542969 102.507812 240.632812 102.125 236.761719 102.210938 C 236.421875 102.210938 236.082031 102.253906 235.742188 102.253906 C 234.296875 102.339844 232.851562 102.339844 231.363281 102.296875 C 231.066406 102.296875 230.765625 102.296875 230.425781 102.253906 C 226.175781 102.125 221.925781 102.082031 217.671875 102.042969 C 216.566406 102.042969 215.503906 102.042969 214.398438 102 C 212.867188 102 211.378906 101.957031 209.851562 101.914062 C 206.875 101.828125 203.898438 101.488281 200.921875 101.445312 C 200.328125 101.445312 199.773438 101.445312 199.179688 101.445312 C 196.671875 101.445312 194.203125 101.402344 191.695312 101.316406 C 191.609375 101.316406 191.527344 101.316406 191.441406 101.316406 C 188.59375 101.191406 185.785156 101.191406 182.9375 101.148438 C 181.960938 101.148438 180.980469 101.105469 179.960938 101.0625 C 179.75 101.0625 179.535156 101.019531 179.324219 101.019531 C 175.667969 100.765625 172.011719 100.679688 168.355469 100.550781 C 168.269531 100.550781 168.183594 100.550781 168.101562 100.550781 C 167.800781 100.550781 167.546875 100.507812 167.25 100.507812 C 166.3125 100.464844 165.421875 100.382812 164.484375 100.339844 C 161.59375 100.167969 158.703125 100 155.8125 100 C 155.472656 100 155.132812 100 154.792969 100 C 150.5 99.914062 146.160156 99.574219 141.867188 99.914062 C 136.214844 99.828125 130.644531 100.125 125.03125 100.421875 C 124.4375 100.464844 123.839844 100.464844 123.246094 100.507812 C 123.074219 100.507812 122.949219 100.507812 122.777344 100.507812 C 120.992188 100.59375 119.25 100.765625 117.507812 100.933594 C 117.335938 100.933594 117.167969 100.976562 116.996094 100.976562 C 114.699219 101.0625 112.574219 101.191406 110.363281 101.316406 C 109.9375 101.359375 109.472656 101.359375 109.003906 101.402344 C 108.707031 101.402344 108.367188 101.445312 108.066406 101.488281 C 106.921875 101.574219 105.816406 101.785156 104.710938 102.042969 C 102.796875 102.382812 100.882812 102.382812 98.96875 102.125 C 98.84375 102.125 98.714844 102.082031 98.585938 102.082031 C 97.3125 101.785156 95.992188 101.828125 94.675781 101.957031 C 94.207031 102 93.78125 102.042969 93.359375 102.082031 C 92.890625 102.125 92.335938 102.210938 91.871094 102.210938 C 92.082031 105.746094 92.167969 109.234375 92.125 112.769531 C 92.125 113.320312 92.167969 113.875 92.167969 114.429688 C 92.253906 118.472656 92.335938 122.855469 92.550781 126.855469 C 92.59375 127.496094 92.636719 128.089844 92.675781 128.730469 C 92.933594 131.285156 93.144531 133.839844 93.359375 136.433594 C 93.570312 138.902344 93.738281 141.328125 93.824219 143.757812 C 93.867188 144.820312 93.910156 145.839844 93.953125 146.90625 C 93.953125 147.628906 93.996094 148.351562 93.996094 149.078125 C 93.996094 149.628906 94.039062 150.183594 94.039062 150.738281 C 94.082031 152.398438 94.121094 154.015625 94.207031 155.675781 C 94.71875 165.636719 95.015625 175.636719 95.144531 185.640625 C 95.144531 185.683594 95.144531 185.683594 95.144531 185.726562 C 95.144531 185.894531 95.144531 186.023438 95.144531 186.195312 C 95.1875 189.003906 95.398438 191.8125 95.609375 194.664062 C 95.738281 196.964844 95.695312 199.261719 95.695312 201.558594 C 95.695312 202.328125 95.695312 203.09375 95.695312 203.859375 C 95.910156 208.03125 96.035156 212.203125 96.164062 216.414062 C 96.292969 220.332031 96.375 224.25 96.417969 228.207031 C 96.417969 228.460938 96.417969 228.71875 96.417969 228.972656 C 96.417969 229.015625 96.417969 229.058594 96.417969 229.144531 C 96.503906 237.273438 96.417969 245.359375 96.671875 253.492188 C 96.671875 253.617188 96.671875 253.703125 96.671875 253.832031 C 96.671875 255.320312 96.714844 256.8125 96.757812 258.300781 C 96.886719 263.324219 97.097656 268.347656 97.140625 273.371094 C 97.140625 274.050781 97.140625 274.773438 97.140625 275.453125 C 97.226562 276.988281 97.269531 278.5625 97.269531 280.136719 C 97.3125 282.4375 97.355469 284.734375 97.738281 286.992188 C 97.777344 287.375 97.863281 287.714844 97.949219 288.054688 C 97.949219 288.097656 97.949219 288.097656 97.949219 288.140625 C 98.160156 288.863281 98.289062 289.757812 98.96875 290.183594 C 99.265625 290.183594 99.566406 290.226562 99.777344 290.4375 C 99.863281 290.566406 100.203125 290.777344 100.289062 290.820312 C 100.414062 290.90625 100.5 290.949219 100.628906 290.992188 C 100.839844 291.078125 101.09375 291.121094 101.351562 291.121094 C 101.476562 291.121094 101.605469 291.160156 101.734375 291.160156 C 103.222656 291.542969 104.835938 291.460938 106.367188 291.503906 C 106.578125 291.542969 106.835938 291.542969 107.046875 291.585938 C 108.664062 291.714844 110.234375 291.671875 111.851562 291.585938 C 112.617188 291.542969 113.382812 291.542969 114.148438 291.503906 C 114.234375 291.503906 114.316406 291.503906 114.402344 291.503906 C 114.53125 291.503906 114.617188 291.542969 114.699219 291.542969 C 116.101562 291.714844 117.550781 291.503906 118.953125 291.375 C 118.996094 291.375 119.035156 291.375 119.035156 291.375 C 120.992188 291.375 122.90625 291.289062 124.863281 291.160156 C 125.625 291.160156 126.390625 291.160156 127.199219 291.160156 C 128.558594 291.160156 129.878906 291.160156 131.195312 291.160156 C 131.875 291.160156 132.597656 291.160156 133.28125 291.160156 C 134.808594 291.203125 136.339844 291.289062 137.871094 291.078125 C 137.871094 291.078125 137.914062 291.078125 137.914062 291.078125 C 138.125 291.035156 138.296875 291.035156 138.507812 290.992188 C 140.292969 290.820312 142.121094 290.949219 143.910156 290.820312 C 144.164062 290.820312 144.417969 290.777344 144.671875 290.777344 C 144.714844 290.777344 144.757812 290.777344 144.800781 290.777344 C 146.671875 290.566406 148.5 290.777344 150.371094 290.90625 C 150.921875 290.949219 151.519531 290.949219 152.070312 290.949219 C 152.453125 290.949219 152.835938 290.90625 153.21875 290.863281 C 154.496094 290.734375 155.726562 290.609375 157.003906 290.695312 C 158.363281 290.734375 159.765625 290.863281 161.128906 290.90625 C 161.46875 290.90625 161.851562 290.949219 162.191406 290.949219 C 162.871094 290.949219 163.550781 290.90625 164.230469 290.863281 C 165.125 290.820312 165.972656 290.734375 166.867188 290.777344 C 172.902344 290.992188 178.984375 290.992188 185.019531 290.695312 C 185.148438 290.695312 185.234375 290.695312 185.359375 290.695312 C 186.042969 290.695312 186.765625 290.695312 187.445312 290.734375 C 187.910156 290.734375 188.421875 290.777344 188.890625 290.820312 C 189.65625 290.863281 190.421875 290.90625 191.226562 290.90625 C 191.652344 290.90625 192.078125 290.90625 192.503906 290.863281 C 193.480469 290.820312 194.460938 290.734375 195.4375 290.734375 C 195.523438 290.734375 195.605469 290.734375 195.648438 290.734375 C 195.90625 290.734375 196.203125 290.777344 196.457031 290.777344 C 197.179688 290.820312 197.902344 290.90625 198.582031 290.949219 C 199.136719 290.992188 199.644531 291.035156 200.199219 291.035156 C 200.453125 291.035156 200.75 291.035156 201.007812 290.992188 C 201.433594 290.949219 201.898438 290.949219 202.324219 290.90625 C 202.578125 290.90625 202.792969 290.863281 203.046875 290.863281 C 203.261719 290.863281 203.429688 290.820312 203.644531 290.820312 C 204.152344 290.863281 204.707031 290.863281 205.214844 290.90625 C 207.511719 290.992188 209.851562 290.949219 212.144531 290.777344 C 212.1875 290.777344 212.1875 290.777344 212.230469 290.777344 C 212.402344 290.777344 212.613281 290.777344 212.785156 290.777344 C 214.484375 290.734375 216.183594 290.695312 217.886719 290.652344 C 218.523438 290.652344 219.203125 290.609375 219.839844 290.609375 C 219.925781 290.609375 219.96875 290.609375 220.054688 290.609375 C 226.386719 290.777344 232.59375 290.90625 238.886719 290.695312 C 239.355469 290.695312 239.824219 290.695312 240.289062 290.695312 C 241.226562 290.695312 242.160156 290.734375 243.097656 290.777344 C 246.117188 290.949219 249.175781 291.160156 252.195312 291.078125 C 252.832031 291.078125 253.429688 291.160156 254.023438 291.246094 C 254.789062 291.332031 255.554688 291.460938 256.320312 291.460938 C 258.574219 291.289062 260.824219 291.246094 263.035156 291.203125 C 263.71875 291.203125 264.398438 291.332031 265.078125 291.417969 C 265.289062 291.460938 265.503906 291.460938 265.714844 291.460938 C 265.84375 291.460938 265.96875 291.460938 266.054688 291.417969 C 267.925781 291.246094 269.882812 290.949219 271.753906 291.289062 C 271.878906 291.203125 272.050781 291.121094 272.21875 291.121094 C 272.601562 291.078125 273.027344 291.121094 273.410156 291.121094 C 274.347656 291.160156 275.238281 291.203125 276.003906 290.566406 C 276.214844 290.4375 276.429688 290.308594 276.640625 290.140625 C 277.152344 289.757812 277.621094 289.289062 277.875 288.691406 C 277.917969 288.351562 277.917969 287.96875 277.917969 287.628906 C 277.960938 286.820312 277.917969 286.011719 277.789062 285.246094 C 277.746094 284.820312 277.789062 284.351562 277.789062 283.925781 C 277.832031 283.203125 277.917969 282.476562 277.917969 281.710938 C 277.917969 279.839844 277.621094 278.007812 277.449219 276.179688 C 277.449219 276.09375 277.449219 275.964844 277.40625 275.878906 C 277.449219 271.710938 277.621094 267.539062 277.960938 263.367188 C 278.171875 260.855469 278.085938 258.386719 278.085938 255.917969 C 278.085938 254.683594 278.128906 253.40625 278.214844 252.171875 C 278.46875 248 278.640625 243.871094 278.894531 239.699219 C 278.980469 238.464844 279.066406 237.230469 279.148438 235.996094 C 279.066406 229.058594 279.746094 222.164062 279.832031 215.265625 C 279.832031 215.054688 279.832031 214.839844 279.832031 214.628906 C 280.085938 209.09375 280.382812 203.519531 280.679688 197.984375 C 280.765625 196.195312 280.894531 194.367188 280.976562 192.578125 C 281.105469 189.515625 280.894531 186.40625 281.234375 183.34375 C 281.234375 183.171875 281.234375 183 281.234375 182.789062 C 281.359375 178.914062 281.277344 175 281.617188 171.125 C 281.617188 170.871094 281.617188 170.613281 281.617188 170.359375 C 281.699219 166.828125 281.785156 163.335938 281.957031 159.804688 C 281.957031 159.503906 282 159.207031 282 158.910156 C 282.042969 158.695312 282.042969 158.441406 282.042969 158.226562 C 282.210938 156.140625 282.253906 154.058594 282.167969 152.011719 C 282.125 150.609375 282.296875 149.246094 282.421875 147.84375 C 282.464844 147.5 282.464844 147.203125 282.507812 146.863281 C 282.550781 146.226562 282.550781 145.585938 282.550781 144.949219 C 283.105469 143.671875 283.0625 142.480469 282.976562 141.285156 Z M 139.148438 113.195312 C 139.273438 113.066406 139.445312 113.023438 139.613281 113.023438 C 139.65625 113.023438 139.65625 112.980469 139.699219 112.980469 C 140.253906 112.851562 140.933594 112.769531 141.484375 113.066406 C 145.140625 112.597656 148.839844 112.425781 152.539062 112.34375 C 159.382812 111.746094 166.230469 111.832031 173.074219 111.703125 C 176.007812 111.574219 178.984375 111.320312 181.917969 111.234375 C 183.703125 111.277344 185.488281 111.363281 187.273438 111.320312 C 189.273438 111.277344 190.972656 111.148438 192.886719 110.9375 C 195.308594 110.726562 197.734375 110.726562 200.15625 110.683594 C 208.746094 110.640625 217.417969 110.683594 226.003906 111.277344 C 228.8125 111.492188 231.574219 111.148438 234.382812 111.617188 C 235.402344 111.703125 237.144531 111.960938 236.804688 113.363281 C 236.761719 113.578125 236.632812 113.746094 236.464844 113.875 C 236.464844 114.085938 236.464844 114.300781 236.464844 114.511719 C 236.507812 115.621094 236.761719 116.726562 236.847656 117.789062 C 237.015625 120.089844 236.59375 122.386719 236.59375 124.730469 C 236.59375 127.070312 236.421875 129.410156 236.421875 131.753906 C 236.804688 135.667969 236.464844 139.628906 236.675781 143.542969 C 236.675781 145.332031 236.550781 147.117188 236.421875 148.863281 C 236.421875 149.078125 236.421875 149.203125 236.335938 149.886719 C 236.167969 151.714844 235.953125 153.546875 235.828125 155.375 C 235.570312 157.675781 235.871094 159.972656 235.828125 162.273438 C 235.0625 168.359375 235.613281 174.574219 235.828125 180.660156 C 235.953125 182.574219 236.039062 184.492188 235.953125 186.40625 C 235.785156 187.898438 236.082031 189.34375 236.378906 190.832031 C 236.71875 192.707031 236.847656 194.578125 237.058594 196.453125 C 237.144531 197.046875 236.675781 197.601562 236.082031 197.6875 C 235.996094 197.6875 235.953125 197.6875 235.871094 197.6875 C 235.742188 197.816406 235.570312 197.941406 235.359375 197.941406 C 234.59375 198.070312 233.828125 198.199219 233.019531 198.199219 C 232.042969 198.324219 231.109375 198.070312 230.171875 198.070312 C 229.621094 198.113281 229.109375 198.28125 228.597656 198.28125 C 227.195312 198.113281 225.835938 197.984375 224.433594 198.15625 C 220.820312 198.28125 217.246094 198.921875 213.589844 198.707031 C 211.296875 198.539062 209.042969 198.835938 206.789062 198.921875 C 200.496094 198.878906 194.121094 198.75 187.828125 198.878906 C 182.214844 199.390625 176.601562 199.132812 170.992188 199.601562 C 167.121094 199.515625 163.339844 199.898438 159.511719 200.199219 C 155.558594 200.539062 151.605469 200.15625 147.691406 200.453125 C 146.925781 200.539062 146.203125 200.625 145.4375 200.710938 C 144.632812 200.835938 143.609375 201.136719 142.886719 200.539062 C 142.546875 200.285156 142.421875 199.941406 142.378906 199.601562 C 142.292969 199.476562 142.207031 199.304688 142.164062 199.050781 C 141.824219 197.304688 141.824219 195.558594 141.570312 193.8125 C 141.101562 192.195312 141.015625 190.535156 141.058594 188.875 C 141.058594 187.515625 140.804688 186.152344 140.71875 184.789062 C 140.71875 182.535156 140.847656 180.277344 140.59375 178.019531 C 140.292969 173.042969 140.082031 168.105469 140.210938 163.125 C 139.871094 159.378906 140.167969 155.632812 140.082031 151.886719 C 139.53125 145.332031 139.488281 138.777344 138.890625 132.261719 C 138.804688 130.519531 139.019531 128.816406 139.148438 127.113281 C 139.273438 125.28125 138.847656 123.453125 138.976562 121.621094 C 139.0625 119.664062 139.105469 117.707031 138.890625 115.746094 C 138.722656 114.855469 138.339844 113.832031 139.148438 113.195312 Z M 214.3125 239.105469 C 214.441406 238.253906 215.589844 237.828125 216.183594 238.464844 C 218.054688 239.105469 219.882812 239.996094 221.667969 240.890625 C 222.136719 241.316406 222.179688 241.957031 221.796875 242.464844 C 221.5 242.890625 221.117188 242.808594 220.691406 242.976562 C 219.585938 243.53125 218.566406 244.253906 217.503906 244.894531 C 217.035156 245.191406 216.441406 245.660156 215.84375 245.53125 C 214.867188 245.316406 214.78125 244.339844 214.738281 243.445312 C 213.972656 244.082031 213.207031 244.679688 212.359375 245.234375 C 211.71875 245.703125 210.785156 246.296875 210.105469 245.574219 C 209.765625 245.234375 209.808594 244.765625 209.808594 244.339844 C 209.808594 243.742188 209.636719 243.191406 209.511719 242.59375 C 209.382812 241.402344 208.320312 238.761719 210.273438 238.636719 C 210.871094 238.679688 211.296875 239.230469 211.847656 239.445312 C 212.613281 240.039062 213.507812 240.339844 214.355469 240.636719 C 214.3125 240.167969 214.273438 239.613281 214.3125 239.105469 Z M 221.203125 212.03125 C 221.160156 211.863281 221.160156 211.691406 221.160156 211.519531 C 221.117188 209.988281 222.007812 208.667969 223.15625 208.03125 C 224.304688 207.433594 225.792969 207.519531 226.941406 208.882812 C 227.707031 207.691406 229.363281 207.09375 230.683594 207.519531 C 230.808594 207.5625 230.894531 207.5625 230.980469 207.605469 C 231.363281 207.773438 231.703125 208.074219 232 208.414062 C 232.59375 209.09375 233.019531 209.988281 233.019531 210.882812 C 232.976562 211.734375 232.59375 212.5 232.253906 213.265625 C 232.128906 213.519531 232.042969 213.734375 231.914062 213.988281 C 231.617188 214.714844 231.148438 215.394531 230.597656 215.90625 C 230.597656 215.90625 230.554688 215.949219 230.554688 215.949219 C 230.386719 216.117188 230.214844 216.289062 230.003906 216.414062 C 229.535156 216.800781 228.855469 217.394531 228.175781 217.566406 C 227.832031 217.648438 227.535156 217.609375 227.195312 217.394531 C 227.152344 217.351562 227.070312 217.308594 227.027344 217.226562 C 224.644531 217.226562 221.457031 214.457031 221.203125 212.03125 Z M 170.097656 229.824219 C 170.097656 229.824219 170.140625 229.824219 170.097656 229.824219 C 170.097656 229.824219 170.054688 229.78125 170.011719 229.738281 L 170.011719 229.78125 C 169.207031 229.355469 168.183594 229.738281 167.460938 229.144531 C 166.441406 228.503906 166.570312 227.015625 167.589844 226.460938 C 168.140625 226.164062 168.78125 225.867188 169.417969 225.949219 C 170.011719 226.035156 170.734375 226.675781 170.226562 227.3125 C 169.929688 227.652344 169.332031 227.738281 169.035156 227.3125 C 168.695312 227.441406 168.226562 227.527344 168.015625 227.867188 C 168.140625 228.078125 168.398438 228.164062 168.652344 228.207031 C 169.289062 228.207031 169.929688 228.292969 170.523438 228.546875 C 171.246094 228.886719 171.542969 229.738281 171.414062 230.460938 C 171.289062 231.058594 171.035156 232.164062 170.226562 231.824219 C 169.375 231.355469 170.394531 230.460938 170.097656 229.824219 Z M 166.652344 246.085938 C 166.652344 246.9375 165.71875 247.402344 164.996094 247.0625 C 163.847656 246.425781 162.742188 245.660156 161.425781 245.402344 C 161.46875 245.617188 161.511719 245.871094 161.511719 246.085938 C 161.679688 246.511719 161.722656 247.019531 161.46875 247.363281 C 161.085938 247.957031 160.363281 248 159.808594 247.660156 C 157.980469 246.382812 155.644531 245.660156 153.433594 246.210938 C 152.328125 246.382812 151.773438 244.808594 152.667969 244.210938 C 154.707031 242.976562 157.089844 242.296875 158.957031 240.847656 C 159 240.039062 159.765625 239.316406 160.574219 239.699219 C 161.128906 239.953125 161.382812 240.636719 161.128906 241.1875 C 161.085938 241.613281 161.042969 242 161.085938 242.421875 C 161.085938 242.421875 161.128906 242.421875 161.128906 242.421875 C 162.273438 241.828125 163.421875 241.230469 164.570312 240.679688 C 165.589844 239.273438 167.417969 240.890625 166.441406 242.167969 C 166.484375 243.445312 166.570312 244.765625 166.652344 246.085938 Z M 149.945312 228.929688 C 148.753906 228.929688 147.566406 229.1875 146.417969 229.441406 C 146.332031 229.738281 146.246094 230.035156 146.160156 230.335938 C 146.628906 230.675781 146.460938 231.269531 146.078125 231.570312 C 145.777344 231.996094 145.183594 232.507812 144.714844 231.996094 C 144.332031 231.613281 144.589844 231.015625 144.714844 230.546875 C 144.800781 230.25 144.84375 229.996094 144.929688 229.695312 C 144.886719 229.695312 144.84375 229.695312 144.800781 229.695312 C 144.503906 229.652344 144.25 229.398438 144.25 229.101562 C 144.207031 228.632812 144.671875 228.292969 145.097656 228.292969 C 145.183594 228.292969 145.269531 228.25 145.355469 228.25 C 145.4375 227.953125 145.566406 227.652344 145.695312 227.398438 C 146.460938 225.183594 148.203125 222.503906 150.199219 225.398438 C 151.007812 226.632812 151.136719 228.121094 151.519531 229.484375 C 151.6875 230.207031 152.242188 231.824219 151.007812 231.78125 C 150.625 231.738281 150.414062 231.355469 150.457031 231.015625 C 150.285156 230.292969 150.117188 229.613281 149.945312 228.929688 Z M 145.695312 211.179688 C 147.183594 211.476562 148.882812 211.476562 150.03125 212.671875 C 151.304688 214.160156 150.796875 216.542969 149.816406 218.074219 C 148.796875 219.269531 147.140625 220.332031 145.523438 219.863281 C 143.824219 219.308594 144.589844 216.800781 146.289062 217.265625 C 146.882812 217.140625 147.605469 216.671875 147.820312 216.074219 C 147.949219 215.605469 148.289062 214.882812 147.949219 214.457031 C 146.84375 213.945312 145.566406 214.117188 144.460938 213.648438 C 142.929688 213.136719 141.65625 211.691406 141.78125 209.988281 C 142.292969 207.902344 143.738281 205.5625 146.035156 205.222656 C 147.90625 204.839844 149.519531 206.199219 150.285156 207.773438 C 150.582031 208.285156 150.667969 208.882812 150.328125 209.433594 C 149.945312 210.03125 149.222656 210.242188 148.585938 209.988281 C 148.160156 209.777344 147.863281 209.390625 147.820312 208.925781 C 146.671875 206.582031 144.972656 208.667969 144.460938 210.242188 C 144.589844 210.796875 145.183594 211.011719 145.695312 211.179688 Z M 151.859375 213.4375 C 152.539062 211.988281 153.515625 210.117188 155.261719 209.859375 C 155.855469 208.882812 157.128906 209.222656 157.980469 209.648438 C 159.128906 210.160156 159.9375 211.09375 160.363281 212.285156 C 161.296875 215.054688 157.9375 218.84375 155.089844 218.460938 C 153.089844 217.992188 150.964844 215.566406 151.859375 213.4375 Z M 161.085938 226.460938 C 161.167969 226.503906 161.296875 226.546875 161.339844 226.632812 C 161.382812 226.632812 161.382812 226.632812 161.425781 226.632812 C 161.890625 226.546875 162.53125 226.460938 162.65625 227.058594 C 162.742188 227.398438 162.53125 227.824219 162.148438 227.867188 C 161.851562 227.910156 161.46875 227.992188 161.167969 227.953125 C 161.210938 228.25 161.210938 228.589844 161.253906 228.886719 C 161.425781 229.441406 161.296875 230.25 161.851562 230.589844 C 162.699219 230.761719 162.53125 232.082031 161.636719 231.953125 C 159.597656 231.527344 159.894531 228.207031 159.722656 226.632812 C 159.722656 225.738281 159.339844 223.4375 160.746094 223.609375 C 161.382812 223.824219 161.253906 224.460938 161.042969 224.929688 C 161.042969 225.398438 161.042969 225.90625 161.085938 226.460938 Z M 158.320312 227.609375 C 157.683594 228.632812 156.492188 227.269531 155.601562 227.269531 C 155.175781 228.164062 155.003906 229.144531 154.960938 230.164062 C 154.960938 230.675781 154.878906 231.441406 154.195312 231.441406 C 153.261719 231.398438 153.433594 229.996094 153.175781 229.3125 C 153.050781 228.546875 152.835938 227.738281 153.175781 227.015625 C 153.347656 226.589844 153.984375 226.460938 154.28125 226.84375 C 154.960938 225.183594 156.789062 226.207031 157.9375 226.675781 C 158.320312 226.886719 158.492188 227.269531 158.320312 227.609375 Z M 165.464844 226.207031 C 165.847656 226.375 165.972656 226.886719 165.71875 227.226562 C 165.632812 228.035156 165.675781 228.84375 165.761719 229.652344 C 165.804688 229.996094 165.847656 230.292969 165.890625 230.632812 C 165.972656 231.527344 164.65625 231.65625 164.570312 230.761719 C 164.484375 229.867188 163.679688 225.738281 165.464844 226.207031 Z M 164.785156 223.738281 C 164.785156 223.355469 165.125 223.054688 165.464844 223.054688 C 165.847656 223.054688 166.144531 223.398438 166.144531 223.738281 C 166.144531 224.121094 165.804688 224.417969 165.464844 224.417969 C 165.082031 224.417969 164.785156 224.121094 164.785156 223.738281 Z M 166.613281 215.777344 C 166.527344 214.542969 167.164062 212.03125 165.71875 211.476562 C 165.421875 211.4375 165.125 211.4375 164.867188 211.5625 C 164.230469 213.179688 164.273438 214.925781 164.0625 216.628906 C 163.761719 217.691406 162.273438 217.949219 161.679688 217.054688 C 161.46875 216.757812 161.425781 216.457031 161.425781 216.117188 C 161.511719 214.839844 161.425781 213.605469 161.339844 212.328125 C 161.042969 210.710938 161.253906 209.050781 163.296875 209.351562 C 166.101562 207.5625 169.417969 209.859375 169.289062 213.097656 C 169.375 214.289062 169.332031 215.523438 169.207031 216.714844 C 169.207031 217.480469 168.609375 218.203125 167.800781 218.160156 C 166.527344 218.035156 166.398438 216.839844 166.613281 215.777344 Z M 170.566406 219.609375 C 170.4375 218.585938 171.542969 217.691406 172.480469 218.160156 C 174.308594 219.523438 176.984375 218.332031 177.835938 216.332031 C 177.878906 216.203125 177.921875 215.992188 177.964844 215.777344 C 176.941406 216.882812 175.539062 217.523438 174.007812 217.183594 C 168.015625 215.648438 170.777344 207.390625 176.347656 208.710938 C 176.902344 208.925781 177.539062 209.179688 177.792969 209.777344 C 177.835938 209.816406 177.921875 209.859375 177.964844 209.902344 C 177.792969 209.179688 178.261719 208.457031 178.984375 208.285156 C 181.363281 207.816406 181.023438 212.5 180.898438 213.988281 C 180.8125 214.757812 180.597656 215.480469 180.683594 216.203125 C 180.003906 219.480469 176.644531 221.90625 173.328125 221.394531 C 172.308594 221.140625 170.734375 220.929688 170.566406 219.609375 Z M 172.265625 223.695312 C 172.648438 223.4375 173.160156 223.609375 173.328125 224.035156 C 173.414062 224.25 173.371094 224.460938 173.285156 224.632812 C 173.285156 224.929688 173.328125 225.183594 173.328125 225.484375 C 173.710938 225.484375 174.007812 225.824219 173.96875 226.164062 C 173.96875 226.503906 173.710938 226.757812 173.414062 226.800781 C 173.414062 226.84375 173.414062 226.84375 173.414062 226.886719 C 173.5 227.652344 173.542969 228.503906 173.710938 229.269531 C 173.839844 229.695312 173.925781 230.164062 174.390625 230.335938 C 174.730469 230.207031 175.113281 230.421875 175.242188 230.71875 C 175.496094 231.867188 173.96875 231.867188 173.371094 231.269531 C 172.519531 230.589844 172.351562 229.441406 172.222656 228.417969 C 172.097656 227.226562 171.96875 226.035156 171.925781 224.84375 C 171.882812 224.460938 171.882812 223.949219 172.265625 223.695312 Z M 175.15625 237.910156 C 177.453125 234.632812 180.726562 231.570312 184.808594 230.929688 C 186.679688 230.71875 188.632812 230.972656 190.503906 231.144531 C 192.84375 231.1875 194.714844 232.761719 196.628906 233.910156 C 197.734375 234.507812 198.882812 235.058594 199.644531 236.082031 C 200.285156 237.316406 201.347656 238.292969 201.730469 239.65625 C 203.261719 242.890625 202.792969 248.128906 201.007812 251.191406 C 199.816406 252.980469 198.414062 254.894531 196.414062 255.832031 C 195.4375 256.300781 194.5 256.9375 193.4375 257.277344 C 192.503906 257.535156 191.609375 257.832031 190.675781 258.128906 C 189.101562 258.554688 187.402344 258.554688 185.785156 258.640625 C 184.597656 258.683594 183.492188 258.300781 182.425781 257.789062 C 179.707031 256.683594 177.199219 255.152344 175.15625 252.980469 C 174.136719 251.875 173.371094 250.46875 173.074219 248.980469 C 172.945312 247.871094 172.945312 247.019531 172.820312 245.914062 C 172.734375 243.105469 173.585938 240.296875 175.15625 237.910156 Z M 128.050781 279.117188 C 127.921875 281.117188 125.667969 282.863281 123.839844 281.542969 C 121.757812 280.308594 121.289062 276.773438 123.5 275.414062 C 124.308594 274.945312 126.09375 274.476562 126.265625 275.839844 C 127.753906 276.050781 128.136719 277.839844 128.050781 279.117188 Z M 129.582031 280.179688 C 129.199219 280.179688 128.859375 279.796875 128.859375 279.414062 C 128.859375 278.988281 129.199219 278.691406 129.625 278.691406 C 130.007812 278.691406 130.347656 279.074219 130.347656 279.457031 C 130.304688 279.839844 129.964844 280.179688 129.582031 280.179688 Z M 128.644531 277.15625 C 128.644531 276.730469 128.984375 276.433594 129.410156 276.433594 C 129.792969 276.433594 130.132812 276.816406 130.132812 277.199219 C 130.132812 277.625 129.792969 277.921875 129.367188 277.921875 C 128.984375 277.921875 128.644531 277.582031 128.644531 277.15625 Z M 137.148438 280.519531 C 136.253906 281.457031 134.9375 281.839844 133.703125 281.585938 C 132.941406 281.371094 130.898438 281.074219 131.324219 279.882812 C 131.875 278.859375 132.941406 280.007812 133.703125 280.050781 C 135.066406 280.5625 136.976562 279.371094 136.597656 277.796875 C 135.746094 277.582031 134.9375 278.050781 134.128906 278.222656 C 131.917969 278.734375 131.535156 276.476562 131.792969 274.773438 C 131.410156 274.007812 132.515625 273.285156 133.066406 273.878906 C 133.363281 273.667969 133.746094 273.667969 134.085938 274.136719 C 135.023438 274.050781 135.914062 274.136719 136.851562 274.136719 C 137.234375 274.136719 137.574219 274.519531 137.574219 274.902344 C 137.574219 275.328125 137.234375 275.625 136.808594 275.625 C 135.617188 275.496094 134.386719 275.753906 133.238281 275.539062 C 133.195312 275.839844 133.195312 276.179688 133.28125 276.476562 C 133.320312 276.945312 133.746094 276.859375 134.085938 276.730469 C 134.769531 276.519531 135.492188 276.261719 136.214844 276.261719 C 138.636719 276.179688 138.507812 279.15625 137.148438 280.519531 Z M 139.828125 281.203125 C 138.722656 280.5625 138.550781 279.117188 139.230469 278.09375 C 139.273438 278.007812 139.316406 277.882812 139.402344 277.796875 C 136.851562 276.050781 141.78125 271.453125 142.632812 274.136719 C 143.226562 274.21875 143.566406 274.902344 143.652344 275.414062 C 143.652344 275.964844 143.441406 276.476562 143.058594 276.945312 C 143.144531 276.988281 143.1875 277.03125 143.269531 277.113281 C 146.078125 279.15625 142.292969 282.820312 139.828125 281.203125 Z M 257.339844 271.242188 C 255.300781 270.644531 253.214844 270.898438 251.175781 271.113281 C 248.835938 270.859375 246.582031 271.070312 244.246094 271.027344 C 241.992188 271.242188 239.78125 270.984375 237.527344 271.027344 C 234.765625 270.941406 232 270.984375 229.238281 270.941406 C 227.070312 270.984375 224.898438 270.644531 222.691406 270.558594 C 220.5625 270.601562 218.4375 270.476562 216.3125 270.558594 C 214.695312 270.6875 213.082031 270.433594 211.464844 270.21875 C 205.851562 269.921875 200.199219 270.21875 194.585938 270.21875 C 192.292969 270.050781 189.996094 270.601562 187.742188 270.21875 C 185.699219 270.089844 183.660156 270.390625 181.664062 269.964844 C 178.472656 269.964844 175.285156 269.964844 172.097656 270.175781 C 171.203125 270.21875 170.3125 270.050781 169.460938 269.921875 C 167.207031 269.921875 164.953125 270.007812 162.699219 270.089844 C 161.933594 270.089844 161.167969 269.878906 160.40625 269.921875 C 159.597656 269.964844 158.109375 270.304688 156.832031 270.390625 C 156.238281 272.261719 153.941406 273.410156 151.988281 273.15625 C 150.160156 272.644531 149.054688 271.496094 148.542969 270.21875 C 147.734375 270.304688 146.882812 270.175781 146.078125 270.132812 C 142.292969 269.921875 138.507812 270.515625 134.683594 270.730469 C 131.75 270.898438 128.816406 270.859375 125.882812 270.984375 C 124.734375 270.859375 123.457031 271.285156 122.4375 270.6875 C 121.84375 270.21875 121.886719 269.15625 122.609375 268.816406 C 123.074219 268.601562 123.585938 268.515625 124.011719 268.773438 C 126.007812 268.816406 128.007812 268.730469 130.046875 268.601562 C 131.664062 268.644531 133.195312 268.644531 134.808594 268.472656 C 137.871094 268.261719 140.890625 267.921875 143.910156 267.835938 C 145.355469 267.835938 146.800781 268.007812 148.246094 267.964844 C 148.542969 265.835938 150.414062 263.960938 153.6875 264.34375 C 154.453125 264.429688 154.878906 265.027344 155.472656 265.410156 C 156.28125 266.046875 156.621094 267.070312 156.832031 268.089844 C 157.726562 268.046875 158.617188 267.878906 159.511719 267.75 C 160.488281 267.582031 161.425781 267.664062 162.402344 267.835938 C 164.699219 267.792969 167.035156 267.707031 169.332031 267.664062 C 170.054688 267.707031 170.734375 267.835938 171.457031 267.921875 C 172.863281 267.964844 174.265625 267.707031 175.667969 267.75 C 176.816406 267.75 177.964844 267.792969 179.109375 267.75 C 181.066406 267.496094 182.980469 267.964844 184.9375 267.964844 C 186.679688 267.75 188.421875 268.089844 190.207031 268.089844 C 191.144531 268.046875 192.035156 267.921875 192.972656 267.878906 C 198.371094 267.921875 203.8125 267.664062 209.210938 267.792969 C 210.996094 267.792969 212.742188 268.007812 214.484375 268.261719 C 217.417969 268.21875 220.351562 268.21875 223.285156 268.261719 C 228.175781 268.816406 233.148438 268.558594 238.082031 268.6875 C 241.183594 268.816406 244.289062 268.6875 247.390625 268.644531 C 248.792969 268.472656 250.15625 268.6875 251.558594 268.773438 C 252.238281 268.6875 252.875 268.558594 253.554688 268.558594 C 254.957031 268.558594 256.40625 268.558594 257.765625 268.941406 C 259.082031 269.324219 258.828125 271.453125 257.339844 271.242188 Z M 170.140625 229.824219 C 170.183594 229.867188 170.183594 229.910156 170.183594 229.953125 C 170.183594 229.910156 170.140625 229.867188 170.140625 229.824219 Z M 142.039062 278.050781 C 141.953125 278.007812 141.910156 277.921875 141.867188 277.882812 C 141.613281 278.007812 141.359375 278.136719 141.058594 278.179688 C 140.976562 278.222656 140.890625 278.265625 140.804688 278.308594 C 140.71875 278.476562 140.675781 278.519531 140.59375 278.648438 C 139.316406 280.605469 142.421875 280.433594 142.761719 278.988281 C 142.761719 278.519531 142.335938 278.265625 142.039062 278.050781 Z M 175.582031 212.117188 C 175.285156 211.902344 175.074219 211.605469 174.988281 211.265625 C 174.007812 211.308594 173.542969 212.285156 173.328125 213.097656 C 173.328125 213.945312 174.179688 214.414062 174.945312 214.5 C 175.921875 214.371094 176.390625 213.480469 176.6875 212.628906 C 176.730469 212.5 176.730469 212.328125 176.601562 212.246094 C 176.261719 212.371094 175.878906 212.285156 175.582031 212.117188 Z M 140.421875 276.730469 C 140.507812 276.730469 140.550781 276.6875 140.636719 276.6875 C 140.71875 276.6875 140.761719 276.6875 140.804688 276.730469 C 141.359375 276.519531 141.867188 276.136719 142.121094 275.625 C 142.121094 275.625 142.121094 275.582031 142.082031 275.582031 C 142.082031 275.582031 142.039062 275.539062 142.082031 275.539062 C 141.953125 275.371094 141.78125 275.199219 141.78125 274.988281 C 141.699219 274.988281 141.570312 274.945312 141.484375 274.902344 C 140.976562 275.070312 139.570312 276.304688 140.421875 276.730469 Z M 210.996094 134.09375 C 212.65625 133.878906 214.398438 133.285156 215.675781 132.179688 C 216.566406 131.027344 217.375 129.625 217.289062 128.089844 C 216.863281 126.984375 216.566406 125.792969 216.015625 124.769531 C 215.757812 124.304688 215.164062 124.089844 214.867188 123.621094 C 214.015625 123.535156 213.335938 122.726562 212.484375 122.558594 C 210.105469 122.132812 207.851562 123.707031 206.617188 125.664062 C 205.089844 127.792969 204.75 128.304688 205.554688 130.859375 C 206.195312 132.730469 209.167969 134.09375 210.996094 134.09375 Z M 149.734375 164.273438 C 150.285156 164.101562 150.882812 163.933594 151.476562 163.71875 C 156.195312 162.230469 161.511719 160.570312 166.484375 162.867188 C 168.863281 163.761719 171.074219 164.953125 173.242188 166.101562 L 174.179688 166.613281 C 174.222656 166.65625 174.265625 166.65625 174.308594 166.699219 C 175.964844 167.976562 178.175781 169.59375 180.597656 170.53125 C 180.683594 170.574219 180.769531 170.574219 180.855469 170.574219 C 181.109375 170.613281 181.363281 170.65625 181.664062 170.65625 C 181.917969 170.65625 182.171875 170.65625 182.425781 170.65625 C 182.46875 170.65625 182.46875 170.65625 182.511719 170.65625 C 182.769531 170.65625 182.980469 170.613281 183.234375 170.613281 C 183.277344 170.613281 183.320312 170.613281 183.320312 170.613281 C 183.574219 170.574219 183.789062 170.574219 184.042969 170.53125 C 185.574219 170.1875 187.105469 169.464844 188.976562 168.273438 C 191.441406 166.871094 193.738281 165.210938 196.246094 163.378906 C 196.710938 163.039062 197.136719 162.699219 197.605469 162.316406 C 199.347656 160.953125 201.175781 159.503906 203.300781 158.613281 C 203.300781 158.613281 203.34375 158.613281 203.386719 158.570312 C 203.8125 158.441406 204.238281 158.269531 204.621094 158.144531 C 205.9375 157.675781 207.339844 157.164062 208.828125 156.953125 C 209.976562 156.824219 210.996094 157.164062 211.933594 157.460938 C 212.316406 157.589844 212.699219 157.71875 213.039062 157.800781 C 214.570312 158.144531 216.183594 158.441406 217.84375 158.398438 C 219.457031 158.3125 220.5625 156.910156 221.710938 155.417969 C 222.265625 154.695312 222.816406 153.972656 223.496094 153.375 C 224.476562 152.3125 225.625 151.332031 227.070312 150.394531 C 227.410156 150.183594 227.75 149.96875 228.046875 149.714844 C 229.238281 148.863281 230.597656 147.925781 232.296875 147.882812 C 232.59375 147.84375 232.976562 147.882812 233.359375 147.925781 L 233.402344 147.417969 C 233.445312 146.777344 233.488281 146.140625 233.488281 145.414062 C 232.894531 145.117188 232.296875 144.691406 231.703125 144.140625 C 231.363281 143.96875 231.023438 143.796875 230.640625 143.671875 L 230.425781 143.585938 C 226.898438 142.734375 222.945312 143.332031 218.308594 145.414062 C 215.800781 146.609375 213.632812 148.351562 211.378906 150.226562 C 209.382812 151.84375 207.339844 153.503906 205.003906 154.78125 C 200.964844 157.207031 195.011719 158.527344 191.484375 154.3125 C 190.378906 153.207031 189.316406 152.054688 188.890625 150.480469 C 188.675781 149.757812 188.550781 149.078125 188.421875 148.394531 C 188.335938 147.886719 188.253906 147.417969 188.125 146.992188 C 188.039062 146.691406 187.871094 146.308594 187.65625 145.96875 C 187.402344 145.414062 187.105469 144.820312 186.976562 144.140625 C 186.976562 144.097656 186.976562 144.097656 186.976562 144.054688 C 186.933594 143.628906 186.890625 143.160156 186.847656 142.691406 C 186.636719 139.96875 186.382812 137.15625 184.511719 135.457031 C 179.875 134.988281 173.242188 139.839844 170.011719 142.136719 C 169.96875 142.136719 169.96875 142.179688 169.96875 142.179688 C 165.335938 144.949219 161.296875 148.777344 157.429688 152.4375 C 156.023438 153.757812 154.539062 155.164062 153.050781 156.484375 C 150.199219 158.910156 146.96875 161.761719 144.503906 165.167969 L 144.375 165.335938 C 144.121094 165.71875 143.867188 166.144531 143.652344 166.527344 C 144.078125 166.359375 144.460938 166.1875 144.886719 166.019531 C 146.460938 165.421875 148.074219 164.742188 149.734375 164.273438 Z M 246.371094 94.847656 C 247.5625 94.71875 248.921875 94.421875 249.601562 93.359375 C 250.453125 91.527344 249.855469 90.082031 247.984375 89.398438 C 247.605469 89.824219 247.007812 89.996094 246.457031 89.78125 C 246.371094 89.738281 246.285156 89.695312 246.15625 89.65625 C 245.265625 90.164062 244.414062 90.972656 243.949219 91.910156 C 243.863281 93.527344 244.671875 94.761719 246.371094 94.847656 Z M 259.167969 94.847656 C 261.421875 94.847656 263.035156 91.996094 262.101562 89.996094 C 261.761719 89.527344 261.082031 89.441406 260.824219 88.972656 C 258.65625 88.675781 257 90.675781 256.660156 92.675781 C 257.085938 93.65625 257.933594 94.976562 259.167969 94.847656 Z M 271.753906 94.976562 C 273.835938 94.890625 274.558594 93.359375 274.261719 91.441406 C 274.003906 90.675781 273.199219 90.335938 272.6875 89.78125 C 271.328125 89.1875 269.753906 90.378906 269.117188 91.570312 C 268.136719 93.316406 269.964844 95.230469 271.753906 94.976562 Z M 271.753906 94.976562 " fill-opacity="1" fill-rule="nonzero"/></svg>