<svg xmlns="http://www.w3.org/2000/svg" xmlns:xlink="http://www.w3.org/1999/xlink" width="500" zoomAndPan="magnify" viewBox="0 0 375 374.999991" height="500" preserveAspectRatio="xMidYMid meet" version="1.0"><defs><clipPath id="372a4699f7"><path d="M 66 85 L 308.898438 85 L 308.898438 290.410156 L 66 290.410156 Z M 66 85 " clip-rule="nonzero"/></clipPath></defs><rect x="-37.5" width="450" fill="#ffffff" y="-37.499999" height="449.999989" fill-opacity="1"/><rect x="-37.5" width="450" fill="#ffffff" y="-37.499999" height="449.999989" fill-opacity="1"/><rect x="-37.5" width="450" fill="#535450" y="-37.499999" height="449.999989" fill-opacity="1"/><g clip-path="url(#372a4699f7)"><path fill="#1e1e1e" d="M 308.738281 118.15625 C 308.691406 120.636719 308.546875 123.070312 308.640625 125.554688 C 308.546875 129.058594 308.546875 132.515625 308.640625 136.019531 C 308.640625 141.128906 308.398438 146.242188 308.207031 151.300781 C 308.011719 154.515625 308.207031 157.777344 308.109375 160.988281 C 308.058594 162.59375 308.011719 164.152344 308.058594 165.5625 C 308.253906 169.070312 308.15625 172.574219 308.011719 176.078125 C 307.769531 183.136719 307.234375 190.191406 307.332031 197.300781 C 307.332031 204.890625 307.136719 212.484375 306.699219 220.03125 C 306.359375 223.828125 306.941406 227.621094 306.894531 231.46875 C 307.089844 234 307.378906 236.53125 307.089844 239.0625 C 307.089844 244.949219 306.652344 250.890625 306.894531 256.777344 C 306.84375 257.460938 306.992188 258.140625 306.84375 258.824219 C 306.84375 258.824219 306.84375 258.871094 306.84375 258.871094 C 306.894531 258.96875 306.894531 259.066406 306.941406 259.164062 C 306.992188 260.089844 307.089844 261.011719 307.136719 261.9375 C 306.75 266.367188 307.332031 270.941406 306.457031 275.324219 C 305.390625 278.730469 304.078125 282.527344 301.261719 284.910156 C 299.707031 285.984375 297.863281 286.613281 296.066406 287.101562 C 292.085938 288.125 288.101562 289.242188 283.976562 289.585938 C 280.140625 289.777344 276.304688 289.828125 272.515625 290.167969 C 269.601562 290.265625 266.738281 290.3125 263.824219 290.3125 C 261.785156 290.21875 259.699219 290.121094 257.65625 290.21875 C 254.9375 290.363281 252.171875 290.167969 249.453125 290.265625 C 247.363281 290.410156 245.277344 290.363281 243.1875 290.21875 C 238.867188 290.167969 234.496094 290.023438 230.175781 289.875 C 225.804688 289.777344 221.484375 290.023438 217.113281 289.683594 C 212.839844 289.730469 208.566406 289.828125 204.296875 289.585938 C 197.738281 289.535156 191.234375 289.488281 184.679688 289.339844 C 177.832031 289.339844 170.9375 288.902344 164.089844 288.855469 C 155.15625 288.902344 146.269531 289.292969 137.335938 289.339844 C 135.101562 289.4375 132.867188 289.390625 130.585938 289.292969 C 125.003906 289.339844 119.371094 289.730469 113.785156 289.242188 C 109.027344 288.953125 103.976562 288.609375 99.269531 288.855469 C 96.304688 289 93.296875 289.292969 90.332031 289.195312 C 90.089844 289.339844 89.75 289.4375 89.460938 289.390625 C 89.460938 289.390625 89.410156 289.390625 89.410156 289.390625 C 88.878906 289.632812 88.199219 289.683594 87.613281 289.585938 C 85.429688 289.535156 83.195312 289.632812 81.15625 288.757812 C 79.796875 288.222656 78.242188 288.417969 76.933594 287.785156 C 70.765625 284.425781 70.667969 279.410156 69.941406 273.179688 C 68.824219 263.203125 69.113281 253.078125 69.066406 243.050781 C 69.164062 236.96875 68.773438 230.882812 68.773438 224.75 C 68.726562 218.570312 68.921875 212.386719 68.824219 206.207031 C 68.773438 189.902344 67.902344 173.644531 67.320312 157.339844 C 67.074219 149.746094 67.074219 142.101562 66.882812 134.460938 C 66.636719 130.324219 66.832031 126.039062 66.882812 121.804688 C 66.976562 118.933594 67.367188 116.113281 67.171875 113.238281 C 66.929688 109.394531 66.492188 105.597656 66.6875 101.753906 C 66.929688 97.957031 68.191406 93.964844 71.347656 91.578125 C 72.660156 90.558594 74.164062 89.390625 75.914062 89.390625 C 76.058594 89.390625 76.15625 89.4375 76.253906 89.4375 C 77.464844 89.144531 78.679688 88.953125 79.941406 88.804688 C 85.332031 87.734375 90.917969 87.832031 96.355469 87.589844 C 103.105469 87.152344 109.757812 85.984375 116.503906 86.078125 C 120.875 86.128906 125.195312 86.273438 129.566406 86.226562 C 133.015625 86.273438 136.460938 86.617188 139.910156 86.566406 C 143.941406 86.324219 148.019531 86.324219 152.046875 86.46875 C 161.128906 86.46875 170.257812 86.957031 179.335938 86.371094 C 191.039062 86.46875 202.789062 86.421875 214.492188 86.078125 C 216.484375 85.933594 218.425781 85.933594 220.414062 86.078125 C 223.378906 86.175781 226.289062 85.835938 229.253906 85.933594 C 233.867188 85.886719 238.429688 85.15625 242.996094 85.351562 C 247.363281 85.351562 251.78125 84.910156 256.203125 85.300781 C 260.039062 85.445312 263.824219 86.03125 267.613281 86.128906 C 270.867188 86.273438 274.167969 85.933594 277.421875 86.078125 C 279.507812 85.691406 281.597656 85.691406 283.734375 85.59375 C 285.820312 85.59375 288.199219 85.398438 290.191406 85.542969 C 292.375 85.691406 294.511719 85.203125 296.601562 85.886719 C 296.648438 85.933594 296.746094 85.933594 296.792969 85.984375 C 301.941406 86.664062 302.425781 85.542969 305.730469 90.265625 C 307.863281 92.652344 308.011719 95.960938 308.058594 99.027344 C 308.109375 102.824219 308.253906 106.523438 308.691406 110.222656 C 308.835938 112.558594 308.835938 114.847656 308.738281 117.183594 C 308.886719 117.523438 308.835938 117.863281 308.738281 118.15625 Z M 308.738281 118.15625 " fill-opacity="1" fill-rule="nonzero"/></g><path fill="#ff7b66" d="M 162.390625 205.476562 C 162.925781 204.503906 163.214844 203.382812 163.800781 202.410156 C 164.1875 201.726562 164.527344 201 164.867188 200.269531 C 166.566406 195.839844 167.925781 191.214844 167.78125 186.445312 C 167.730469 185.910156 167.585938 185.421875 167.441406 184.9375 C 167.199219 184.15625 166.859375 183.425781 166.617188 182.695312 C 166.566406 182.601562 166.519531 182.453125 166.519531 182.355469 C 166.179688 181.1875 165.839844 179.972656 165.5 178.804688 C 165.011719 177.292969 164.578125 175.738281 164.089844 174.179688 C 163.605469 172.71875 163.070312 171.355469 162.34375 170.089844 C 162.246094 169.894531 162.148438 169.703125 162.003906 169.554688 C 159.769531 165.953125 156.90625 162.691406 153.457031 160.257812 C 152.679688 159.773438 151.804688 159.429688 150.980469 159.042969 C 150.933594 159.042969 150.933594 158.992188 150.882812 158.992188 C 150.59375 158.847656 150.300781 158.699219 150.007812 158.554688 C 148.894531 157.921875 147.871094 157.242188 146.707031 156.707031 C 144.910156 156.121094 143.066406 155.78125 141.222656 155.441406 C 140.734375 155.34375 140.199219 155.246094 139.714844 155.148438 C 138.355469 155.050781 136.996094 155.246094 135.683594 154.855469 C 135.589844 155 135.492188 155.097656 135.34375 155.195312 C 135.054688 155.390625 134.714844 155.488281 134.324219 155.390625 C 133.890625 155.292969 133.402344 155.195312 132.964844 155.097656 C 132.527344 155 132.042969 154.90625 131.558594 154.808594 C 130.925781 154.757812 130.34375 154.808594 129.714844 154.855469 C 129.277344 154.90625 128.789062 154.953125 128.351562 155 C 127.917969 155.050781 127.429688 155.148438 126.992188 155.246094 C 125.683594 155.539062 124.421875 155.878906 123.15625 156.167969 C 122.089844 156.558594 121.070312 156.949219 120.050781 157.386719 C 118.109375 158.214844 116.164062 159.140625 114.273438 160.0625 C 113.347656 160.597656 112.523438 161.28125 111.699219 161.960938 C 111.066406 162.496094 110.484375 162.984375 109.902344 163.519531 C 107.765625 165.222656 105.773438 167.074219 104.367188 169.410156 C 104.269531 169.605469 104.125 169.796875 104.027344 169.992188 C 103.832031 170.285156 103.6875 170.578125 103.492188 170.871094 C 101.695312 173.984375 100.96875 177.488281 100.046875 180.945312 C 99.800781 181.917969 99.511719 182.941406 99.21875 183.914062 C 99.171875 184.207031 99.074219 184.449219 99.027344 184.691406 C 98.78125 185.667969 98.539062 186.6875 98.492188 187.710938 C 98.589844 189.074219 98.734375 190.386719 98.878906 191.75 C 98.929688 192.089844 98.929688 192.433594 98.976562 192.722656 C 99.027344 193.066406 99.027344 193.40625 99.074219 193.746094 C 99.609375 197.589844 100.578125 200.949219 102.425781 204.257812 C 102.570312 204.648438 102.765625 205.039062 102.957031 205.378906 C 104.027344 207.765625 105.335938 210.050781 106.941406 212.144531 C 108.347656 213.363281 109.902344 214.480469 111.261719 215.746094 C 112.039062 216.378906 112.816406 216.867188 113.640625 217.402344 C 114.464844 217.9375 115.292969 218.375 116.117188 218.910156 C 117.039062 219.496094 117.863281 220.175781 118.835938 220.710938 C 119.03125 220.808594 119.226562 220.90625 119.417969 221.003906 C 119.855469 221.148438 120.292969 221.296875 120.730469 221.390625 C 121.605469 221.636719 122.527344 221.878906 123.402344 222.023438 C 124.421875 222.21875 125.390625 222.316406 126.363281 222.316406 C 127.382812 222.269531 128.402344 222.21875 129.421875 222.171875 C 130.148438 222.121094 130.925781 222.121094 131.65625 222.121094 C 132.917969 222.21875 134.035156 222.171875 135.199219 221.976562 C 135.683594 221.878906 136.171875 221.78125 136.65625 221.683594 C 139.859375 220.417969 143.261719 219.589844 146.511719 218.277344 C 146.707031 218.179688 146.902344 218.082031 147.097656 217.984375 C 148.164062 217.449219 149.183594 216.769531 150.253906 216.234375 C 151.078125 215.84375 151.855469 215.453125 152.632812 215.015625 C 154.039062 214.238281 155.351562 213.363281 156.515625 212.289062 C 157.488281 211.316406 158.359375 210.296875 159.234375 209.222656 C 160.109375 208.203125 161.03125 207.132812 161.953125 206.15625 C 162.050781 206.058594 162.246094 205.769531 162.390625 205.476562 Z M 157 200.902344 C 156.855469 201.972656 155.59375 202.507812 154.769531 203.140625 C 153.992188 203.820312 153.070312 204.601562 152.097656 205.085938 C 151.222656 205.523438 150.300781 205.769531 149.328125 205.476562 C 148.84375 205.28125 148.40625 205.039062 147.921875 204.746094 C 147.339844 204.355469 146.804688 203.96875 146.222656 203.53125 C 145.738281 203.1875 145.300781 202.847656 144.765625 202.605469 C 141.804688 200.609375 139.035156 198.320312 136.121094 196.277344 C 135.296875 195.691406 134.421875 195.109375 133.550781 194.621094 C 133.207031 195.15625 132.867188 195.644531 132.527344 196.179688 C 130.148438 199.878906 127.769531 203.53125 125.488281 207.277344 C 124.855469 208.300781 124.273438 209.710938 123.496094 210.832031 C 122.867188 211.753906 122.089844 212.484375 120.925781 212.632812 C 119.953125 212.484375 119.03125 212.144531 118.15625 211.609375 C 117.039062 210.878906 116.117188 209.757812 115.777344 208.445312 C 115.632812 207.617188 116.019531 206.839844 116.261719 206.058594 C 116.992188 204.164062 117.71875 202.214844 118.933594 200.511719 C 120.390625 198.320312 121.847656 196.179688 123.351562 194.039062 C 123.496094 193.792969 123.691406 193.601562 123.835938 193.355469 C 124.566406 192.382812 125.148438 191.359375 125.78125 190.339844 C 126.265625 189.609375 126.75 188.925781 127.332031 188.34375 C 127.285156 188.292969 127.238281 188.292969 127.1875 188.246094 C 125.535156 187.078125 124.175781 185.570312 122.867188 184.058594 C 120.925781 182.308594 118.886719 180.652344 116.894531 178.996094 C 116.75 178.851562 116.601562 178.753906 116.457031 178.609375 C 114.710938 176.90625 111.796875 176.078125 111.164062 173.546875 C 111.019531 172.671875 111.40625 171.792969 111.894531 171.113281 C 112.914062 169.554688 114.710938 168.339844 116.554688 168.339844 C 117.378906 168.339844 118.207031 168.582031 118.933594 169.164062 C 120.097656 170.042969 121.070312 171.210938 122.1875 172.136719 C 123.109375 172.816406 124.03125 173.449219 124.953125 174.128906 C 126.410156 175.445312 127.722656 176.953125 129.179688 178.269531 C 129.90625 178.949219 130.683594 179.582031 131.507812 180.167969 C 132.238281 180.214844 132.433594 180.703125 132.820312 181.089844 C 133.5 180.261719 134.179688 179.386719 134.859375 178.511719 C 136.171875 176.757812 137.433594 174.957031 138.839844 173.253906 C 139.132812 172.914062 139.425781 172.621094 139.714844 172.28125 C 140.054688 171.941406 140.347656 171.597656 140.6875 171.257812 C 141.949219 169.945312 143.261719 168.679688 144.375 167.265625 C 144.960938 166.632812 145.640625 165.515625 146.417969 164.6875 C 146.417969 164.6875 146.464844 164.640625 146.464844 164.640625 C 146.757812 164.296875 147.097656 164.054688 147.484375 163.859375 C 147.824219 163.664062 148.164062 163.617188 148.550781 163.664062 C 148.796875 163.714844 149.039062 163.859375 149.28125 163.957031 C 150.203125 164.492188 150.835938 165.515625 151.5625 166.292969 C 151.804688 166.585938 152 166.828125 152.144531 167.121094 C 153.019531 168.679688 152.484375 170.382812 151.464844 171.988281 C 150.980469 172.769531 150.398438 173.496094 149.816406 174.226562 C 149.183594 175.007812 148.503906 175.6875 148.019531 176.320312 C 146.902344 177.683594 145.882812 179.09375 145.058594 180.652344 C 144.621094 181.335938 144.132812 181.917969 143.601562 182.550781 C 143.164062 183.039062 142.726562 183.574219 142.289062 184.058594 C 141.804688 184.59375 141.367188 185.179688 141.027344 185.8125 C 142.871094 187.273438 144.28125 189.171875 145.929688 190.875 C 146.757812 191.605469 147.582031 192.335938 148.40625 193.066406 C 149.28125 193.84375 150.203125 194.671875 151.125 195.449219 C 151.855469 195.984375 152.582031 196.519531 153.3125 197.054688 C 153.796875 197.394531 154.28125 197.738281 154.71875 198.027344 C 155.542969 198.710938 156.613281 199.34375 156.808594 200.464844 C 157 200.609375 157 200.753906 157 200.902344 Z M 222.550781 246.703125 C 222.210938 244.316406 221.871094 241.882812 221.53125 239.5 C 221.289062 237.796875 221.046875 236.09375 220.753906 234.4375 C 219.882812 234.195312 219.054688 234.046875 218.183594 233.949219 C 216.726562 233.753906 215.269531 233.609375 213.8125 233.5625 C 212.257812 233.464844 210.703125 233.414062 209.199219 233.367188 C 206.285156 233.21875 203.324219 233.074219 200.410156 232.929688 C 189.484375 232.488281 178.511719 232.394531 167.636719 233.5625 C 166.46875 233.753906 165.304688 233.949219 164.1875 234.292969 C 163.652344 234.484375 163.121094 234.679688 162.632812 234.972656 C 160.644531 236.726562 160.59375 239.351562 160.644531 241.835938 C 160.644531 242.226562 160.691406 242.613281 160.691406 243.003906 C 160.691406 244.027344 160.742188 245.046875 160.886719 246.117188 C 160.933594 246.558594 160.984375 246.996094 161.03125 247.433594 C 161.273438 249.914062 161.226562 252.445312 161.664062 254.929688 C 161.710938 255.171875 161.761719 255.464844 161.808594 255.707031 C 161.90625 256.582031 162.003906 257.460938 162.148438 258.335938 C 162.292969 259.503906 162.535156 260.625 163.023438 261.695312 C 164.964844 263.058594 167.34375 263.542969 169.773438 263.691406 C 171.179688 263.789062 172.539062 263.789062 173.851562 263.738281 C 175.597656 263.691406 177.347656 263.445312 179.046875 263.300781 C 179.53125 263.300781 179.96875 263.25 180.453125 263.25 C 181.863281 263.25 183.269531 263.25 184.679688 263.15625 C 185.890625 263.007812 187.058594 262.960938 188.273438 262.910156 C 190.261719 262.8125 192.203125 262.765625 194.148438 262.523438 C 195.410156 262.277344 196.71875 262.230469 197.984375 262.230469 C 200.363281 262.277344 202.691406 262.523438 205.070312 262.277344 C 207.207031 262.082031 209.296875 261.839844 211.433594 261.9375 C 213.179688 261.9375 214.929688 262.132812 216.628906 261.742188 C 216.96875 261.695312 217.257812 261.644531 217.597656 261.644531 C 218.667969 261.546875 219.640625 261.449219 220.707031 261.160156 C 221.191406 260.867188 221.726562 260.378906 222.113281 259.894531 C 222.261719 259.699219 222.40625 259.503906 222.503906 259.308594 C 222.941406 258.480469 223.183594 257.65625 223.328125 256.777344 C 223.765625 254.199219 223.28125 251.523438 222.890625 248.894531 C 222.699219 248.066406 222.648438 247.382812 222.550781 246.703125 Z M 190.746094 248.601562 C 190.746094 248.84375 190.746094 249.085938 190.699219 249.332031 C 190.699219 249.671875 190.601562 250.011719 190.554688 250.351562 C 189.875 254.148438 186.910156 256.484375 182.832031 255.949219 C 179.578125 255.464844 176.328125 251.230469 176.570312 247.96875 C 177.054688 245.386719 177.007812 242.273438 179.289062 240.519531 C 179.675781 240.230469 180.113281 239.984375 180.601562 239.742188 C 181.960938 239.109375 183.511719 238.867188 185.019531 239.109375 C 185.890625 239.253906 187.105469 239.546875 187.300781 240.617188 C 188.078125 241.300781 188.855469 242.03125 189.292969 242.953125 C 189.339844 243.003906 189.386719 243.101562 189.386719 243.199219 C 189.4375 243.34375 189.535156 243.492188 189.582031 243.636719 C 189.679688 243.878906 189.777344 244.074219 189.875 244.316406 C 190.019531 244.660156 190.117188 245 190.214844 245.339844 C 190.554688 246.363281 190.746094 247.480469 190.746094 248.601562 C 190.746094 248.550781 190.746094 248.601562 190.746094 248.601562 Z M 202.402344 253.515625 C 202.351562 253.664062 202.253906 253.808594 202.160156 253.90625 C 201.820312 254.296875 201.234375 254.441406 200.703125 254.296875 C 200.605469 254.246094 200.507812 254.246094 200.410156 254.199219 C 200.023438 254.003906 199.730469 253.761719 199.34375 253.515625 C 199.148438 253.417969 198.953125 253.324219 198.757812 253.226562 C 198.078125 252.933594 197.398438 252.640625 196.71875 252.347656 C 196.332031 252.203125 195.847656 252.058594 195.359375 251.8125 C 195.652344 253.371094 195.605469 254.929688 193.902344 254.78125 C 192.882812 254.539062 192.882812 253.761719 192.835938 252.933594 C 192.835938 252.835938 192.835938 252.738281 192.835938 252.640625 C 192.835938 252.347656 192.789062 252.058594 192.691406 251.8125 C 192.351562 250.5 192.011719 249.183594 191.816406 247.824219 C 191.71875 247.140625 191.71875 246.410156 191.769531 245.679688 C 191.816406 243.832031 191.332031 241.980469 191.769531 240.132812 C 191.769531 240.082031 191.769531 240.035156 191.769531 239.984375 C 192.011719 239.253906 192.59375 238.964844 193.175781 238.964844 C 193.953125 239.011719 194.679688 239.695312 194.488281 240.570312 C 194.4375 240.765625 194.390625 240.910156 194.242188 241.105469 C 194.242188 241.25 194.242188 241.398438 194.242188 241.496094 C 194.242188 241.980469 194.242188 242.46875 194.292969 243.003906 C 194.339844 243.394531 194.339844 243.734375 194.390625 244.125 C 194.488281 245.535156 194.292969 246.996094 194.535156 248.453125 C 195.261719 247.773438 196.089844 247.238281 196.914062 246.652344 C 197.058594 246.605469 197.15625 246.507812 197.304688 246.410156 C 197.933594 245.972656 198.613281 245.4375 199.390625 245.582031 C 200.070312 245.730469 200.554688 246.460938 200.410156 247.140625 C 200.363281 247.335938 200.265625 247.53125 200.121094 247.675781 C 199.925781 247.917969 199.683594 248.066406 199.390625 248.164062 C 198.664062 248.648438 197.984375 249.136719 197.253906 249.625 C 197.789062 249.867188 198.324219 250.109375 198.90625 250.304688 C 199.828125 250.695312 200.703125 251.132812 201.527344 251.714844 C 202.304688 252.007812 202.644531 252.835938 202.402344 253.515625 Z M 187.933594 246.703125 C 187.640625 245.679688 187.25 244.660156 186.71875 243.734375 C 186.328125 243.246094 185.796875 242.953125 185.457031 242.46875 C 185.164062 242.320312 184.921875 242.078125 184.777344 241.835938 C 184.339844 241.738281 183.851562 241.738281 183.367188 241.785156 C 183.074219 241.785156 182.785156 241.835938 182.492188 241.933594 C 182.007812 242.03125 181.570312 242.226562 181.132812 242.515625 C 180.941406 242.664062 180.695312 242.808594 180.503906 243.003906 C 180.308594 243.246094 180.164062 243.539062 180.015625 243.832031 C 179.726562 244.5625 179.628906 245.386719 179.484375 246.167969 C 179.433594 246.363281 179.433594 246.605469 179.386719 246.800781 C 179.191406 247.726562 178.949219 248.699219 179.335938 249.574219 C 180.210938 251.375 181.621094 253.566406 183.804688 253.515625 C 186.910156 253.664062 188.125 250.984375 188.027344 248.308594 C 188.078125 247.675781 188.027344 247.191406 187.933594 246.703125 Z M 305.484375 100.488281 C 305.390625 98.054688 305.632812 95.375 304.5625 93.136719 C 303.785156 91.871094 302.816406 90.703125 301.894531 89.535156 C 301.746094 89.339844 301.503906 89.195312 301.261719 89.097656 C 299.902344 88.804688 298.492188 88.902344 297.132812 88.609375 C 297.085938 88.609375 297.039062 88.609375 297.039062 88.609375 C 296.84375 88.609375 296.699219 88.609375 296.550781 88.5625 C 296.308594 88.609375 296.066406 88.5625 295.773438 88.417969 C 295.386719 88.320312 294.996094 88.269531 294.609375 88.222656 C 294.609375 88.222656 294.609375 88.171875 294.609375 88.171875 C 290.046875 87.976562 285.480469 88.125 280.917969 88.269531 C 280.671875 88.269531 280.429688 88.269531 280.1875 88.269531 C 278.972656 88.464844 277.761719 88.660156 276.496094 88.660156 C 276.109375 88.660156 275.769531 88.609375 275.382812 88.609375 C 274.703125 88.5625 273.972656 88.609375 273.292969 88.660156 C 272.371094 88.707031 271.449219 88.804688 270.527344 88.757812 C 268.195312 88.757812 265.863281 88.609375 263.535156 88.417969 C 260.378906 88.171875 257.222656 87.832031 254.066406 87.734375 C 253.386719 87.734375 252.707031 87.6875 252.027344 87.734375 C 251.441406 87.734375 250.859375 87.734375 250.328125 87.734375 C 246.878906 87.785156 243.527344 87.976562 239.984375 87.878906 C 236.195312 88.269531 232.507812 88.5625 228.816406 88.5625 C 228.085938 88.5625 227.359375 88.5625 226.632812 88.5625 C 224.25 88.609375 221.871094 88.855469 219.492188 88.660156 C 219.25 88.660156 219.054688 88.609375 218.8125 88.609375 C 211.675781 88.707031 204.539062 89 197.398438 89.097656 C 197.398438 89.097656 197.351562 89.097656 197.304688 89.097656 C 193.710938 89.050781 190.117188 89 186.523438 89 C 181.425781 89 176.375 89.097656 171.277344 89.292969 C 161.664062 89.488281 152.195312 88.757812 142.582031 89.097656 C 141.851562 89.144531 141.125 89.195312 140.445312 89.195312 C 136.996094 89.292969 133.550781 89 130.101562 88.902344 C 129.714844 88.902344 129.324219 88.902344 128.984375 88.855469 C 123.789062 88.953125 118.640625 88.609375 113.496094 88.757812 C 111.699219 88.707031 110 88.902344 108.300781 89.097656 C 107.039062 89.242188 105.773438 89.390625 104.511719 89.535156 C 102.617188 89.730469 100.726562 89.828125 98.832031 90.070312 C 98.832031 90.070312 98.832031 90.070312 98.78125 90.070312 C 98.78125 90.070312 98.734375 90.070312 98.734375 90.070312 C 96.453125 90.265625 94.167969 90.363281 91.839844 90.410156 C 89.652344 90.460938 87.46875 90.558594 85.285156 90.703125 C 83.148438 90.996094 81.011719 91.238281 78.875 91.628906 C 78.390625 91.726562 77.902344 91.773438 77.371094 91.871094 C 76.738281 91.96875 75.914062 92.261719 75.28125 92.210938 C 65.910156 96.15625 70.378906 108.859375 69.84375 116.792969 C 69.746094 117.621094 69.699219 118.449219 69.648438 119.273438 C 69.699219 119.273438 69.792969 119.273438 69.84375 119.273438 C 70.039062 119.273438 70.230469 119.273438 70.425781 119.273438 C 70.910156 119.273438 71.398438 119.273438 71.835938 119.226562 C 72.027344 119.226562 72.222656 119.226562 72.417969 119.226562 C 75.671875 119.226562 78.921875 118.496094 82.175781 118.496094 C 87.859375 118.640625 93.585938 118.449219 99.269531 118.15625 C 107.230469 118.058594 115.195312 117.71875 123.15625 117.621094 C 125.683594 117.570312 128.207031 117.816406 130.734375 118.058594 C 131.605469 118.15625 132.527344 118.203125 133.402344 118.253906 C 133.792969 118.300781 134.179688 118.300781 134.617188 118.300781 C 137.578125 118.398438 140.492188 118.15625 143.453125 118.253906 C 146.078125 118.351562 148.746094 118.15625 151.367188 118.058594 C 152.632812 118.058594 153.894531 118.058594 155.15625 118.058594 C 156.710938 118.105469 158.265625 118.105469 159.816406 118.105469 C 160.644531 118.105469 161.421875 118.105469 162.246094 118.058594 C 163.605469 118.058594 164.964844 118.058594 166.324219 118.011719 C 171.179688 117.960938 176.085938 117.960938 180.941406 117.960938 C 184.289062 117.960938 187.640625 117.914062 191.039062 117.863281 C 191.71875 117.863281 192.449219 117.816406 193.128906 117.816406 C 194.097656 117.816406 195.019531 117.765625 195.992188 117.71875 C 196.671875 117.667969 197.398438 117.667969 198.078125 117.621094 C 201.769531 117.425781 205.410156 117.71875 209.101562 117.765625 C 216.386719 117.523438 223.621094 118.011719 230.855469 117.863281 C 238.867188 117.570312 246.925781 118.15625 254.9375 118.351562 C 255.617188 118.351562 256.347656 118.351562 257.027344 118.351562 C 259.359375 118.351562 261.6875 118.253906 264.019531 118.15625 C 264.796875 118.105469 265.574219 118.105469 266.398438 118.058594 C 270.234375 118.011719 273.828125 118.496094 277.613281 118.203125 C 282.375 118.15625 287.082031 117.667969 291.839844 117.28125 C 295.921875 116.746094 300.046875 116.0625 304.175781 116.0625 C 304.613281 116.0625 305.097656 116.0625 305.535156 116.0625 C 305.535156 116.0625 305.582031 116.0625 305.632812 116.015625 C 305.824219 115.917969 305.972656 115.867188 306.164062 115.820312 C 306.164062 115.234375 306.164062 114.601562 306.164062 114.019531 C 306.164062 113.238281 306.164062 112.460938 306.164062 111.632812 C 305.824219 108.03125 305.535156 104.285156 305.484375 100.488281 Z M 90.238281 110.855469 C 88.972656 112.070312 85.964844 112.65625 84.75 112.363281 C 84.214844 112.21875 83.777344 111.925781 83.390625 111.632812 C 82.273438 110.757812 81.59375 109.347656 81.15625 107.835938 C 80.671875 106.183594 80.429688 104.429688 80.089844 103.019531 C 79.75 101.507812 79.992188 99.707031 80.867188 98.492188 C 81.398438 97.761719 82.175781 97.226562 83.195312 97.082031 C 84.605469 96.933594 86.207031 96.351562 87.519531 97.03125 C 88.390625 97.617188 88.246094 98.6875 87.613281 99.222656 C 87.226562 99.515625 86.742188 99.660156 86.15625 99.367188 C 85.089844 99.515625 83.4375 99.367188 82.808594 100.242188 C 82.613281 100.488281 82.515625 100.828125 82.566406 101.265625 C 82.613281 101.898438 82.660156 102.484375 82.757812 103.117188 C 82.90625 103.214844 83.003906 103.308594 83.097656 103.457031 C 83.4375 103.503906 83.777344 103.554688 84.117188 103.554688 C 84.75 103.601562 85.382812 103.601562 86.011719 103.503906 C 86.449219 103.457031 86.886719 103.40625 87.273438 103.261719 C 87.953125 103.117188 88.585938 103.554688 88.78125 104.1875 C 88.78125 104.234375 88.78125 104.234375 88.828125 104.285156 C 88.972656 105.257812 88.292969 105.695312 87.421875 105.9375 C 86.207031 106.230469 84.605469 106.132812 83.777344 106.085938 C 83.730469 106.085938 83.683594 106.085938 83.632812 106.085938 C 83.535156 106.085938 83.4375 106.085938 83.390625 106.085938 C 83.535156 106.621094 83.730469 107.15625 83.925781 107.691406 C 84.070312 108.128906 84.265625 108.519531 84.457031 108.957031 C 84.703125 109.394531 85.042969 109.589844 85.429688 109.6875 C 86.304688 109.882812 87.371094 109.441406 88.148438 109.054688 C 88.730469 108.421875 89.605469 107.984375 90.332031 108.664062 C 91.015625 109.539062 90.820312 110.269531 90.238281 110.855469 Z M 99.121094 103.699219 C 98.976562 104.089844 98.636719 104.429688 98.199219 104.574219 C 97.957031 104.671875 97.664062 104.671875 97.421875 104.574219 C 97.324219 104.527344 97.230469 104.527344 97.082031 104.480469 C 96.5 104.332031 95.871094 104.285156 95.285156 104.527344 C 94.074219 105.109375 94.558594 107.105469 94.800781 108.421875 C 94.851562 108.617188 94.851562 108.808594 94.851562 108.957031 C 95.042969 109.054688 95.191406 109.199219 95.335938 109.347656 C 95.722656 109.785156 95.722656 110.320312 95.53125 110.707031 C 95.382812 110.953125 95.191406 111.148438 94.945312 111.292969 C 94.460938 111.585938 93.78125 111.683594 93.148438 111.246094 C 92.519531 110.804688 92.375 109.929688 92.277344 109.199219 C 92.128906 108.273438 91.984375 107.300781 91.9375 106.375 C 91.789062 104.769531 92.375 103.066406 93.828125 102.289062 C 93.925781 102.238281 94.023438 102.191406 94.121094 102.140625 C 94.121094 102.140625 94.167969 102.140625 94.167969 102.140625 C 95.238281 101.65625 97.277344 101.507812 98.347656 102.140625 C 98.976562 102.386719 99.316406 102.921875 99.121094 103.699219 Z M 105.242188 104.039062 C 104.996094 104.722656 104.269531 105.109375 103.589844 104.867188 C 103.589844 104.867188 103.589844 104.867188 103.542969 104.867188 C 103.105469 104.625 102.667969 104.769531 102.375 105.109375 C 102.277344 105.207031 102.230469 105.304688 102.179688 105.402344 C 102.132812 105.550781 102.085938 105.648438 102.035156 105.792969 C 101.9375 106.132812 101.890625 106.472656 101.890625 106.816406 C 101.792969 108.082031 101.9375 109.394531 101.890625 110.660156 C 101.9375 110.804688 101.9375 111 101.890625 111.148438 C 101.839844 111.292969 101.792969 111.488281 101.695312 111.632812 C 101.308594 112.265625 100.433594 112.363281 99.800781 111.972656 C 99.707031 111.925781 99.65625 111.828125 99.558594 111.78125 C 99.171875 111.390625 99.21875 110.855469 99.21875 110.320312 C 99.21875 110.222656 99.21875 110.074219 99.21875 109.980469 C 99.21875 107.691406 98.78125 104.917969 100.53125 103.117188 C 100.578125 103.019531 100.675781 102.96875 100.773438 102.871094 C 101.746094 102.042969 103.929688 101.800781 104.804688 102.628906 C 105.191406 102.96875 105.335938 103.457031 105.242188 104.039062 Z M 115.484375 108.179688 C 115.4375 108.566406 115.339844 108.90625 115.195312 109.25 C 114.613281 110.804688 113.300781 112.070312 111.699219 112.316406 C 111.40625 112.363281 111.066406 112.363281 110.777344 112.316406 C 109.222656 112.167969 107.960938 111.097656 106.941406 109.980469 C 106.453125 109.441406 106.164062 108.859375 106.066406 108.273438 C 105.824219 107.15625 106.164062 105.988281 106.988281 105.015625 C 107.085938 104.867188 107.230469 104.769531 107.328125 104.625 C 107.378906 104.574219 107.425781 104.527344 107.472656 104.480469 C 108.347656 103.652344 109.511719 103.164062 110.726562 103.117188 C 110.824219 103.066406 110.96875 103.066406 111.066406 103.019531 C 111.261719 103.019531 111.40625 103.019531 111.601562 103.066406 C 111.84375 103.117188 112.085938 103.261719 112.28125 103.503906 C 112.378906 103.503906 112.425781 103.503906 112.523438 103.503906 C 112.71875 103.503906 112.863281 103.554688 113.058594 103.652344 C 113.105469 103.652344 113.15625 103.699219 113.203125 103.75 C 113.785156 104.089844 114.273438 104.574219 114.660156 105.109375 C 114.710938 105.160156 114.710938 105.207031 114.757812 105.257812 C 115 105.597656 115.144531 105.988281 115.292969 106.425781 C 115.535156 106.960938 115.535156 107.59375 115.484375 108.179688 Z M 123.304688 104.820312 C 122.964844 105.453125 122.1875 105.695312 121.554688 105.402344 C 121.3125 105.304688 121.070312 105.257812 120.828125 105.207031 C 120.148438 105.160156 119.46875 105.5 119.566406 106.328125 C 119.613281 107.351562 119.808594 108.371094 120 109.394531 C 120.097656 110.027344 120.339844 110.660156 119.953125 111.246094 C 119.90625 111.292969 119.855469 111.339844 119.855469 111.390625 C 119.855469 111.390625 119.808594 111.4375 119.808594 111.4375 C 119.757812 111.488281 119.710938 111.488281 119.660156 111.535156 C 119.613281 111.535156 119.613281 111.585938 119.566406 111.585938 C 119.515625 111.632812 119.417969 111.683594 119.371094 111.683594 C 118.980469 111.828125 118.496094 111.828125 118.15625 111.535156 C 117.816406 111.292969 117.574219 110.902344 117.574219 110.464844 C 117.429688 109.785156 117.28125 109.101562 117.183594 108.371094 C 116.117188 103.847656 118.933594 102.335938 121.167969 102.484375 C 122.625 102.675781 123.835938 103.554688 123.304688 104.820312 Z M 112.574219 106.570312 C 112.523438 106.523438 112.476562 106.425781 112.425781 106.375 C 112.136719 106.132812 111.796875 105.9375 111.554688 105.648438 C 111.164062 105.742188 110.777344 105.792969 110.386719 105.839844 C 110.195312 105.890625 110 105.9375 109.804688 106.085938 C 109.511719 106.28125 109.222656 106.523438 109.027344 106.816406 C 108.832031 107.058594 108.6875 107.351562 108.640625 107.640625 C 108.738281 107.886719 108.929688 108.128906 109.078125 108.371094 C 109.609375 109.054688 110.4375 109.636719 111.261719 109.734375 C 111.40625 109.734375 111.503906 109.6875 111.648438 109.636719 C 112.621094 109.25 113.15625 107.933594 112.816406 106.960938 C 112.71875 106.816406 112.667969 106.667969 112.574219 106.570312 Z M 112.574219 106.570312 " fill-opacity="1" fill-rule="nonzero"/><path fill="#ffe5b3" d="M 305.921875 129.351562 C 305.921875 128.230469 305.921875 127.113281 305.972656 125.992188 C 306.019531 123.605469 306.070312 121.222656 306.117188 118.835938 C 306.070312 118.835938 305.972656 118.835938 305.921875 118.835938 C 305.730469 118.835938 305.535156 118.789062 305.339844 118.789062 C 302.765625 118.691406 300.191406 118.984375 297.621094 119.273438 C 291.066406 120.101562 284.460938 120.832031 277.859375 120.929688 C 276.15625 121.027344 274.507812 121.027344 272.808594 120.980469 C 271.835938 120.929688 270.867188 120.882812 269.847656 120.832031 C 268.777344 120.785156 267.757812 120.785156 266.691406 120.785156 C 264.214844 120.832031 261.6875 120.980469 259.210938 121.027344 C 257.316406 121.078125 255.425781 121.027344 253.480469 120.980469 C 250.375 120.929688 247.316406 120.785156 244.207031 120.6875 C 241.78125 120.589844 239.402344 120.492188 236.972656 120.445312 C 235.953125 120.445312 234.933594 120.492188 233.914062 120.492188 C 231.632812 120.539062 229.351562 120.589844 227.066406 120.589844 C 224.25 120.589844 221.433594 120.539062 218.617188 120.394531 C 212.648438 120.394531 206.675781 120.445312 200.703125 120.199219 C 191.183594 120.636719 181.621094 120.492188 172.101562 120.6875 C 166.082031 120.445312 160.058594 120.832031 154.039062 120.6875 C 151.707031 120.636719 149.378906 120.785156 147.046875 120.882812 C 143.550781 120.929688 140.054688 120.832031 136.511719 120.980469 C 135.878906 120.980469 135.25 120.980469 134.617188 120.929688 C 131.703125 120.832031 128.789062 120.492188 125.925781 120.296875 C 118.253906 120.199219 110.628906 120.492188 102.957031 120.734375 C 96.890625 120.980469 90.867188 121.171875 84.796875 121.171875 C 82.417969 121.027344 80.039062 121.222656 77.660156 121.464844 C 76.203125 121.613281 74.699219 121.757812 73.242188 121.855469 C 72.125 121.902344 71.058594 121.953125 69.941406 121.902344 C 69.941406 121.902344 69.890625 121.902344 69.890625 121.902344 C 69.792969 121.902344 69.648438 121.855469 69.550781 121.855469 C 69.359375 127.550781 69.550781 133.246094 69.699219 138.941406 C 69.699219 149.695312 70.132812 160.453125 70.570312 171.210938 C 70.71875 175.296875 70.910156 179.339844 71.058594 183.425781 C 71.347656 191.019531 71.542969 198.613281 71.542969 206.207031 C 71.640625 212.386719 71.445312 218.519531 71.496094 224.703125 C 71.445312 230.835938 71.882812 236.917969 71.785156 243.050781 C 71.835938 252.59375 71.640625 262.179688 72.515625 271.671875 C 73.097656 275.324219 72.855469 279.363281 74.84375 282.574219 C 75.039062 282.820312 75.234375 283.011719 75.378906 283.207031 C 76.253906 284.132812 77.222656 284.960938 78.339844 285.542969 C 78.535156 285.59375 78.730469 285.640625 78.921875 285.691406 C 79.3125 285.789062 79.699219 285.835938 80.089844 285.886719 C 80.332031 285.933594 80.574219 285.933594 80.867188 286.03125 C 81.640625 286.175781 82.371094 286.519531 83.097656 286.710938 C 83.246094 286.761719 83.34375 286.808594 83.488281 286.808594 C 84.945312 287.003906 86.402344 287.101562 87.90625 287.054688 C 88.050781 286.90625 88.246094 286.808594 88.441406 286.761719 C 88.828125 286.710938 89.167969 286.664062 89.558594 286.664062 C 89.558594 286.664062 89.558594 286.664062 89.605469 286.664062 C 90.238281 286.664062 90.917969 286.761719 91.546875 286.710938 C 94.703125 286.710938 97.910156 286.371094 101.066406 286.324219 C 103.054688 286.273438 105.046875 286.324219 107.039062 286.371094 C 109.757812 286.46875 112.523438 286.664062 115.242188 286.859375 C 117.183594 286.957031 119.128906 287.054688 121.070312 287.054688 C 121.894531 287.054688 122.671875 287.054688 123.449219 287.054688 C 125.148438 287.003906 126.847656 286.957031 128.546875 286.90625 C 129.375 286.90625 130.199219 286.90625 131.023438 286.90625 C 134.617188 287.101562 138.210938 286.808594 141.804688 286.859375 C 148.894531 286.859375 155.933594 286.46875 162.972656 286.421875 C 170.644531 286.421875 178.316406 286.957031 185.941406 286.957031 C 187.882812 286.957031 189.777344 287.003906 191.71875 287.054688 C 192.496094 287.054688 193.273438 287.101562 194.050781 287.101562 C 195.699219 287.152344 197.398438 287.152344 199.050781 287.101562 C 202.304688 287.054688 205.507812 287.199219 208.761719 287.296875 C 211.917969 287.441406 215.027344 287.152344 218.183594 287.246094 C 220.269531 287.394531 222.308594 287.394531 224.398438 287.394531 C 225.417969 287.394531 226.386719 287.394531 227.40625 287.34375 C 228.765625 287.34375 230.125 287.34375 231.535156 287.394531 C 240.128906 287.832031 248.722656 287.832031 257.316406 287.6875 C 259.359375 287.539062 261.347656 287.589844 263.386719 287.734375 C 268 287.832031 272.515625 287.6875 277.082031 287.34375 C 278.539062 287.246094 280.042969 287.246094 281.5 287.199219 C 283.148438 287.152344 284.800781 287.054688 286.453125 286.761719 C 288.199219 286.421875 289.949219 286.03125 291.648438 285.640625 C 293.105469 285.300781 294.511719 284.910156 295.921875 284.570312 C 296.355469 284.375 296.792969 284.230469 297.28125 284.085938 C 298.007812 283.839844 298.6875 283.546875 299.367188 283.160156 C 300.289062 282.527344 300.921875 281.652344 301.503906 280.675781 C 301.988281 279.800781 302.378906 278.875 302.765625 277.953125 C 302.960938 277.511719 303.15625 277.027344 303.300781 276.589844 C 303.6875 275.664062 303.933594 274.691406 304.078125 273.667969 C 304.273438 272.355469 304.320312 270.992188 304.320312 269.628906 C 304.320312 268.945312 304.320312 268.214844 304.320312 267.535156 C 304.273438 264.957031 304.660156 262.425781 304.371094 259.84375 C 304.320312 259.699219 304.320312 259.601562 304.320312 259.503906 C 304.320312 259.503906 304.320312 259.457031 304.273438 259.457031 C 304.027344 259.015625 304.078125 258.53125 304.320312 258.140625 C 304.078125 250.644531 304.464844 243.148438 304.660156 235.652344 C 304.175781 231.320312 304.222656 226.988281 303.980469 222.65625 C 304.5625 212.144531 304.804688 201.632812 304.757812 191.070312 C 304.953125 186.054688 305.292969 181.042969 305.4375 176.078125 C 305.679688 172.039062 305.632812 167.996094 305.4375 164.007812 C 305.484375 161.328125 305.632812 158.605469 305.535156 155.925781 C 305.679688 147.019531 306.164062 138.160156 305.921875 129.351562 Z M 214.976562 163.375 C 215.558594 161.863281 217.695312 162.496094 217.503906 163.957031 C 217.503906 164.054688 217.453125 164.152344 217.453125 164.25 C 217.40625 164.394531 217.355469 164.542969 217.308594 164.6875 C 216.96875 165.953125 217.355469 167.316406 217.453125 168.628906 C 218.375 168.4375 219.347656 168.386719 219.640625 169.554688 C 219.6875 169.75 219.640625 169.894531 219.640625 170.089844 C 219.589844 170.332031 219.492188 170.527344 219.347656 170.675781 C 218.910156 171.113281 218.183594 171.257812 217.550781 171.355469 C 217.550781 171.453125 217.550781 171.503906 217.550781 171.597656 C 217.648438 172.621094 217.792969 173.644531 218.085938 174.664062 C 218.132812 174.8125 218.132812 174.957031 218.183594 175.054688 C 218.328125 175.6875 218.425781 176.371094 218.667969 177.003906 C 218.8125 177.292969 218.960938 177.585938 219.203125 177.828125 C 219.492188 177.730469 219.6875 177.539062 219.882812 177.34375 C 220.367188 176.808594 221.191406 176.757812 221.726562 177.246094 C 222.019531 177.539062 222.113281 177.828125 222.164062 178.121094 C 222.261719 179.386719 220.222656 180.554688 219.054688 180.507812 C 217.890625 180.359375 217.113281 179.679688 216.628906 178.804688 C 215.949219 177.636719 215.707031 176.078125 215.464844 174.859375 C 214.878906 173.253906 214.878906 171.550781 214.878906 169.847656 C 214.878906 169.796875 214.878906 169.75 214.878906 169.703125 C 214.878906 169.605469 214.878906 169.507812 214.878906 169.410156 C 214.78125 167.414062 214.152344 165.320312 214.976562 163.375 Z M 215.074219 192.335938 C 215.949219 192.140625 216.871094 192.335938 218.035156 192.773438 C 219.589844 192.527344 220.902344 193.699219 221.433594 195.109375 C 221.582031 195.5 221.679688 195.886719 221.679688 196.277344 C 221.773438 199.246094 219.203125 201.921875 216.191406 201.777344 C 216.191406 201.777344 216.144531 201.777344 216.144531 201.777344 C 211.96875 201.582031 209.683594 197.300781 212.597656 194.039062 C 213.472656 193.066406 214.25 192.527344 215.074219 192.335938 Z M 210.65625 168.777344 C 211.09375 168.875 211.382812 169.117188 211.53125 169.410156 C 211.53125 169.410156 211.53125 169.457031 211.53125 169.457031 C 211.628906 169.652344 211.675781 169.894531 211.675781 170.089844 C 211.628906 170.820312 211.042969 171.550781 210.121094 171.355469 C 209.199219 171.210938 208.566406 172.378906 208.226562 173.109375 C 209.734375 174.472656 212.453125 173.546875 213.519531 175.589844 C 213.859375 176.175781 214.007812 177.097656 213.859375 177.828125 C 213.8125 178.171875 213.667969 178.460938 213.519531 178.707031 C 213.230469 179.046875 212.839844 179.242188 212.257812 179.191406 C 212.160156 179.191406 212.113281 179.144531 212.015625 179.09375 C 211.480469 178.851562 211.09375 178.21875 211.238281 177.636719 C 211.289062 177.539062 211.289062 177.441406 211.289062 177.34375 C 211.289062 177.246094 211.289062 177.148438 211.289062 177.050781 C 211.289062 177.003906 211.289062 177.003906 211.289062 176.953125 C 210.363281 176.417969 209.152344 176.5625 208.132812 176.125 C 207.0625 175.738281 206.089844 174.957031 205.65625 173.886719 C 205.167969 171.40625 208.132812 167.996094 210.65625 168.777344 Z M 206.238281 192.480469 C 206.480469 192.335938 206.675781 192.285156 206.917969 192.1875 C 206.964844 192.1875 207.0625 192.140625 207.160156 192.140625 C 207.207031 192.140625 207.257812 192.089844 207.355469 192.089844 C 207.886719 191.992188 208.472656 192.042969 209.101562 192.1875 C 209.636719 192.285156 210.023438 192.722656 210.121094 193.210938 C 210.171875 193.40625 210.171875 193.550781 210.121094 193.746094 C 210.074219 193.890625 210.023438 193.988281 209.976562 194.085938 C 209.976562 194.085938 209.976562 194.136719 209.925781 194.136719 C 209.925781 194.183594 209.878906 194.183594 209.878906 194.234375 C 209.878906 194.28125 209.832031 194.28125 209.832031 194.328125 C 209.832031 194.328125 209.78125 194.378906 209.78125 194.378906 C 209.78125 194.425781 209.734375 194.425781 209.734375 194.425781 C 209.734375 194.425781 209.683594 194.476562 209.683594 194.476562 C 209.636719 194.476562 209.636719 194.523438 209.585938 194.523438 C 209.585938 194.523438 209.539062 194.523438 209.539062 194.574219 C 209.492188 194.574219 209.492188 194.621094 209.441406 194.621094 C 209.441406 194.621094 209.394531 194.621094 209.394531 194.621094 C 209.34375 194.621094 209.34375 194.671875 209.296875 194.671875 C 209.296875 194.671875 209.246094 194.671875 209.246094 194.671875 C 209.199219 194.671875 209.152344 194.671875 209.152344 194.71875 C 209.152344 194.71875 209.101562 194.71875 209.101562 194.71875 C 209.054688 194.71875 209.003906 194.71875 208.957031 194.71875 C 208.957031 194.71875 208.90625 194.71875 208.90625 194.71875 C 208.859375 194.71875 208.8125 194.71875 208.761719 194.71875 C 208.761719 194.71875 208.714844 194.71875 208.714844 194.71875 C 208.664062 194.71875 208.617188 194.71875 208.566406 194.71875 C 208.566406 194.71875 208.519531 194.71875 208.519531 194.71875 C 208.375 194.71875 208.277344 194.71875 208.132812 194.71875 C 208.082031 194.71875 208.035156 194.71875 207.984375 194.71875 C 207.984375 194.71875 207.9375 194.71875 207.9375 194.71875 C 207.886719 194.71875 207.839844 194.71875 207.792969 194.71875 C 207.792969 194.71875 207.742188 194.71875 207.742188 194.71875 C 207.695312 194.71875 207.644531 194.71875 207.597656 194.71875 C 206.527344 195.15625 206.480469 198.46875 206.382812 199.441406 C 206.480469 199.488281 206.578125 199.585938 206.675781 199.683594 C 207.402344 200.511719 206.722656 201.824219 205.703125 202.167969 C 205.460938 202.265625 205.21875 202.265625 204.976562 202.214844 C 204.148438 202.117188 203.859375 201.289062 203.761719 200.21875 C 203.617188 198.566406 204.101562 196.375 204.246094 195.5 C 204.539062 194.085938 205.265625 193.015625 206.238281 192.480469 Z M 194.292969 170.773438 C 194.582031 170.480469 195.070312 170.332031 195.507812 170.382812 C 195.796875 170.429688 196.039062 170.578125 196.285156 170.871094 C 196.378906 171.015625 196.476562 171.160156 196.527344 171.308594 C 196.769531 171.941406 196.71875 172.621094 196.816406 173.304688 C 196.816406 173.496094 196.867188 173.644531 196.914062 173.789062 C 197.058594 174.570312 197.449219 175.296875 197.886719 175.980469 C 198.566406 176.222656 199.097656 176.320312 199.535156 176.320312 C 200.652344 176.273438 200.847656 175.445312 201.234375 174.8125 C 200.992188 173.839844 200.75 172.816406 200.410156 171.890625 C 199.925781 170.625 200.894531 168.484375 202.449219 169.214844 C 202.691406 169.359375 202.886719 169.554688 203.03125 169.796875 C 203.226562 170.238281 203.226562 170.722656 202.933594 171.113281 C 204.148438 175.492188 206.769531 183.328125 202.160156 186.445312 C 200.847656 187.027344 199.34375 186.980469 197.933594 187.027344 C 197.59375 187.027344 197.253906 186.929688 196.964844 186.6875 C 196.527344 186.300781 196.429688 185.761719 196.625 185.277344 C 196.867188 184.691406 197.449219 184.253906 198.226562 184.402344 C 198.566406 184.351562 199.003906 184.402344 199.390625 184.402344 C 200.121094 184.402344 200.847656 184.304688 201.285156 183.816406 C 201.429688 183.574219 201.574219 183.328125 201.722656 183.085938 C 202.351562 181.675781 202.253906 179.972656 201.964844 178.269531 C 201.671875 178.460938 201.332031 178.609375 200.992188 178.707031 C 200.460938 178.902344 199.828125 178.949219 199.246094 178.949219 C 198.273438 178.902344 197.207031 178.65625 196.378906 178.121094 C 195.894531 177.683594 195.554688 177.195312 195.261719 176.660156 C 194.535156 175.394531 194.242188 173.886719 194.148438 172.425781 C 193.757812 171.792969 193.902344 171.160156 194.292969 170.773438 Z M 198.808594 200.171875 C 198.808594 200.21875 198.808594 200.316406 198.808594 200.367188 C 199.050781 200.558594 199.246094 200.753906 199.34375 200.949219 C 199.78125 201.875 198.90625 203.042969 197.691406 202.898438 C 196.476562 202.703125 196.234375 201.535156 196.136719 200.316406 C 196.089844 199.441406 196.1875 198.566406 196.136719 197.933594 C 196.1875 196.667969 196.136719 195.253906 196.867188 194.136719 C 197.546875 193.160156 198.613281 192.527344 199.78125 192.1875 C 200.167969 192.089844 200.605469 191.992188 201.089844 191.992188 C 202.253906 191.894531 203.519531 192.140625 203.519531 193.453125 C 203.46875 194.136719 202.839844 194.769531 202.109375 194.671875 C 201.042969 194.476562 199.828125 194.71875 199.097656 195.59375 C 198.566406 196.957031 198.757812 198.660156 198.808594 200.171875 Z M 192.980469 189.65625 C 193.03125 190.386719 192.449219 191.019531 191.769531 191.070312 C 191.523438 191.070312 191.234375 191.117188 190.992188 191.117188 C 189.679688 191.214844 188.417969 191.359375 187.105469 191.457031 C 186.816406 191.457031 186.570312 191.507812 186.28125 191.507812 C 186.230469 191.507812 186.183594 191.507812 186.136719 191.507812 C 186.136719 191.605469 186.136719 191.703125 186.136719 191.800781 C 186.136719 191.945312 186.085938 192.089844 186.085938 192.285156 C 186.085938 192.433594 186.039062 192.578125 186.039062 192.675781 C 185.988281 193.355469 185.890625 194.039062 185.84375 194.671875 C 186.085938 194.671875 186.378906 194.71875 186.621094 194.960938 C 187.398438 194.769531 188.222656 194.621094 189 194.476562 C 189.339844 194.425781 189.679688 194.328125 189.972656 194.28125 C 190.40625 194.234375 190.84375 194.328125 191.136719 194.621094 C 191.332031 194.816406 191.425781 195.011719 191.523438 195.304688 C 191.671875 195.984375 191.183594 196.714844 190.503906 196.859375 C 189 197.007812 187.445312 197.589844 185.988281 197.785156 C 186.328125 199.246094 186.863281 200.753906 187.835938 201.921875 C 187.882812 201.972656 187.933594 202.019531 187.980469 202.070312 C 187.980469 202.070312 188.027344 202.117188 188.027344 202.117188 C 188.613281 202.652344 189.339844 202.605469 190.019531 202.214844 C 190.457031 201.972656 190.84375 201.582031 191.136719 201.191406 C 191.28125 201.046875 191.425781 200.902344 191.621094 200.851562 C 192.738281 200.367188 194.097656 201.777344 193.128906 202.945312 C 192.933594 203.238281 192.691406 203.480469 192.398438 203.722656 C 190.746094 205.234375 188.222656 205.71875 186.425781 204.113281 C 186.230469 203.96875 186.136719 203.820312 185.941406 203.625 C 185.308594 202.945312 184.824219 202.167969 184.484375 201.339844 C 184.386719 201.09375 184.289062 200.902344 184.191406 200.65625 C 183.707031 199.34375 183.171875 198.027344 183.171875 196.617188 C 183.074219 193.988281 183.609375 191.359375 183.5625 188.78125 C 183.707031 188.390625 184 188.101562 184.339844 188.003906 C 184.921875 187.808594 185.699219 188.003906 185.988281 188.636719 C 186.085938 188.636719 186.136719 188.683594 186.230469 188.734375 C 186.570312 188.734375 186.960938 188.734375 187.300781 188.683594 C 187.6875 188.636719 188.078125 188.636719 188.417969 188.585938 C 188.660156 188.539062 188.855469 188.539062 189.097656 188.539062 C 190.359375 188.539062 192.496094 187.757812 192.882812 189.414062 C 192.933594 189.511719 192.980469 189.558594 192.980469 189.65625 Z M 180.84375 167.65625 C 180.84375 167.609375 180.84375 167.609375 180.890625 167.609375 C 181.085938 167.171875 181.328125 166.730469 181.570312 166.292969 C 181.621094 166.195312 181.667969 166.097656 181.765625 166.003906 C 181.765625 166.003906 181.765625 166.003906 181.8125 165.953125 C 182.542969 164.929688 183.511719 164.054688 184.582031 163.324219 C 185.019531 163.03125 185.503906 162.691406 185.941406 162.449219 C 187.542969 161.621094 189.632812 161.765625 191.136719 162.644531 C 191.476562 162.9375 191.574219 163.324219 191.574219 163.664062 C 191.523438 164.445312 190.746094 165.175781 189.824219 164.929688 C 189.726562 164.882812 189.582031 164.832031 189.484375 164.785156 C 189.195312 164.6875 188.855469 164.589844 188.5625 164.542969 C 187.007812 164.347656 185.84375 165.660156 184.777344 166.585938 C 184.726562 166.632812 184.679688 166.683594 184.628906 166.730469 C 183.949219 167.316406 183.511719 168.09375 183.269531 168.972656 C 183.171875 169.261719 183.125 169.554688 183.074219 169.847656 C 184.046875 171.308594 186.136719 171.160156 187.640625 171.648438 C 188.078125 171.746094 188.5625 171.890625 189 172.039062 C 189.632812 172.230469 190.214844 172.476562 190.746094 172.816406 C 191.136719 173.058594 191.476562 173.351562 191.769531 173.691406 C 191.914062 173.839844 192.058594 174.03125 192.203125 174.226562 C 192.738281 175.054688 192.933594 176.078125 192.835938 177.050781 C 192.789062 177.585938 192.691406 178.121094 192.542969 178.65625 C 192.542969 178.707031 192.496094 178.753906 192.496094 178.804688 C 192.496094 178.851562 192.496094 178.851562 192.449219 178.902344 C 192.449219 178.902344 192.449219 178.902344 192.449219 178.949219 C 192.203125 179.535156 191.71875 180.167969 191.183594 180.410156 C 190.746094 180.605469 190.3125 180.605469 189.824219 180.167969 C 189.484375 179.875 189.339844 179.4375 189.386719 178.996094 C 189.4375 178.753906 189.535156 178.511719 189.726562 178.316406 C 189.972656 177.878906 190.164062 177.441406 190.214844 177.097656 C 190.601562 175.394531 188.953125 174.714844 187.007812 174.226562 C 186.28125 174.03125 185.503906 173.886719 184.777344 173.691406 C 183.511719 173.402344 182.347656 173.011719 181.714844 172.328125 C 180.066406 171.015625 180.113281 169.410156 180.84375 167.65625 Z M 150.738281 219.054688 C 149.667969 219.640625 148.550781 220.222656 147.4375 220.761719 C 146.609375 221.148438 145.785156 221.488281 144.910156 221.734375 C 144.085938 222.074219 143.210938 222.367188 142.335938 222.609375 C 141.316406 222.902344 140.296875 223.195312 139.328125 223.535156 C 138.550781 223.921875 137.726562 224.214844 136.851562 224.410156 C 136.363281 224.554688 135.832031 224.652344 135.34375 224.703125 C 134.910156 224.800781 134.421875 224.847656 133.984375 224.847656 C 133.304688 224.898438 132.625 224.898438 131.945312 224.847656 C 131.605469 224.847656 131.21875 224.800781 130.878906 224.800781 C 130.441406 224.800781 129.957031 224.800781 129.519531 224.847656 C 128.304688 224.898438 127.089844 224.996094 125.878906 224.996094 C 125.441406 224.996094 125.003906 224.996094 124.566406 224.945312 C 122.285156 224.605469 119.90625 224.214844 117.769531 223.242188 C 116.261719 222.464844 114.953125 221.34375 113.496094 220.46875 C 111.601562 219.445312 109.851562 218.132812 108.25 216.71875 C 107.910156 216.429688 107.621094 216.183594 107.28125 215.890625 C 105.824219 214.820312 104.414062 213.703125 103.542969 212.046875 C 103.492188 211.949219 103.445312 211.902344 103.394531 211.804688 C 102.425781 210.148438 101.308594 208.589844 100.628906 206.839844 C 100.578125 206.742188 100.578125 206.691406 100.53125 206.597656 C 99.753906 204.648438 98.589844 202.898438 97.910156 200.902344 C 96.597656 196.859375 96.210938 192.625 95.820312 188.441406 C 95.773438 184.402344 97.617188 180.652344 98.394531 176.757812 C 99.753906 171.257812 102.617188 165.953125 107.183594 162.496094 C 108.058594 161.765625 108.929688 160.988281 109.851562 160.210938 C 110.339844 159.773438 110.875 159.332031 111.40625 158.945312 C 112.234375 158.359375 113.058594 157.777344 113.980469 157.339844 C 115.292969 156.753906 116.601562 156.167969 117.914062 155.585938 C 120.390625 154.367188 122.964844 153.394531 125.683594 152.910156 C 127.722656 152.519531 129.808594 151.984375 131.898438 152.277344 C 132.238281 152.324219 132.625 152.421875 132.964844 152.46875 C 133.207031 152.519531 133.453125 152.566406 133.695312 152.617188 C 134.035156 152.664062 134.375 152.761719 134.714844 152.8125 C 135.003906 152.375 135.394531 152.226562 135.878906 152.226562 C 136.363281 152.226562 136.800781 152.375 137.238281 152.46875 C 139.667969 152.375 142.046875 152.859375 144.425781 153.394531 C 144.621094 153.445312 144.8125 153.445312 145.007812 153.492188 C 147 153.882812 148.796875 154.757812 150.542969 155.78125 C 150.882812 155.976562 151.222656 156.167969 151.5625 156.414062 C 155.15625 157.777344 158.019531 160.40625 160.59375 163.179688 C 160.742188 163.324219 160.835938 163.472656 160.933594 163.617188 C 162.925781 166.050781 164.722656 168.726562 165.984375 171.597656 C 166.617188 173.449219 167.101562 175.347656 167.730469 177.195312 C 168.167969 178.460938 168.460938 179.777344 168.847656 181.042969 C 168.945312 181.335938 169.042969 181.625 169.140625 181.917969 C 169.578125 183.085938 170.0625 184.304688 170.304688 185.519531 C 170.355469 185.910156 170.453125 186.296875 170.453125 186.738281 C 170.5 191.554688 169.238281 196.226562 167.539062 200.65625 C 166.710938 202.652344 165.644531 204.550781 164.820312 206.546875 C 163.703125 208.542969 161.90625 209.953125 160.546875 211.707031 C 158.796875 213.945312 156.5625 215.796875 154.089844 217.15625 C 152.921875 217.886719 151.804688 218.472656 150.738281 219.054688 Z M 226 256.144531 C 225.855469 258.09375 225.269531 259.992188 223.960938 261.644531 C 222.019531 264.03125 219.832031 263.882812 217.113281 264.226562 C 216.53125 264.371094 215.898438 264.421875 215.269531 264.46875 C 214.25 264.515625 213.179688 264.515625 212.160156 264.46875 C 211.675781 264.46875 211.191406 264.46875 210.703125 264.46875 C 207.402344 264.46875 204.148438 265.101562 200.847656 264.90625 C 200.410156 264.859375 199.925781 264.859375 199.488281 264.808594 C 198.566406 264.761719 197.691406 264.710938 196.769531 264.761719 C 196.234375 264.761719 195.75 264.808594 195.214844 264.90625 C 192.789062 265.34375 190.3125 265.296875 187.882812 265.441406 C 184.777344 265.832031 181.621094 265.734375 178.511719 265.878906 C 175.0625 266.222656 171.566406 266.511719 168.121094 266.125 C 165.691406 265.636719 163.023438 265.199219 161.082031 263.542969 C 160.789062 263.25 160.59375 262.960938 160.398438 262.617188 C 160.109375 262.082031 159.964844 261.449219 159.769531 260.816406 C 159.671875 260.429688 159.574219 260.039062 159.476562 259.601562 C 159.1875 257.945312 159.039062 256.292969 158.699219 254.683594 C 158.652344 254.539062 158.652344 254.441406 158.605469 254.296875 C 158.605469 254.199219 158.554688 254.101562 158.554688 254.003906 C 158.410156 252.542969 158.410156 251.082031 158.3125 249.625 C 158.265625 249.039062 158.214844 248.453125 158.117188 247.871094 C 157.925781 245.875 157.679688 243.832031 157.730469 241.835938 C 157.390625 238.429688 158.117188 234.679688 161.03125 232.539062 C 161.226562 232.441406 161.421875 232.34375 161.566406 232.246094 C 162.828125 231.664062 164.1875 231.371094 165.546875 231.078125 C 165.886719 231.03125 166.179688 230.933594 166.519531 230.882812 C 179.871094 229.421875 193.371094 229.8125 206.820312 230.496094 C 211.871094 230.785156 217.015625 230.6875 221.96875 231.953125 C 222.113281 232.003906 222.210938 232.050781 222.359375 232.101562 C 222.84375 232.34375 223.085938 232.878906 223.039062 233.464844 C 223.425781 235.554688 223.765625 237.648438 224.058594 239.742188 C 224.347656 241.933594 224.6875 244.074219 224.980469 246.265625 C 225.078125 246.996094 225.175781 247.726562 225.269531 248.453125 C 225.367188 249.234375 225.515625 250.109375 225.609375 250.9375 C 225.609375 250.9375 225.609375 250.984375 225.609375 250.984375 C 225.609375 251.035156 225.609375 251.082031 225.609375 251.132812 C 226 252.835938 226.144531 254.492188 226 256.144531 Z M 229.882812 193.257812 C 229.785156 193.453125 229.691406 193.648438 229.59375 193.792969 C 229.058594 194.328125 228.28125 194.085938 227.457031 193.890625 C 226.972656 193.792969 226.535156 193.746094 226.097656 193.890625 C 224.15625 194.378906 225.027344 196.910156 225.027344 198.371094 C 225.269531 198.613281 225.367188 198.90625 225.417969 199.199219 C 225.464844 199.683594 225.175781 200.121094 224.785156 200.414062 C 224.6875 200.464844 224.589844 200.511719 224.496094 200.558594 C 224.445312 200.558594 224.445312 200.558594 224.398438 200.609375 C 224.347656 200.65625 224.347656 200.65625 224.300781 200.65625 C 224.15625 200.707031 224.007812 200.707031 223.863281 200.707031 C 222.890625 200.65625 222.453125 199.636719 222.453125 198.808594 C 222.308594 196.957031 221.921875 194.867188 222.941406 193.160156 C 223.425781 192.433594 224.15625 191.945312 224.929688 191.605469 C 225.027344 191.554688 225.125 191.507812 225.269531 191.457031 C 226.824219 190.875 230.417969 191.070312 229.882812 193.257812 Z M 227.214844 175.394531 C 227.457031 175.589844 227.746094 175.785156 228.039062 175.929688 C 228.476562 176.175781 228.960938 176.371094 229.445312 176.46875 C 230.175781 176.175781 231.097656 176.417969 231.390625 177.246094 C 231.488281 177.488281 231.488281 177.683594 231.4375 177.878906 C 231.292969 178.707031 230.222656 179.191406 229.351562 179.09375 C 228.671875 178.996094 227.992188 178.804688 227.359375 178.511719 C 226.046875 177.925781 224.882812 177.003906 224.105469 175.785156 C 223.523438 174.859375 223.183594 173.789062 223.328125 172.621094 C 223.378906 172.136719 223.425781 171.648438 223.570312 171.160156 C 223.71875 170.527344 223.960938 169.894531 224.25 169.3125 C 224.640625 168.582031 225.125 167.949219 225.855469 167.511719 C 226.972656 166.585938 228.71875 166.539062 230.03125 167.171875 C 230.03125 167.171875 230.078125 167.171875 230.078125 167.21875 C 230.078125 167.21875 230.125 167.21875 230.125 167.265625 C 231.097656 167.804688 231.828125 168.679688 231.730469 169.992188 C 231.4375 172.476562 228.960938 173.9375 227.214844 175.394531 Z M 249.160156 177.097656 C 249.113281 177.390625 248.917969 177.636719 248.773438 177.828125 C 248.53125 178.074219 248.191406 178.171875 247.851562 178.121094 C 247.460938 178.121094 247.074219 177.925781 246.78125 177.585938 C 246.585938 177.34375 246.492188 176.953125 246.539062 176.5625 C 246.878906 174.570312 246.78125 172.425781 245.808594 170.625 C 245.761719 170.527344 245.664062 170.429688 245.617188 170.285156 C 245.519531 170.089844 245.421875 169.945312 245.277344 169.796875 C 245.226562 169.703125 245.128906 169.652344 245.035156 169.605469 C 244.9375 169.554688 244.789062 169.507812 244.695312 169.457031 C 244.207031 169.359375 243.722656 169.359375 243.527344 169.75 C 243.480469 169.847656 243.429688 169.945312 243.429688 170.089844 C 243.042969 171.550781 242.898438 173.058594 242.65625 174.519531 C 242.558594 175.296875 242.410156 176.125 242.21875 176.855469 C 242.121094 177.097656 241.972656 177.246094 241.828125 177.390625 C 241.148438 178.023438 239.886719 177.730469 239.644531 176.660156 C 239.644531 176.125 239.644531 175.589844 239.644531 175.054688 C 239.644531 174.664062 239.644531 174.324219 239.644531 173.9375 C 239.59375 172.621094 239.402344 171.308594 238.625 170.238281 C 237.265625 169.214844 236.585938 172.960938 236.4375 173.839844 C 236.34375 174.179688 236.34375 174.617188 236.292969 175.105469 C 236.195312 176.710938 236.148438 178.65625 234.351562 178.511719 C 233.671875 178.363281 233.1875 177.636719 233.332031 176.953125 C 233.378906 176.808594 233.429688 176.710938 233.429688 176.5625 C 233.429688 176.46875 233.476562 176.371094 233.476562 176.273438 C 233.527344 176.125 233.527344 175.980469 233.574219 175.835938 C 233.769531 173.253906 233.914062 170.285156 235.855469 168.339844 C 236.097656 168.046875 236.4375 167.804688 236.730469 167.65625 C 237.3125 167.363281 237.992188 167.316406 238.625 167.414062 C 239.546875 167.558594 240.371094 168.09375 240.90625 168.921875 C 241.441406 167.023438 243.527344 166.390625 245.277344 166.78125 C 245.714844 166.878906 246.101562 167.074219 246.441406 167.316406 C 246.441406 167.316406 246.492188 167.363281 246.492188 167.363281 C 246.585938 167.414062 246.683594 167.511719 246.734375 167.558594 C 247.171875 167.949219 247.558594 168.386719 247.898438 168.921875 C 249.402344 171.355469 249.644531 174.910156 249.160156 177.097656 Z M 227.164062 169.796875 C 226.339844 170.480469 225.902344 171.988281 225.949219 173.011719 C 225.949219 173.011719 226 173.011719 226 173.011719 C 226 173.011719 226.046875 173.011719 226.046875 173.011719 C 227.019531 172.183594 228.039062 171.453125 228.863281 170.429688 C 228.960938 170.1875 229.058594 169.945312 229.058594 169.703125 C 228.28125 169.261719 227.652344 169.359375 227.164062 169.796875 Z M 216.335938 199.148438 C 217.164062 199.148438 218.035156 198.757812 218.523438 198.078125 C 218.667969 197.835938 218.8125 197.589844 218.863281 197.300781 C 219.007812 196.8125 219.054688 196.472656 219.007812 196.132812 C 218.960938 195.984375 218.910156 195.886719 218.863281 195.742188 C 218.667969 195.449219 218.328125 195.253906 217.746094 195.109375 C 217.597656 195.15625 217.503906 195.15625 217.355469 195.15625 C 217.257812 195.15625 217.164062 195.15625 217.113281 195.15625 C 217.113281 195.15625 217.066406 195.15625 217.066406 195.15625 C 216.628906 195.058594 216.144531 194.960938 215.707031 194.867188 C 215.707031 194.867188 215.707031 194.867188 215.65625 194.867188 C 213.328125 196.324219 213.328125 198.90625 216.335938 199.148438 Z M 150.933594 198.417969 C 150.882812 198.371094 150.785156 198.320312 150.738281 198.273438 C 150.398438 198.027344 150.105469 197.785156 149.816406 197.542969 C 149.425781 197.25 149.085938 196.957031 148.746094 196.667969 C 148.117188 196.132812 147.484375 195.546875 146.851562 195.011719 C 146.125 194.378906 145.445312 193.746094 144.667969 193.113281 C 144.183594 192.625 143.695312 192.140625 143.261719 191.605469 C 142.046875 190.242188 140.878906 188.878906 139.472656 187.710938 C 135.832031 186.785156 141.316406 181.527344 142.386719 180.117188 C 142.773438 179.628906 143.113281 179.09375 143.453125 178.558594 C 144.132812 177.488281 144.765625 176.371094 145.640625 175.394531 C 146.417969 174.324219 147.4375 173.304688 148.308594 172.28125 C 149.183594 171.210938 149.960938 170.089844 150.253906 168.777344 C 150.15625 168.582031 150.058594 168.386719 149.960938 168.191406 C 149.765625 167.898438 149.523438 167.609375 149.28125 167.363281 C 149.039062 167.121094 148.796875 166.878906 148.601562 166.632812 C 147.191406 168.242188 145.980469 170.042969 144.425781 171.550781 C 144.035156 171.988281 143.601562 172.378906 143.210938 172.816406 C 142.046875 174.03125 140.878906 175.25 139.910156 176.660156 C 139.765625 176.808594 139.667969 176.953125 139.570312 177.097656 C 138.453125 178.511719 137.386719 180.019531 136.269531 181.480469 C 135.929688 181.917969 135.589844 182.355469 135.199219 182.792969 C 134.664062 183.425781 133.890625 184.15625 133.113281 183.914062 C 132.917969 183.863281 132.722656 183.71875 132.578125 183.574219 C 132.238281 183.621094 131.898438 183.574219 131.65625 183.378906 C 130.925781 182.84375 130.148438 182.308594 129.46875 181.722656 C 128.886719 181.238281 128.257812 180.75 127.671875 180.261719 C 127.285156 179.921875 126.945312 179.582031 126.558594 179.242188 C 125.585938 178.269531 124.710938 177.246094 123.691406 176.320312 C 122.625 175.542969 121.554688 174.859375 120.535156 174.03125 C 119.757812 173.351562 119.128906 172.621094 118.449219 172.039062 C 118.449219 172.039062 118.398438 172.039062 118.398438 171.988281 C 118.398438 171.988281 118.398438 171.988281 118.351562 171.941406 C 117.914062 171.550781 117.476562 171.257812 117.039062 171.0625 C 117.039062 171.0625 117.039062 171.0625 116.992188 171.0625 C 116.941406 171.0625 116.894531 171.015625 116.84375 171.015625 C 116.796875 171.015625 116.796875 171.015625 116.75 171.015625 C 116.699219 171.015625 116.699219 171.015625 116.652344 171.015625 C 115.824219 170.917969 115 171.453125 113.933594 173.15625 C 114.855469 174.519531 116.652344 175.105469 117.816406 176.273438 C 118.980469 177.246094 120.195312 178.171875 121.359375 179.144531 C 122.671875 180.214844 123.984375 181.382812 125.148438 182.601562 C 125.730469 183.183594 126.265625 183.769531 126.75 184.402344 C 127.820312 185.8125 131.316406 187.027344 130.441406 189.121094 C 130.003906 189.804688 129.179688 190.144531 128.742188 190.824219 C 128.160156 191.703125 127.578125 192.578125 126.992188 193.453125 C 126.652344 193.941406 126.363281 194.425781 126.023438 194.914062 C 125.34375 195.9375 124.664062 196.910156 123.984375 197.882812 C 123.546875 198.417969 123.15625 199.003906 122.816406 199.539062 C 122.285156 200.316406 121.796875 201.09375 121.265625 201.875 C 121.070312 202.167969 120.925781 202.410156 120.730469 202.652344 C 119.710938 204.308594 119.078125 206.15625 118.449219 208.007812 C 118.546875 208.25 118.691406 208.445312 118.835938 208.640625 C 118.835938 208.640625 118.835938 208.640625 118.835938 208.6875 C 118.835938 208.6875 118.886719 208.738281 118.886719 208.738281 C 119.03125 208.933594 119.226562 209.078125 119.417969 209.222656 C 119.808594 209.515625 120.292969 209.757812 120.828125 209.953125 C 120.972656 209.808594 121.117188 209.613281 121.214844 209.46875 C 121.992188 208.445312 122.429688 207.277344 123.109375 206.207031 C 124.855469 203.1875 126.847656 200.316406 128.691406 197.347656 C 128.789062 197.152344 128.9375 196.957031 129.03125 196.8125 C 129.226562 196.519531 129.421875 196.226562 129.566406 195.9375 C 130.34375 194.671875 131.023438 193.355469 132.042969 192.335938 C 132.480469 191.945312 132.964844 191.847656 133.453125 191.894531 C 134.375 191.992188 135.25 192.722656 136.023438 193.210938 C 139.179688 195.058594 141.851562 197.492188 144.863281 199.585938 C 145.882812 200.316406 146.851562 201 147.921875 201.632812 C 148.648438 202.167969 149.28125 202.800781 150.15625 203.140625 C 150.496094 203.042969 150.835938 202.898438 151.125 202.75 C 152.097656 202.167969 152.875 201.289062 153.84375 200.707031 C 152.921875 199.832031 151.902344 199.148438 150.933594 198.417969 Z M 150.933594 198.417969 " fill-opacity="1" fill-rule="nonzero"/></svg>