<svg width="235" height="173" viewBox="0 0 235 173" fill="none" xmlns="http://www.w3.org/2000/svg">
<path d="M212.969 173H22.0312C9.86357 173 0 163.318 0 151.375V21.625C0 9.68169 9.86357 0 22.0312 0H212.969C225.136 0 235 9.68169 235 21.625V151.375C235 163.318 225.136 173 212.969 173ZM51.4062 25.2292C37.2108 25.2292 25.7031 36.5246 25.7031 50.4583C25.7031 64.392 37.2108 75.6875 51.4062 75.6875C65.6017 75.6875 77.1094 64.392 77.1094 50.4583C77.1094 36.5246 65.6017 25.2292 51.4062 25.2292ZM29.375 144.167H205.625V93.7083L165.457 54.281C163.306 52.1699 159.819 52.1699 157.668 54.281L95.4688 115.333L69.9882 90.3227C67.8374 88.2115 64.3501 88.2115 62.1988 90.3227L29.375 122.542V144.167Z" fill="white" fill-opacity="0.6"/>
</svg>
