<svg width="28" height="29" viewBox="0 0 28 29" fill="none" xmlns="http://www.w3.org/2000/svg">
<g>
<path d="M23.449 5.55103L21.6482 7.35181C21.4647 7.5354 21.1678 7.5354 20.9842 7.35181L16.6482 3.01587C16.4647 2.83228 16.4647 2.5354 16.6482 2.35181L18.449 0.551025C19.1795 -0.179443 20.367 -0.179443 21.1014 0.551025L23.449 2.89868C24.1834 3.62915 24.1834 4.81665 23.449 5.55103ZM15.1014 3.89868L4.84356 14.1565L4.01543 18.9026C3.90215 19.5432 4.46074 20.0979 5.10137 19.9885L9.84746 19.1565L20.1053 8.89868C20.2889 8.71509 20.2889 8.41821 20.1053 8.23462L15.7693 3.89868C15.5818 3.71509 15.285 3.71509 15.1014 3.89868ZM8.84746 13.2776C8.63262 13.0627 8.63262 12.719 8.84746 12.5042L14.8631 6.48853C15.0779 6.27368 15.4217 6.27368 15.6365 6.48853C15.8514 6.70337 15.8514 7.04712 15.6365 7.26196L9.6209 13.2776C9.40606 13.4924 9.06231 13.4924 8.84746 13.2776ZM7.43731 16.5627H9.31231V17.9807L6.79278 18.4221L5.57793 17.2073L6.01934 14.6877H7.43731V16.5627Z" fill="#7198FD"/>
</g>
</svg>
