<svg width="26" height="28" viewBox="0 0 26 28" fill="none" xmlns="http://www.w3.org/2000/svg">
<g filter="url(#filter0_d_474_1709)">
<path d="M5.5 18.125C5.5 18.6223 5.69754 19.0992 6.04917 19.4508C6.40081 19.8025 6.87772 20 7.375 20H18.625C19.1223 20 19.5992 19.8025 19.9508 19.4508C20.3025 19.0992 20.5 18.6223 20.5 18.125V5.00001H5.5V18.125ZM16.125 8.12501C16.125 7.95925 16.1908 7.80028 16.3081 7.68306C16.4253 7.56585 16.5842 7.50001 16.75 7.50001C16.9158 7.50001 17.0747 7.56585 17.1919 7.68306C17.3092 7.80028 17.375 7.95925 17.375 8.12501V16.875C17.375 17.0408 17.3092 17.1997 17.1919 17.3169C17.0747 17.4342 16.9158 17.5 16.75 17.5C16.5842 17.5 16.4253 17.4342 16.3081 17.3169C16.1908 17.1997 16.125 17.0408 16.125 16.875V8.12501ZM12.375 8.12501C12.375 7.95925 12.4408 7.80028 12.5581 7.68306C12.6753 7.56585 12.8342 7.50001 13 7.50001C13.1658 7.50001 13.3247 7.56585 13.4419 7.68306C13.5592 7.80028 13.625 7.95925 13.625 8.12501V16.875C13.625 17.0408 13.5592 17.1997 13.4419 17.3169C13.3247 17.4342 13.1658 17.5 13 17.5C12.8342 17.5 12.6753 17.4342 12.5581 17.3169C12.4408 17.1997 12.375 17.0408 12.375 16.875V8.12501ZM8.625 8.12501C8.625 7.95925 8.69085 7.80028 8.80806 7.68306C8.92527 7.56585 9.08424 7.50001 9.25 7.50001C9.41576 7.50001 9.57473 7.56585 9.69194 7.68306C9.80915 7.80028 9.875 7.95925 9.875 8.12501V16.875C9.875 17.0408 9.80915 17.1997 9.69194 17.3169C9.57473 17.4342 9.41576 17.5 9.25 17.5C9.08424 17.5 8.92527 17.4342 8.80806 17.3169C8.69085 17.1997 8.625 17.0408 8.625 16.875V8.12501ZM21.125 1.25001H16.4375L16.0703 0.519538C15.9925 0.363372 15.8727 0.232008 15.7243 0.140225C15.576 0.0484421 15.4049 -0.00011828 15.2305 6.84872e-06H10.7656C10.5916 -0.000662313 10.4208 0.047717 10.273 0.139602C10.1251 0.231487 10.0062 0.363161 9.92969 0.519538L9.5625 1.25001H4.875C4.70924 1.25001 4.55027 1.31585 4.43306 1.43307C4.31585 1.55028 4.25 1.70925 4.25 1.87501V3.12501C4.25 3.29077 4.31585 3.44974 4.43306 3.56695C4.55027 3.68416 4.70924 3.75001 4.875 3.75001H21.125C21.2908 3.75001 21.4497 3.68416 21.5669 3.56695C21.6842 3.44974 21.75 3.29077 21.75 3.12501V1.87501C21.75 1.70925 21.6842 1.55028 21.5669 1.43307C21.4497 1.31585 21.2908 1.25001 21.125 1.25001Z" fill="#535450"/>
</g>
<defs>
<filter id="filter0_d_474_1709" x="0.25" y="0" width="25.5" height="28" filterUnits="userSpaceOnUse" color-interpolation-filters="sRGB">
<feFlood flood-opacity="0" result="BackgroundImageFix"/>
<feColorMatrix in="SourceAlpha" type="matrix" values="0 0 0 0 0 0 0 0 0 0 0 0 0 0 0 0 0 0 127 0" result="hardAlpha"/>
<feOffset dy="4"/>
<feGaussianBlur stdDeviation="2"/>
<feComposite in2="hardAlpha" operator="out"/>
<feColorMatrix type="matrix" values="0 0 0 0 0 0 0 0 0 0 0 0 0 0 0 0 0 0 0.25 0"/>
<feBlend mode="normal" in2="BackgroundImageFix" result="effect1_dropShadow_474_1709"/>
<feBlend mode="normal" in="SourceGraphic" in2="effect1_dropShadow_474_1709" result="shape"/>
</filter>
</defs>
</svg>
