<svg width="12" height="12" viewBox="0 0 12 12" fill="none" xmlns="http://www.w3.org/2000/svg">
<path d="M11.2134 9.83361C11.5552 10.5002 11.1261 11.3333 10.4434 11.3333H1.55664C0.872624 11.3333 0.44555 10.4989 0.786698 9.83361L5.23014 1.16636C5.57212 0.499505 6.42866 0.500713 6.77003 1.16636L11.2134 9.83361ZM6.00008 8.04167C5.52962 8.04167 5.14823 8.47073 5.14823 9.00001C5.14823 9.52928 5.52962 9.95834 6.00008 9.95834C6.47055 9.95834 6.85194 9.52928 6.85194 9.00001C6.85194 8.47073 6.47055 8.04167 6.00008 8.04167ZM5.19133 4.59696L5.3287 7.4303C5.33512 7.56288 5.43257 7.66667 5.55058 7.66667H6.44958C6.5676 7.66667 6.66505 7.56288 6.67147 7.4303L6.80884 4.59696C6.81579 4.45376 6.71444 4.33334 6.58696 4.33334H5.4132C5.28572 4.33334 5.18438 4.45376 5.19133 4.59696Z" fill="#FF7B66"/>
</svg>
