<svg width="290" height="72" viewBox="0 0 290 72" fill="none" xmlns="http://www.w3.org/2000/svg">
<path d="M121.167 52.8369V17.2736H110.06V52.8369H121.167Z" fill="#7198FD"/>
<path d="M43.4284 24.8607C42.0753 27.6222 41.3987 30.8298 41.3987 34.4835C41.3987 38.1372 42.0753 41.3661 43.4284 44.1701C44.8239 46.9316 46.7056 49.0771 49.0736 50.6065C51.4416 52.0935 54.0634 52.837 56.9388 52.837C59.4337 52.837 61.6114 52.3272 63.472 51.3075V42.6054C62.4782 43.0962 61.3787 43.3416 60.1737 43.3416C58.0171 43.3416 56.1777 42.5556 54.6554 40.9837C53.1753 39.3693 52.4353 37.2026 52.4353 34.4835C52.4353 31.7645 53.1753 29.6403 54.6554 28.1108C56.1777 26.5389 58.0171 25.7529 60.1737 25.7529C62.3303 25.7529 64.1486 26.5389 65.6286 28.1108C67.1509 29.6828 67.912 31.8282 67.912 34.5473V47.2927V52.3271H78.7584V16.7674H67.912V21.8018C66.8972 20.1449 65.4383 18.8067 63.5354 17.787C61.6748 16.7674 59.4971 16.2576 57.0022 16.2576C54.0845 16.2576 51.4416 17.0011 49.0736 18.488C46.7056 19.975 44.8239 22.0992 43.4284 24.8607Z" fill="#7198FD"/>
<path d="M289.79 18.2897L268.017 71.1266H256.57L264.533 52.8937L250.411 18.2897H262.293L270.318 40.6956L278.281 18.2897H289.79Z" fill="#FFFCF9"/>
<path d="M230.217 43.4958V52.8369H224.726C220.814 52.8369 217.764 51.8705 215.576 49.9379C213.388 47.9623 212.294 44.7628 212.294 40.3392V26.0377H208.003V16.89H212.294V10.1609H223.149L223.086 16.89H230.154V26.0377H223.086V40.468C223.086 41.5417 223.338 42.3148 223.843 42.7872C224.348 43.2596 225.189 43.4958 226.367 43.4958H230.217Z" fill="#7198FD"/>
<path d="M212.042 0V5.08047H223.149V0H212.042Z" fill="#2DCFAD"/>
<path d="M190.273 16.2576C194.434 16.2576 197.745 17.6412 200.207 20.4084C202.712 23.1324 203.964 26.8941 203.964 31.6936V52.837H193.139V33.1853C193.139 30.7639 192.523 28.8831 191.292 27.5427C190.061 26.2023 188.406 25.5321 186.326 25.5321C184.245 25.5321 182.59 26.2023 181.359 27.5427C180.128 28.8831 179.512 30.7639 179.512 33.1853V52.837H168.624V16.6467H179.512V21.4461C180.616 19.8463 182.102 18.5924 183.969 17.6844C185.837 16.7332 187.939 16.2576 190.273 16.2576Z" fill="#7198FD"/>
<path d="M128.245 24.8607C126.892 27.6222 126.215 30.8299 126.215 34.4835C126.215 38.1372 126.892 41.3661 128.245 44.1701C129.641 46.9316 131.522 49.0771 133.89 50.6065C136.258 52.0935 138.88 52.837 141.755 52.837C144.25 52.837 146.428 52.3272 148.289 51.3075V42.6054C147.295 43.0962 146.195 43.3416 144.99 43.3416C142.834 43.3416 140.994 42.5557 139.472 40.9837C137.992 39.3693 137.252 37.2026 137.252 34.4835C137.252 31.7645 137.992 29.6403 139.472 28.1108C140.994 26.5389 142.834 25.7529 144.99 25.7529C147.147 25.7529 148.965 26.5389 150.445 28.1108C151.968 29.6828 152.729 31.8282 152.729 34.5473V47.2927V52.3271H163.575V16.7674H152.729V21.8018C151.714 20.1449 150.255 18.8067 148.352 17.787C146.491 16.7674 144.314 16.2576 141.819 16.2576C138.901 16.2576 136.258 17.0011 133.89 18.488C131.522 19.975 129.641 22.0992 128.245 24.8607Z" fill="#7198FD"/>
<path d="M19.2163 42.6395L26.8649 17.2736H38.3694L25.8535 52.8369H12.5159L0 17.2736H11.5677L19.2163 42.6395Z" fill="#7198FD"/>
<path d="M94.2864 23.5161C95.5121 21.5824 97.0442 20.069 98.8827 18.9761C100.721 17.8411 102.764 17.2736 105.011 17.2736V28.6866H102.131C99.5159 28.6866 97.5549 29.2751 96.2475 30.4522C94.9401 31.5872 94.2864 33.6049 94.2864 36.5055V52.8369H83.8069V17.6519H94.2864V23.5161Z" fill="#7198FD"/>
<path d="M110.861 10.4795C112.111 11.6219 113.706 12.1931 115.646 12.1931C117.542 12.1931 119.094 11.6219 120.301 10.4795C121.551 9.29315 122.176 7.84315 122.176 6.12952C122.176 4.37195 121.551 2.92196 120.301 1.77954C119.094 0.59318 117.542 0 115.646 0C113.706 0 112.111 0.59318 110.861 1.77954C109.654 2.92196 109.05 4.37195 109.05 6.12952C109.05 7.84315 109.654 9.29315 110.861 10.4795Z" fill="#FFCA64"/>
<path d="M246.372 10.1609V52.8369H235.265V10.1609H246.372Z" fill="#FFFCF9"/>
<path d="M19.1848 22.3541L12.1167 0H26.2528L19.1848 22.3541Z" fill="#FF7B66"/>
</svg>
