<svg width="68" height="68" viewBox="0 0 68 68" fill="none" xmlns="http://www.w3.org/2000/svg">
<g clip-path="url(#clip0_296_6667)">
<path d="M42.9565 10.9565C42.9565 7.11454 39.842 4 36 4C32.158 4 29.0435 7.11454 29.0435 10.9565V61.0435C29.0435 64.8855 32.158 68 36 68C39.842 68 42.9565 64.8855 42.9565 61.0435V10.9565Z" fill="#1E1E1E"/>
<path d="M10.9565 29.0436C7.11454 29.0436 4 32.1581 4 36.0001C4 39.8421 7.11454 42.9566 10.9565 42.9566H61.0435C64.8855 42.9566 68 39.8421 68 36.0001C68 32.1581 64.8855 29.0436 61.0435 29.0436L10.9565 29.0436Z" fill="#1E1E1E"/>
<path d="M38.9565 6.95652C38.9565 3.11454 35.842 0 32 0C28.158 0 25.0435 3.11454 25.0435 6.95652V57.0435C25.0435 60.8855 28.158 64 32 64C35.842 64 38.9565 60.8855 38.9565 57.0435V6.95652Z" fill="#2DCFAD"/>
<path d="M6.95652 25.0436C3.11454 25.0436 0 28.1581 0 32.0001C0 35.8421 3.11454 38.9566 6.95652 38.9566H57.0435C60.8855 38.9566 64 35.8421 64 32.0001C64 28.1581 60.8855 25.0436 57.0435 25.0436L6.95652 25.0436Z" fill="#2DCFAD"/>
</g>
<defs>
<clipPath id="clip0_296_6667">
<rect width="68" height="68" fill="white"/>
</clipPath>
</defs>
</svg>
