<svg width="456" height="359" viewBox="0 0 456 359" fill="none" xmlns="http://www.w3.org/2000/svg">
<path d="M73.8146 304.988C53.7795 296.311 33.5244 285.96 13.0697 290.291C8.26254 291.308 3.97412 293.046 0 295.231V289.5C3.65341 287.708 7.8685 285.779 12.1593 284.87C33.494 280.349 54.6899 290.788 75.5846 299.841C95.3997 308.423 114.941 315.783 134.164 305.565C157.82 292.989 162.72 267.702 165.438 241.139C166.853 227.311 167.641 213.111 169.888 199.989C172.207 186.445 176.085 174.04 183.585 164.224C207.606 132.772 239.707 117.426 272.927 104.577C305.528 91.9714 339.205 81.7872 367.014 60.4283C385.325 46.3705 395.018 23.9857 396 0H401C399.931 25.6504 389.376 49.9462 369.793 64.9832C341.622 86.6117 307.548 97.0198 274.528 109.793C242.126 122.323 210.744 137.145 187.318 167.811C180.363 176.914 176.867 188.468 174.714 201.029C172.491 214.018 171.723 228.081 170.322 241.773C167.408 270.256 161.641 297.066 136.269 310.553C115.787 321.439 94.9259 314.132 73.8146 304.988Z" fill="#FF7B66"/>
<path d="M83.9388 346.49C61.1558 336.632 38.1226 324.872 14.8623 329.792C9.39581 330.948 4.5192 332.923 0 335.404V328.894C4.15451 326.859 8.94775 324.666 13.827 323.634C38.0879 318.498 62.191 330.357 85.9516 340.642C108.484 350.392 130.706 358.754 152.565 347.145C179.466 332.858 185.039 304.13 188.129 273.952C189.738 258.242 190.634 242.11 193.19 227.202C195.826 211.816 200.236 197.723 208.765 186.571C236.081 150.84 272.584 133.405 310.361 118.808C347.433 104.486 385.73 92.9165 417.353 68.6511C438.175 52.6804 449.198 27.2495 450.314 0H456C454.784 29.1408 442.782 56.7427 420.512 73.8259C388.477 98.3975 349.731 110.222 312.181 124.733C275.336 138.968 239.649 155.807 213.009 190.647C205.101 200.988 201.125 214.114 198.678 228.384C196.149 243.14 195.276 259.118 193.682 274.672C190.369 307.032 183.811 337.49 154.959 352.811C131.668 365.179 107.946 356.878 83.9388 346.49Z" fill="#FF7B66"/>
</svg>
