<svg width="22" height="22" viewBox="0 0 22 22" fill="none" xmlns="http://www.w3.org/2000/svg">
<g filter="url(#filter0_d_365_28247)">
<path d="M5.14286 16.3125C5.14286 16.7601 5.32347 17.1893 5.64496 17.5057C5.96645 17.8222 6.40249 18 6.85714 18H17.1429C17.5975 18 18.0336 17.8222 18.355 17.5057C18.6765 17.1893 18.8571 16.7601 18.8571 16.3125V4.5H5.14286V16.3125ZM14.8571 7.3125C14.8571 7.16332 14.9173 7.02025 15.0245 6.91476C15.1317 6.80927 15.277 6.75 15.4286 6.75C15.5801 6.75 15.7255 6.80927 15.8326 6.91476C15.9398 7.02025 16 7.16332 16 7.3125V15.1875C16 15.3367 15.9398 15.4798 15.8326 15.5852C15.7255 15.6907 15.5801 15.75 15.4286 15.75C15.277 15.75 15.1317 15.6907 15.0245 15.5852C14.9173 15.4798 14.8571 15.3367 14.8571 15.1875V7.3125ZM11.4286 7.3125C11.4286 7.16332 11.4888 7.02025 11.5959 6.91476C11.7031 6.80927 11.8484 6.75 12 6.75C12.1516 6.75 12.2969 6.80927 12.4041 6.91476C12.5112 7.02025 12.5714 7.16332 12.5714 7.3125V15.1875C12.5714 15.3367 12.5112 15.4798 12.4041 15.5852C12.2969 15.6907 12.1516 15.75 12 15.75C11.8484 15.75 11.7031 15.6907 11.5959 15.5852C11.4888 15.4798 11.4286 15.3367 11.4286 15.1875V7.3125ZM8 7.3125C8 7.16332 8.0602 7.02025 8.16737 6.91476C8.27453 6.80927 8.41988 6.75 8.57143 6.75C8.72298 6.75 8.86833 6.80927 8.97549 6.91476C9.08265 7.02025 9.14286 7.16332 9.14286 7.3125V15.1875C9.14286 15.3367 9.08265 15.4798 8.97549 15.5852C8.86833 15.6907 8.72298 15.75 8.57143 15.75C8.41988 15.75 8.27453 15.6907 8.16737 15.5852C8.0602 15.4798 8 15.3367 8 15.1875V7.3125ZM19.4286 1.12501H15.1429L14.8071 0.467584C14.736 0.327034 14.6265 0.208807 14.4908 0.126202C14.3552 0.0435979 14.1988 -0.000106452 14.0393 6.16384e-06H9.95714C9.79799 -0.000596081 9.64189 0.0429453 9.50672 0.125642C9.37154 0.208338 9.26277 0.326845 9.19286 0.467584L8.85714 1.12501H4.57143C4.41988 1.12501 4.27453 1.18427 4.16737 1.28976C4.0602 1.39525 4 1.53832 4 1.68751V2.81251C4 2.96169 4.0602 3.10476 4.16737 3.21025C4.27453 3.31574 4.41988 3.37501 4.57143 3.37501H19.4286C19.5801 3.37501 19.7255 3.31574 19.8326 3.21025C19.9398 3.10476 20 2.96169 20 2.81251V1.68751C20 1.53832 19.9398 1.39525 19.8326 1.28976C19.7255 1.18427 19.5801 1.12501 19.4286 1.12501Z" fill="white"/>
</g>
<defs>
<filter id="filter0_d_365_28247" x="0" y="0" width="24" height="26" filterUnits="userSpaceOnUse" color-interpolation-filters="sRGB">
<feFlood flood-opacity="0" result="BackgroundImageFix"/>
<feColorMatrix in="SourceAlpha" type="matrix" values="0 0 0 0 0 0 0 0 0 0 0 0 0 0 0 0 0 0 127 0" result="hardAlpha"/>
<feOffset dy="4"/>
<feGaussianBlur stdDeviation="2"/>
<feComposite in2="hardAlpha" operator="out"/>
<feColorMatrix type="matrix" values="0 0 0 0 0 0 0 0 0 0 0 0 0 0 0 0 0 0 0.25 0"/>
<feBlend mode="normal" in2="BackgroundImageFix" result="effect1_dropShadow_365_28247"/>
<feBlend mode="normal" in="SourceGraphic" in2="effect1_dropShadow_365_28247" result="shape"/>
</filter>
</defs>
</svg>
