<svg width="12" height="8" viewBox="0 0 12 8" fill="none" xmlns="http://www.w3.org/2000/svg">
<path fill-rule="evenodd" clip-rule="evenodd" d="M11.6483 7.24841C11.4233 7.47338 11.1181 7.59976 10.7999 7.59976C10.4817 7.59976 10.1765 7.47338 9.9515 7.24841L5.9999 3.29681L2.0483 7.24841C1.82198 7.467 1.51886 7.58795 1.20422 7.58522C0.889585 7.58249 0.58861 7.45628 0.366121 7.23379C0.143631 7.0113 0.0174279 6.71033 0.0146938 6.39569C0.0119597 6.08106 0.132913 5.77793 0.351503 5.55161L5.1515 0.751612C5.37654 0.526647 5.68171 0.400269 5.9999 0.400269C6.3181 0.400269 6.62327 0.526647 6.8483 0.751612L11.6483 5.55161C11.8733 5.77665 11.9996 6.08181 11.9996 6.40001C11.9996 6.71821 11.8733 7.02338 11.6483 7.24841Z" fill="#AAC1FE"/>
</svg>
